<svg id="Vrstva_1" data-name="Vrstva 1" xmlns="http://www.w3.org/2000/svg" viewBox="0 0 57.62 53.48"><defs><style>.cls-1{fill:#fff;}.cls-2{fill:#004c74;}</style></defs><title>flower-2</title><rect class="cls-1" width="57.62" height="53.48"/><circle class="cls-2" cx="29.02" cy="26.71" r="2.3"/><path class="cls-2" d="M182.05,384.17c13.5-17.8,21.7,1.6.5.6C181.75,384.77,182.05,384.17,182.05,384.17Z" transform="translate(-149.13 -359.26)"/><path class="cls-2" d="M179.65,382.17c-2.6-22.5,16.4-14.8.8.1C179.75,382.77,179.65,382.17,179.65,382.17Z" transform="translate(-149.13 -359.26)"/><path class="cls-2" d="M176,382.87c-17.2-14,1.5-22.5.6-.5C176.55,383.17,176,382.87,176,382.87Z" transform="translate(-149.13 -359.26)"/><path class="cls-2" d="M174.15,385.37c-21.7,2.7-14.3-17,.1-.8C174.75,385.17,174.15,385.37,174.15,385.37Z" transform="translate(-149.13 -359.26)"/><path class="cls-2" d="M174.25,388c-13.5,17.8-21.7-1.6-.5-.6C174.55,387.47,174.25,388,174.25,388Z" transform="translate(-149.13 -359.26)"/><path class="cls-2" d="M182.25,387c21.7-2.7,14.3,17-.1.8C181.65,387.17,182.25,387,182.25,387Z" transform="translate(-149.13 -359.26)"/><path class="cls-2" d="M180.35,389.67c17.2,14-1.5,22.5-.6.5C179.75,389.37,180.35,389.67,180.35,389.67Z" transform="translate(-149.13 -359.26)"/><path class="cls-2" d="M177.05,389.77c2.6,22.5-16.4,14.8-.8-.1C176.85,389.17,177.05,389.77,177.05,389.77Z" transform="translate(-149.13 -359.26)"/></svg>