<svg id="Vrstva_1" data-name="Vrstva 1" xmlns="http://www.w3.org/2000/svg" viewBox="0 0 65.83 61.11"><defs><style>.cls-1{fill:#fff;}.cls-2{fill:#004c74;}</style></defs><title>flower-1</title><rect class="cls-1" width="65.83" height="61.11"/><path class="cls-2" d="M182.8,386c36.4-1,18.4-32.7,0,0" transform="translate(-149.09 -355.45)"/><path class="cls-2" d="M182.8,386c17.3-33.1-18.2-32.9,0,0" transform="translate(-149.09 -355.45)"/><path class="cls-2" d="M182.9,386.1c19,32,36.6.1,0,0" transform="translate(-149.09 -355.45)"/><path class="cls-2" d="M182.8,386c-36.4,1-18.4,32.7,0,0" transform="translate(-149.09 -355.45)"/><path class="cls-2" d="M182.8,386.1c-17.3,33.1,18.2,32.8,0,0" transform="translate(-149.09 -355.45)"/><path class="cls-2" d="M182.8,386c-19.1-32.1-36.6-.1,0,0" transform="translate(-149.09 -355.45)"/><ellipse class="cls-1" cx="33.31" cy="30.85" rx="5.9" ry="6.1"/></svg>