<svg id="Vrstva_1" data-name="Vrstva 1" xmlns="http://www.w3.org/2000/svg" viewBox="0 0 65.29 65.36"><defs><style>.cls-1{fill:#fff;}.cls-2{fill:#004c74;}.cls-3{fill:none;stroke:#fff;stroke-miterlimit:10;stroke-width:2px;}</style></defs><title>flower-4</title><rect class="cls-1" width="65.29" height="65.36"/><path class="cls-2" d="M173.51,384.49c-15.9-35.5-38.5,3.9,0,0" transform="translate(-140.44 -351.19)"/><path class="cls-2" d="M173.41,384.79c22.9-31.2-21.3-33.5,0,0" transform="translate(-140.44 -351.19)"/><path class="cls-2" d="M173.41,384.49c14.7,36.1,38.7-2.5,0,0" transform="translate(-140.44 -351.19)"/><path class="cls-2" d="M173.51,384.39c37.5,4.9,17.3-35.8,0,0" transform="translate(-140.44 -351.19)"/><path class="cls-2" d="M173.51,384.49c-22.9,31.2,21.4,33.4,0,0" transform="translate(-140.44 -351.19)"/><path class="cls-2" d="M173.51,384.59c-37.5-4.9-17.3,35.8,0,0" transform="translate(-140.44 -351.19)"/><ellipse class="cls-3" cx="33.47" cy="33.9" rx="7" ry="7.3"/></svg>