<svg id="Vrstva_1" data-name="Vrstva 1" xmlns="http://www.w3.org/2000/svg" viewBox="0 0 75 69.62"><defs><style>.cls-1{fill:#fff;}.cls-2{fill:#004c74;}</style></defs><title>flower-3</title><rect class="cls-1" width="75" height="69.62"/><path class="cls-2" d="M201.7,400.94A11.05,11.05,0,0,1,196,402.5H196a12.41,12.41,0,0,1-1,6.14,8.92,8.92,0,0,1-8.09,5.22,8.07,8.07,0,0,1-2.33-.31,11.35,11.35,0,0,1-5.22-3.27,11.18,11.18,0,0,1-5.13,3.89,9.87,9.87,0,0,1-3,.46,9,9,0,0,1-7.78-4.66,11.89,11.89,0,0,1-1.48-5.76,12.24,12.24,0,0,1-1.56.07,10.53,10.53,0,0,1-4.82-1.08,9.46,9.46,0,0,1-4.75-10.82,11.81,11.81,0,0,1,2.8-5.06,11.49,11.49,0,0,1-3-4.67,9.5,9.5,0,0,1,4-11.13A11.12,11.12,0,0,1,160.3,370a12.43,12.43,0,0,1,1-6.15,8.84,8.84,0,0,1,10.42-4.9,10.82,10.82,0,0,1,5.22,3.27,11.57,11.57,0,0,1,5.52-4.44,8.91,8.91,0,0,1,10.74,4.12,12,12,0,0,1,1.48,6.07,11.35,11.35,0,0,1,5.91,1,9.32,9.32,0,0,1,4.75,10.73,12.22,12.22,0,0,1-2.88,5.14,10.44,10.44,0,0,1,3.19,4.83A9.4,9.4,0,0,1,201.7,400.94Z" transform="translate(-140.44 -351.19)"/><ellipse class="cls-1" cx="37.84" cy="35.2" rx="2.88" ry="2.96"/><path class="cls-1" d="M183.18,384.13c17.2-22.64,27.63,2,.63.78C182.79,384.83,183.18,384.13,183.18,384.13Z" transform="translate(-140.44 -351.19)"/><path class="cls-1" d="M180.15,381.56c-3.35-28.56,20.93-18.75.93.08C180.3,382.34,180.15,381.56,180.15,381.56Z" transform="translate(-140.44 -351.19)"/><path class="cls-1" d="M175.48,382.42c-21.87-17.74,1.94-28.56.7-.62C176.18,382.88,175.48,382.42,175.48,382.42Z" transform="translate(-140.44 -351.19)"/><path class="cls-1" d="M173.07,385.61c-27.63,3.5-18.13-21.63.07-1C173.92,385.38,173.07,385.61,173.07,385.61Z" transform="translate(-140.44 -351.19)"/><path class="cls-1" d="M173.3,389c-17.2,22.65-27.62-2-.62-.77C173.77,388.25,173.3,389,173.3,389Z" transform="translate(-140.44 -351.19)"/><path class="cls-1" d="M183.49,387.71c27.63-3.5,18.14,21.63-.07,1C182.72,387.87,183.49,387.71,183.49,387.71Z" transform="translate(-140.44 -351.19)"/><path class="cls-1" d="M181,391.13c21.87,17.75-1.94,28.56-.7.63C180.3,390.67,181,391.13,181,391.13Z" transform="translate(-140.44 -351.19)"/><path class="cls-1" d="M176.8,391.21c3.35,28.56-20.93,18.76-.93-.08C176.65,390.43,176.8,391.21,176.8,391.21Z" transform="translate(-140.44 -351.19)"/></svg>