<svg id="Vrstva_1" data-name="Vrstva 1" xmlns="http://www.w3.org/2000/svg" viewBox="0 0 35.36 35.85"><defs><style>.cls-1{fill:#004c74;}</style></defs><title>flower-nadpis-2</title><circle class="cls-1" cx="17.63" cy="17.92" r="2.3"/><path class="cls-1" d="M21.53,16.12c13.5-17.8,21.7,1.6.5.6C21.23,16.72,21.53,16.12,21.53,16.12Z"/><path class="cls-1" d="M19.13,14.12c-2.6-22.5,16.4-14.8.8.1C19.23,14.72,19.13,14.12,19.13,14.12Z"/><path class="cls-1" d="M15.48,14.82c-17.2-14,1.5-22.5.6-.5C16,15.12,15.48,14.82,15.48,14.82Z"/><path class="cls-1" d="M13.63,17.32c-21.7,2.7-14.3-17,.1-.8C14.23,17.12,13.63,17.32,13.63,17.32Z"/><path class="cls-1" d="M13.73,20c-13.5,17.8-21.7-1.6-.5-.6C14,19.42,13.73,20,13.73,20Z"/><path class="cls-1" d="M21.73,19c21.7-2.7,14.3,17-.1.8C21.13,19.12,21.73,19,21.73,19Z"/><path class="cls-1" d="M19.83,21.62c17.2,14-1.5,22.5-.6.5C19.23,21.32,19.83,21.62,19.83,21.62Z"/><path class="cls-1" d="M16.53,21.72c2.6,22.5-16.4,14.8-.8-.1C16.33,21.12,16.53,21.72,16.53,21.72Z"/></svg>