<svg id="Vrstva_1" data-name="Vrstva 1" xmlns="http://www.w3.org/2000/svg" viewBox="0 0 512.48 456.69"><defs><style>.cls-1,.cls-7{opacity:0.1;}.cls-2,.cls-7{fill:#00536d;}.cls-3{fill:#fff;}.cls-4,.cls-5,.cls-6{fill:none;stroke:#fff;stroke-miterlimit:10;}.cls-4{stroke-width:2px;}.cls-5{stroke-width:5px;}.cls-6{stroke-width:4px;}.cls-7{isolation:isolate;}</style></defs><title>vzorek</title><g class="cls-1"><path class="cls-2" d="M-153.19,230.09c-43.2-25.9-38.7,34.5,0,0" transform="translate(597.78 2.22)"/><path class="cls-2" d="M-153.09,230.29c1.8-51.7-47.6-19.1,0,0" transform="translate(597.78 2.22)"/><path class="cls-2" d="M-153.39,230.09c42.5,27.4,40-33,0,0" transform="translate(597.78 2.22)"/><path class="cls-2" d="M-153.19,230c44.1-24.4-7.7-52.4,0,0" transform="translate(597.78 2.22)"/><path class="cls-2" d="M-153.19,230.09c-1.7,51.7,47.6,19.3,0,0" transform="translate(597.78 2.22)"/><path class="cls-2" d="M-153.19,230.09c-44.1,24.3,7.7,52.3,0,0" transform="translate(597.78 2.22)"/><path class="cls-2" d="M-219,143.49C-272.29,123.19-240,89.59-219,143.49Z" transform="translate(597.78 2.22)"/><path class="cls-2" d="M-214.49,139.89C-238.39,86.69-192.59,86.69-214.49,139.89Z" transform="translate(597.78 2.22)"/><path class="cls-2" d="M-220.39,145.69C-271.79,170.39-271.79,122.89-220.39,145.69Z" transform="translate(597.78 2.22)"/><path class="cls-2" d="M-209.59,150.19C-155.59,168.69-187.09,203.29-209.59,150.19Z" transform="translate(597.78 2.22)"/><path class="cls-2" d="M-210.29,143.39C-190.79,88.09-158.29,121.79-210.29,143.39Z" transform="translate(597.78 2.22)"/><path class="cls-2" d="M-209.09,145.59C-157.49,120.89-157.59,168.29-209.09,145.59Z" transform="translate(597.78 2.22)"/><path class="cls-2" d="M-214.79,150.89C-190.89,204.19-236.69,204.19-214.79,150.89Z" transform="translate(597.78 2.22)"/><path class="cls-2" d="M-219.09,148.29C-238.69,203.49-271.09,169.89-219.09,148.29Z" transform="translate(597.78 2.22)"/><path class="cls-2" d="M-288.89,295.39a18.23,18.23,0,0,1-9.4,2.6h-.1a21,21,0,0,1-1.7,10.2,14.77,14.77,0,0,1-13.4,8.6,17.37,17.37,0,0,1-3.9-.5,18.57,18.57,0,0,1-8.6-5.4,18,18,0,0,1-8.5,6.4,16.22,16.22,0,0,1-4.9.8,15,15,0,0,1-12.9-7.7,19.71,19.71,0,0,1-2.4-9.5,22.6,22.6,0,0,1-2.6.1,17,17,0,0,1-8-1.8,15.57,15.57,0,0,1-7.8-17.9,19.84,19.84,0,0,1,4.6-8.4,18.7,18.7,0,0,1-5-7.7,15.64,15.64,0,0,1,6.6-18.3,18.85,18.85,0,0,1,9.5-2.6,20.91,20.91,0,0,1,1.6-10.2,14.64,14.64,0,0,1,17.2-8.1,17.8,17.8,0,0,1,8.6,5.4,19.2,19.2,0,0,1,9.1-7.3,14.75,14.75,0,0,1,17.8,6.8,19.47,19.47,0,0,1,2.4,10,19.43,19.43,0,0,1,9.8,1.7,15.38,15.38,0,0,1,7.8,17.8,20,20,0,0,1-4.8,8.5,17.37,17.37,0,0,1,5.3,8A15,15,0,0,1-288.89,295.39Z" transform="translate(597.78 2.22)"/><path class="cls-2" d="M-170.29,93.89a18.23,18.23,0,0,1-9.4,2.6h-.1a21,21,0,0,1-1.7,10.2,14.77,14.77,0,0,1-13.4,8.6,17.37,17.37,0,0,1-3.9-.5,18.57,18.57,0,0,1-8.6-5.4,18,18,0,0,1-8.5,6.4,16.22,16.22,0,0,1-4.9.8,15,15,0,0,1-12.9-7.7,19.71,19.71,0,0,1-2.4-9.5,22.6,22.6,0,0,1-2.6.1,17,17,0,0,1-8-1.8,15.75,15.75,0,0,1-7.9-17.9,19.84,19.84,0,0,1,4.6-8.4,18.7,18.7,0,0,1-5-7.7,15.69,15.69,0,0,1,6.6-18.4,18.94,18.94,0,0,1,9.6-2.6,21,21,0,0,1,1.7-10.2,14.64,14.64,0,0,1,17.2-8.1,17.8,17.8,0,0,1,8.6,5.4,19.2,19.2,0,0,1,9.1-7.3,14.75,14.75,0,0,1,17.8,6.8,19.47,19.47,0,0,1,2.4,10,19.43,19.43,0,0,1,9.8,1.7,15.38,15.38,0,0,1,7.8,17.8,20,20,0,0,1-4.8,8.5,17.37,17.37,0,0,1,5.3,8A15.78,15.78,0,0,1-170.29,93.89Z" transform="translate(597.78 2.22)"/><path class="cls-2" d="M-135.19,320a18.23,18.23,0,0,1-9.4,2.6h-.1a21,21,0,0,1-1.7,10.2,14.73,14.73,0,0,1-13.3,8.6,17.37,17.37,0,0,1-3.9-.5,18.57,18.57,0,0,1-8.6-5.4,18,18,0,0,1-8.5,6.4,16.22,16.22,0,0,1-4.9.8,15,15,0,0,1-12.9-7.7,19.81,19.81,0,0,1-2.5-9.5,22.6,22.6,0,0,1-2.6.1,17,17,0,0,1-8-1.8,15.57,15.57,0,0,1-7.8-17.9,19.84,19.84,0,0,1,4.6-8.4,18.7,18.7,0,0,1-5-7.7,15.69,15.69,0,0,1,6.6-18.4,18.85,18.85,0,0,1,9.5-2.6,21,21,0,0,1,1.7-10.2,14.64,14.64,0,0,1,17.2-8.1,17.8,17.8,0,0,1,8.6,5.4,19.2,19.2,0,0,1,9.1-7.3,14.75,14.75,0,0,1,17.8,6.8,20.61,20.61,0,0,1,2.5,10,18.58,18.58,0,0,1,9.8,1.7,15.38,15.38,0,0,1,7.8,17.8,20,20,0,0,1-4.8,8.5,17.37,17.37,0,0,1,5.3,8A15.54,15.54,0,0,1-135.19,320Z" transform="translate(597.78 2.22)"/><path class="cls-2" d="M-360.59,242.89a15.48,15.48,0,0,1-7.8,2.1h-.1a15,15,0,0,1-1.4,8.1,12.33,12.33,0,0,1-11.2,6.8,11.24,11.24,0,0,1-3.2-.4,16.93,16.93,0,0,1-7.2-4.2,14,14,0,0,1-7.1,5.1,14,14,0,0,1-4.1.6,12.22,12.22,0,0,1-10.7-6.2,14.51,14.51,0,0,1-2.1-7.6,16.2,16.2,0,0,1-2.2.1,16.63,16.63,0,0,1-6.6-1.4,12.17,12.17,0,0,1-6.6-14.2A15.21,15.21,0,0,1-427,225a16.88,16.88,0,0,1-4.3-6.2,12.4,12.4,0,0,1,5.5-14.7,15.94,15.94,0,0,1,8-2.1,14.14,14.14,0,0,1,1.4-8.1,12.36,12.36,0,0,1,14.4-6.4,15.33,15.33,0,0,1,7.2,4.4,14.64,14.64,0,0,1,7.6-5.8,12.52,12.52,0,0,1,14.8,5.4,15.94,15.94,0,0,1,2.1,8,13.69,13.69,0,0,1,8.2,1.4,12.21,12.21,0,0,1,6.6,14.1,15.42,15.42,0,0,1-4,6.7,15.35,15.35,0,0,1,4.4,6.3A12.36,12.36,0,0,1-360.59,242.89Z" transform="translate(597.78 2.22)"/><path class="cls-2" d="M-169.39,230a14.21,14.21,0,0,1-7.3,1.9h-.1a13.39,13.39,0,0,1-1.3,7.6,11.25,11.25,0,0,1-10.4,6.4,10.32,10.32,0,0,1-3-.4,15.42,15.42,0,0,1-6.7-4,15,15,0,0,1-6.7,4.9,12.26,12.26,0,0,1-3.9.6,11.47,11.47,0,0,1-10-5.8,13.5,13.5,0,0,1-1.9-7.1,14.08,14.08,0,0,1-2,.1,15,15,0,0,1-6.2-1.3,11.61,11.61,0,0,1-6.2-13.4,13.07,13.07,0,0,1,3.7-6.3,14.43,14.43,0,0,1-4-5.8,11.58,11.58,0,0,1,5.1-13.7,14,14,0,0,1,7.5-1.9,13.39,13.39,0,0,1,1.3-7.6,11.56,11.56,0,0,1,13.5-6,14.06,14.06,0,0,1,6.8,4.1,15.14,15.14,0,0,1,7.1-5.6,11.61,11.61,0,0,1,13.9,5.2,14,14,0,0,1,1.9,7.5,13.72,13.72,0,0,1,7.7,1.3,11.48,11.48,0,0,1,6.2,13.3,13.07,13.07,0,0,1-3.7,6.3,13.45,13.45,0,0,1,4.1,5.9A12.2,12.2,0,0,1-169.39,230Z" transform="translate(597.78 2.22)"/><path class="cls-2" d="M-356.09,343.69a14.18,14.18,0,0,1-6.7,1.7h-.1a14,14,0,0,1-1.2,7,10.67,10.67,0,0,1-9.5,5.9,8.42,8.42,0,0,1-2.7-.4,13.91,13.91,0,0,1-6.2-3.6,12.58,12.58,0,0,1-6,4.4,10.24,10.24,0,0,1-3.5.5,10.7,10.7,0,0,1-9.2-5.2,12.66,12.66,0,0,1-1.6-6.6,10.87,10.87,0,0,1-1.8.1,14.23,14.23,0,0,1-5.7-1.2,10.36,10.36,0,0,1-5.7-12.1,12.62,12.62,0,0,1,3.3-5.7,13.89,13.89,0,0,1-3.6-5.3,10.28,10.28,0,0,1,4.8-12.5,14.58,14.58,0,0,1,6.8-1.7,13.48,13.48,0,0,1,1.2-6.9,10.64,10.64,0,0,1,12.2-5.5,12.77,12.77,0,0,1,6.2,3.7,14.94,14.94,0,0,1,6.4-5,10.54,10.54,0,0,1,12.6,4.6,11.53,11.53,0,0,1,1.7,6.8,14.63,14.63,0,0,1,7.1,1.2,10.19,10.19,0,0,1,5.6,12.1,12.45,12.45,0,0,1-3.5,5.8,11.93,11.93,0,0,1,3.7,5.4A10.45,10.45,0,0,1-356.09,343.69Z" transform="translate(597.78 2.22)"/><path class="cls-2" d="M-336,432.69a16.77,16.77,0,0,1-8.2,1.9h-.1a14.47,14.47,0,0,1-1.4,7.9,13,13,0,0,1-11.6,6.7,12.42,12.42,0,0,1-3.3-.4,16.77,16.77,0,0,1-7.5-4.1,16.8,16.8,0,0,1-7.3,5,15.23,15.23,0,0,1-4.2.6,13.49,13.49,0,0,1-11.2-5.9,13.91,13.91,0,0,1-2.1-7.5,8.88,8.88,0,0,1-2.3.1,15.41,15.41,0,0,1-7-1.4c-5.5-2.6-8.4-8.2-6.8-13.8a13.62,13.62,0,0,1,4.1-6.4,14.43,14.43,0,0,1-4.4-6c-2-5.4.4-11.3,5.8-14.3a16.77,16.77,0,0,1,8.2-1.9,14,14,0,0,1,1.4-7.8c2.7-5.2,8.9-7.7,14.9-6.3a16.07,16.07,0,0,1,7.6,4.3,15.85,15.85,0,0,1,8-5.7,13,13,0,0,1,16.7,8,12.15,12.15,0,0,1,.7,5,17,17,0,0,1,8.6,1.3c5.5,2.6,8.4,8.2,6.8,13.8a14.75,14.75,0,0,1-4.1,6.6,13.53,13.53,0,0,1,4.6,6.2A11.64,11.64,0,0,1-336,432.69Z" transform="translate(597.78 2.22)"/><path class="cls-2" d="M-442,147.89a15,15,0,0,1-7.5,2h-.1a13.72,13.72,0,0,1-1.3,7.7,11.81,11.81,0,0,1-10.6,6.5,11,11,0,0,1-3.1-.4,14.06,14.06,0,0,1-6.8-4.1,15,15,0,0,1-6.7,4.9,12.26,12.26,0,0,1-3.9.6,11.79,11.79,0,0,1-10.2-5.8,13.19,13.19,0,0,1-1.9-7.2,14.77,14.77,0,0,1-2.1.1,12.64,12.64,0,0,1-6.3-1.4,11.51,11.51,0,0,1-6.2-13.5,14.09,14.09,0,0,1,3.8-6.3,14.11,14.11,0,0,1-4-5.9,11.5,11.5,0,0,1,5.3-13.9,14.33,14.33,0,0,1,7.6-1.9,13.72,13.72,0,0,1,1.3-7.7,11.92,11.92,0,0,1,13.6-6.2,14.06,14.06,0,0,1,6.8,4.1,14.47,14.47,0,0,1,7.2-5.5,11.62,11.62,0,0,1,14,5.2,14.33,14.33,0,0,1,1.9,7.6,14.41,14.41,0,0,1,7.9,1.3,11.46,11.46,0,0,1,6.2,13.5,14.78,14.78,0,0,1-3.7,6.4,13.75,13.75,0,0,1,4.1,6A11.78,11.78,0,0,1-442,147.89Z" transform="translate(597.78 2.22)"/><path class="cls-2" d="M-323.29,355.79c-63.5-37.9-56.8,50.6,0,0" transform="translate(597.78 2.22)"/><path class="cls-2" d="M-323.69,356.29c2.6-75.9-69.8-28.3,0,0" transform="translate(597.78 2.22)"/><path class="cls-2" d="M-323.89,355.89c62.1,40.2,58.5-48.7,0,0" transform="translate(597.78 2.22)"/><path class="cls-2" d="M-323.89,355.59c64.8-35.6-11.4-76.8,0,0" transform="translate(597.78 2.22)"/><path class="cls-2" d="M-323.29,355.79c-2.6,75.8,70,28.3,0,0" transform="translate(597.78 2.22)"/><path class="cls-2" d="M-323.29,355.89c-64.7,35.6,11.3,76.8,0,0" transform="translate(597.78 2.22)"/><path class="cls-2" d="M-352.49,104.29c32.2-.9,16.3-29,0,0" transform="translate(597.78 2.22)"/><path class="cls-2" d="M-352.49,104.29c15.3-29.4-16.1-29.1,0,0" transform="translate(597.78 2.22)"/><path class="cls-2" d="M-352.39,104.39c16.9,28.3,32.3,0,0,0" transform="translate(597.78 2.22)"/><path class="cls-2" d="M-352.49,104.29c-32.1.9-16.2,28.9,0,0" transform="translate(597.78 2.22)"/><path class="cls-2" d="M-352.49,104.39c-15.2,29.2,16.1,29,0,0" transform="translate(597.78 2.22)"/><path class="cls-2" d="M-352.49,104.29c-16.8-28.3-32.3-.1,0,0" transform="translate(597.78 2.22)"/><path class="cls-2" d="M-407.19,277c41.7-26,.7-50.7,0,0" transform="translate(597.78 2.22)"/><path class="cls-2" d="M-407.19,277c-.8-50.4-42.2-25.8,0,0" transform="translate(597.78 2.22)"/><path class="cls-2" d="M-407,277.19c42.6,24.3,42.7-25,0,0" transform="translate(597.78 2.22)"/><path class="cls-2" d="M-407.19,277c-41.6,26.1-.6,50.7,0,0" transform="translate(597.78 2.22)"/><path class="cls-2" d="M-407,277.19c.9,50.4,42,25.8,0,0" transform="translate(597.78 2.22)"/><path class="cls-2" d="M-407.19,277c-42.7-24.3-42.7,24.9,0,0" transform="translate(597.78 2.22)"/><path class="cls-2" d="M-165.79,102C-206.69,88.69-183.49,62.19-165.79,102Z" transform="translate(597.78 2.22)"/><path class="cls-2" d="M-162.49,99.09C-182.39,59.79-147.79,58.19-162.49,99.09Z" transform="translate(597.78 2.22)"/><path class="cls-2" d="M-166.69,103.59C-204.69,124.19-206.39,88.49-166.69,103.59Z" transform="translate(597.78 2.22)"/><path class="cls-2" d="M-158.39,106.69C-117.09,118.69-139.59,145.79-158.39,106.69Z" transform="translate(597.78 2.22)"/><path class="cls-2" d="M-159.29,101.59C-146.39,59.09-120.79,83.29-159.29,101.59Z" transform="translate(597.78 2.22)"/><path class="cls-2" d="M-158.29,103.29C-120.29,82.69-118.59,118.39-158.29,103.29Z" transform="translate(597.78 2.22)"/><path class="cls-2" d="M-162.39,107.39C-142.59,146.69-177,148.39-162.39,107.39Z" transform="translate(597.78 2.22)"/><path class="cls-2" d="M-165.69,105.59C-178.59,147.89-204.19,123.79-165.69,105.59Z" transform="translate(597.78 2.22)"/><circle class="cls-3" cx="214.59" cy="328.21" r="3"/><path class="cls-3" d="M-378.29,323.69c17.4-22.9,27.9,2.1.6.8C-378.69,324.39-378.29,323.69-378.29,323.69Z" transform="translate(597.78 2.22)"/><path class="cls-3" d="M-381.39,321.19c-3.3-29,21.1-19,1,.1C-381.19,321.89-381.39,321.19-381.39,321.19Z" transform="translate(597.78 2.22)"/><path class="cls-3" d="M-386.09,322.09c-22.1-18,1.9-29,.8-.6C-385.39,322.39-386.09,322.09-386.09,322.09Z" transform="translate(597.78 2.22)"/><path class="cls-3" d="M-388.49,325.09c-27.9,3.5-18.4-21.9.1-1C-387.69,325-388.49,325.09-388.49,325.09Z" transform="translate(597.78 2.22)"/><path class="cls-3" d="M-388.29,328.59c-17.4,22.9-27.9-2.1-.6-.8C-387.89,327.89-388.29,328.59-388.29,328.59Z" transform="translate(597.78 2.22)"/><path class="cls-3" d="M-377.89,327.29c27.9-3.5,18.4,21.9-.1,1C-378.69,327.49-377.89,327.29-377.89,327.29Z" transform="translate(597.78 2.22)"/><path class="cls-3" d="M-380.49,330.79c22.1,18-1.9,29-.8.7C-381.19,330.29-380.49,330.79-380.49,330.79Z" transform="translate(597.78 2.22)"/><path class="cls-3" d="M-384.69,330.89c3.3,28.9-21.1,19-1-.1C-384.89,330-384.69,330.89-384.69,330.89Z" transform="translate(597.78 2.22)"/><ellipse class="cls-3" cx="397.19" cy="213.31" rx="3.7" ry="3.9"/><path class="cls-3" d="M-194.29,208.09c22-29.1,35.4,2.6.8,1C-194.69,209.09-194.29,208.09-194.29,208.09Z" transform="translate(597.78 2.22)"/><path class="cls-3" d="M-198.09,204.89c-4.2-36.7,26.8-24.1,1.3.1C-197.89,205.89-198.09,204.89-198.09,204.89Z" transform="translate(597.78 2.22)"/><path class="cls-3" d="M-204,205.89c-28-22.8,2.6-36.7.9-.8C-203.29,206.49-204,205.89-204,205.89Z" transform="translate(597.78 2.22)"/><path class="cls-3" d="M-207.09,210c-35.4,4.5-23.3-27.8.1-1.3C-206.19,209.79-207.09,210-207.09,210Z" transform="translate(597.78 2.22)"/><path class="cls-3" d="M-206.89,214.29c-22,29.1-35.4-2.6-.8-1C-206.39,213.39-206.89,214.29-206.89,214.29Z" transform="translate(597.78 2.22)"/><path class="cls-3" d="M-193.89,212.69c35.4-4.5,23.3,27.8-.1,1.3C-194.89,213-193.89,212.69-193.89,212.69Z" transform="translate(597.78 2.22)"/><path class="cls-3" d="M-197,217.09c28,22.8-2.6,36.7-.9.8C-197.89,216.59-197,217.09-197,217.09Z" transform="translate(597.78 2.22)"/><path class="cls-3" d="M-202.39,217.19c4.2,36.7-26.8,24.1-1.3-.1C-202.59,216.19-202.39,217.19-202.39,217.19Z" transform="translate(597.78 2.22)"/><ellipse class="cls-3" cx="226.39" cy="415.51" rx="3.7" ry="3.9"/><path class="cls-3" d="M-365,410.39c22.4-29.6,35.9,2.7.8,1C-365.49,411.39-365,410.39-365,410.39Z" transform="translate(597.78 2.22)"/><path class="cls-3" d="M-368.89,407c-4.4-37.3,27.3-24.4,1.3.1C-368.69,408-368.89,407-368.89,407Z" transform="translate(597.78 2.22)"/><path class="cls-3" d="M-374.89,408.19c-28.5-23.1,2.6-37.2.9-.9C-374,408.69-374.89,408.19-374.89,408.19Z" transform="translate(597.78 2.22)"/><path class="cls-3" d="M-378.09,412.29c-36,4.5-23.7-28.2.1-1.3C-377,412-378.09,412.29-378.09,412.29Z" transform="translate(597.78 2.22)"/><path class="cls-3" d="M-377.69,416.69c-22.4,29.6-35.9-2.7-.8-1C-377.19,415.79-377.69,416.69-377.69,416.69Z" transform="translate(597.78 2.22)"/><path class="cls-3" d="M-364.59,415c36-4.5,23.7,28.2-.1,1.3C-365.59,415.29-364.59,415-364.59,415Z" transform="translate(597.78 2.22)"/><path class="cls-3" d="M-367.69,419.49c28.6,23.2-2.6,37.2-.9.9C-368.59,419-367.69,419.49-367.69,419.49Z" transform="translate(597.78 2.22)"/><path class="cls-3" d="M-373.19,419.59c4.4,37.3-27.3,24.4-1.3-.1C-373.39,418.59-373.19,419.59-373.19,419.59Z" transform="translate(597.78 2.22)"/><ellipse class="cls-3" cx="204.29" cy="226.11" rx="3.6" ry="3.7"/><path class="cls-3" d="M-387.39,221.09c21.2-27.9,34.1,2.4.8.9C-387.89,222-387.39,221.09-387.39,221.09Z" transform="translate(597.78 2.22)"/><path class="cls-3" d="M-391.19,217.89c-4.1-35.2,25.7-23.2,1.1.1C-390.89,218.89-391.19,217.89-391.19,217.89Z" transform="translate(597.78 2.22)"/><path class="cls-3" d="M-396.89,219c-27-21.9,2.4-35.2.9-.8C-396,219.49-396.89,219-396.89,219Z" transform="translate(597.78 2.22)"/><path class="cls-3" d="M-399.79,222.89c-34.1,4.3-22.4-26.6.1-1.3C-398.69,222.59-399.79,222.89-399.79,222.89Z" transform="translate(597.78 2.22)"/><path class="cls-3" d="M-399.59,227c-21.2,27.9-34.1-2.4-.8-.9C-399,226.09-399.59,227-399.59,227Z" transform="translate(597.78 2.22)"/><path class="cls-3" d="M-387,225.39c34.1-4.2,22.4,26.6-.1,1.3C-388,225.69-387,225.39-387,225.39Z" transform="translate(597.78 2.22)"/><path class="cls-3" d="M-390,229.69c27,21.9-2.4,35.2-.9.8C-390.89,229.19-390,229.69-390,229.69Z" transform="translate(597.78 2.22)"/><path class="cls-3" d="M-395.19,229.89c4.1,35.2-25.7,23.1-1.2-.1C-395.39,228.79-395.19,229.89-395.19,229.89Z" transform="translate(597.78 2.22)"/><ellipse class="cls-2" cx="442.39" cy="180.11" rx="3.5" ry="3.6"/><path class="cls-2" d="M-153.49,174.59c8.9-33.4,31.5-11.1,1,.5C-153.59,175.69-153.49,174.59-153.49,174.59Z" transform="translate(597.78 2.22)"/><path class="cls-2" d="M-155.69,174.09c-16.6-30.1,14.7-30.9,1.2-.4C-155,174.89-155.69,174.09-155.69,174.09Z" transform="translate(597.78 2.22)"/><path class="cls-2" d="M-157.89,175.49c-32.3-9.1-10.7-32.7.5-1C-156.79,175.69-157.89,175.49-157.89,175.49Z" transform="translate(597.78 2.22)"/><path class="cls-2" d="M-159.19,178.49c-29.1,17.2-29.8-15.2-.4-1.2C-158.39,177.89-159.19,178.49-159.19,178.49Z" transform="translate(597.78 2.22)"/><path class="cls-2" d="M-157,180.89c-8.9,33.4-31.5,11.1-1-.5C-156.79,179.89-157,180.89-157,180.89Z" transform="translate(597.78 2.22)"/><path class="cls-2" d="M-151.89,176.89c29.1-17.2,29.9,15.2.4,1.2C-152.69,177.49-151.89,176.89-151.89,176.89Z" transform="translate(597.78 2.22)"/><path class="cls-2" d="M-152.09,180.19c32.3,9.1,10.7,32.7-.5,1C-153,180.09-152.09,180.19-152.09,180.19Z" transform="translate(597.78 2.22)"/><path class="cls-2" d="M-154.39,181.19c16.6,30.1-14.7,30.9-1.2.4C-155,180.39-154.39,181.19-154.39,181.19Z" transform="translate(597.78 2.22)"/><path class="cls-2" d="M-324.69,195.89c-60.4-36-54,48.1,0,0" transform="translate(597.78 2.22)"/><path class="cls-2" d="M-324.69,196.29c2.4-72-66.3-26.9,0,0" transform="translate(597.78 2.22)"/><path class="cls-2" d="M-325,195.89c59,38.2,55.6-46.1,0,0" transform="translate(597.78 2.22)"/><path class="cls-2" d="M-324.79,195.69c61.3-33.8-10.8-72.9,0,0" transform="translate(597.78 2.22)"/><path class="cls-2" d="M-324.79,195.69c-2.5,72,66.4,26.9,0,0" transform="translate(597.78 2.22)"/><path class="cls-2" d="M-324.79,195.89c-61.4,33.8,10.8,72.9,0,0" transform="translate(597.78 2.22)"/><path class="cls-2" d="M-390.59,146.59c-20.5-45.8-49.6,4.9,0,0" transform="translate(597.78 2.22)"/><path class="cls-2" d="M-390.69,146.89c29.3-40.2-27.5-43,0,0" transform="translate(597.78 2.22)"/><path class="cls-2" d="M-390.79,146.49c18.9,46.4,49.8-3.1,0,0" transform="translate(597.78 2.22)"/><path class="cls-2" d="M-390.69,146.49c48.4,6.3,22.3-46.2,0,0" transform="translate(597.78 2.22)"/><path class="cls-2" d="M-390.69,146.49c-29.3,40.1,27.5,43.1,0,0" transform="translate(597.78 2.22)"/><path class="cls-2" d="M-390.69,146.59c-48.2-6.3-22.2,46.2,0,0" transform="translate(597.78 2.22)"/><path class="cls-2" d="M-250.19,256.69c-51.2-30.5-45.8,40.9,0,0" transform="translate(597.78 2.22)"/><path class="cls-2" d="M-250.09,257.09c2-61.2-56.3-22.8,0,0" transform="translate(597.78 2.22)"/><path class="cls-2" d="M-250.29,256.89c50.1,32.4,47.3-39.3,0,0" transform="translate(597.78 2.22)"/><path class="cls-2" d="M-250.19,256.59c52.2-28.7-9.2-61.9,0,0" transform="translate(597.78 2.22)"/><path class="cls-2" d="M-250.19,256.69c-2.1,61.2,56.4,22.8,0,0" transform="translate(597.78 2.22)"/><path class="cls-2" d="M-250.19,256.89c-52.2,28.6,9.1,62,0,0" transform="translate(597.78 2.22)"/><path class="cls-2" d="M-273.59,152.09c-43.2-25.8-38.7,34.5,0,0" transform="translate(597.78 2.22)"/><path class="cls-2" d="M-273.49,152.39c1.8-51.7-47.6-19.3,0,0" transform="translate(597.78 2.22)"/><path class="cls-2" d="M-273.69,152.09c42.4,27.4,40-33,0,0" transform="translate(597.78 2.22)"/><path class="cls-2" d="M-273.59,152c44.1-24.3-7.7-52.3,0,0" transform="translate(597.78 2.22)"/><path class="cls-2" d="M-273.59,152c-1.7,51.7,47.7,19.3,0,0" transform="translate(597.78 2.22)"/><path class="cls-2" d="M-273.59,152.09c-44.2,24.3,7.7,52.4,0,0" transform="translate(597.78 2.22)"/><path class="cls-2" d="M-267.49,203.19c37-23,.6-44.8,0,0" transform="translate(597.78 2.22)"/><path class="cls-2" d="M-267.49,203.19c-.9-44.6-37.3-22.9,0,0" transform="translate(597.78 2.22)"/><path class="cls-2" d="M-267.29,203.29c37.7,21.5,37.8-22,0,0" transform="translate(597.78 2.22)"/><path class="cls-2" d="M-267.49,203.19c-36.9,23-.5,44.9,0,0" transform="translate(597.78 2.22)"/><path class="cls-2" d="M-267.49,203.29c.9,44.7,37.3,22.9,0,0" transform="translate(597.78 2.22)"/><path class="cls-2" d="M-267.59,203.19c-37.7-21.6-37.7,22,0,0" transform="translate(597.78 2.22)"/><path class="cls-2" d="M-323.19,133.39c41.7-26,.6-50.7,0,0" transform="translate(597.78 2.22)"/><path class="cls-2" d="M-323.29,133.39c-.9-50.3-42.2-25.9,0,0" transform="translate(597.78 2.22)"/><path class="cls-2" d="M-323.19,133.49c42.6,24.3,42.8-24.8,0,0" transform="translate(597.78 2.22)"/><path class="cls-2" d="M-323.29,133.49c-41.7,26-.5,50.5,0,0" transform="translate(597.78 2.22)"/><path class="cls-2" d="M-323.19,133.49c.9,50.4,42.1,25.8,0,0" transform="translate(597.78 2.22)"/><path class="cls-2" d="M-323.29,133.39c-42.6-24.4-42.7,24.8,0,0" transform="translate(597.78 2.22)"/><path class="cls-2" d="M-226.69,338.79c41.7-26,.7-50.7,0,0" transform="translate(597.78 2.22)"/><path class="cls-2" d="M-226.69,338.79c-.9-50.5-42.2-25.9,0,0" transform="translate(597.78 2.22)"/><path class="cls-2" d="M-226.49,338.79c42.5,24.4,42.7-24.8,0,0" transform="translate(597.78 2.22)"/><path class="cls-2" d="M-226.69,338.79c-41.7,26-.5,50.7,0,0" transform="translate(597.78 2.22)"/><path class="cls-2" d="M-226.49,338.89c.8,50.3,42,25.9,0,0" transform="translate(597.78 2.22)"/><path class="cls-2" d="M-226.69,338.79c-42.6-24.5-42.7,24.8,0,0" transform="translate(597.78 2.22)"/><path class="cls-2" d="M-440.19,175.69c58-1.7,29.3-52.3,0,0" transform="translate(597.78 2.22)"/><path class="cls-2" d="M-440.29,175.49c27.6-52.7-29.1-52.3,0,0" transform="translate(597.78 2.22)"/><path class="cls-2" d="M-440.19,175.79c30.5,51.1,58.4.1,0,0" transform="translate(597.78 2.22)"/><path class="cls-2" d="M-440.29,175.69c-58,1.6-29.4,52.2,0,0" transform="translate(597.78 2.22)"/><path class="cls-2" d="M-440.19,175.79c-27.7,52.9,29.1,52.5,0,0" transform="translate(597.78 2.22)"/><path class="cls-2" d="M-440.29,175.49c-30.4-51.1-58.4-.1,0,0" transform="translate(597.78 2.22)"/><path class="cls-2" d="M-524.09,185.09c46.7-1.3,23.6-42.1,0,0" transform="translate(597.78 2.22)"/><path class="cls-2" d="M-524.19,185.09c22.2-42.6-23.4-42.4,0,0" transform="translate(597.78 2.22)"/><path class="cls-2" d="M-524.09,185.19c24.6,41.2,47.1.1,0,0" transform="translate(597.78 2.22)"/><path class="cls-2" d="M-524.19,185.09c-46.7,1.4-23.7,42.2,0,0" transform="translate(597.78 2.22)"/><path class="cls-2" d="M-524.19,185.19c-22.3,42.6,23.5,42.3,0,0" transform="translate(597.78 2.22)"/><path class="cls-2" d="M-524.19,185.09c-24.5-41.3-47.1-.2,0,0" transform="translate(597.78 2.22)"/><path class="cls-2" d="M-272,316.29c46.9-1.3,23.7-42.1,0,0" transform="translate(597.78 2.22)"/><path class="cls-2" d="M-272,316.09c22.3-42.4-23.4-42.1,0,0" transform="translate(597.78 2.22)"/><path class="cls-2" d="M-271.79,316.39c24.4,41.2,47,.1,0,0" transform="translate(597.78 2.22)"/><path class="cls-2" d="M-272,316.29c-46.8,1.2-23.6,42,0,0" transform="translate(597.78 2.22)"/><path class="cls-2" d="M-272,316.39c-22.2,42.6,23.5,42.2,0,0" transform="translate(597.78 2.22)"/><path class="cls-2" d="M-272,316.09c-24.5-41.1-47,0,0,0" transform="translate(597.78 2.22)"/><path class="cls-2" d="M-353.39,32.79c46.7-1.4,23.6-42.2,0,0" transform="translate(597.78 2.22)"/><path class="cls-2" d="M-353.49,32.59c22.2-42.5-23.4-42.2,0,0" transform="translate(597.78 2.22)"/><path class="cls-2" d="M-353.39,32.79c24.6,41.3,47.1.1,0,0" transform="translate(597.78 2.22)"/><path class="cls-2" d="M-353.49,32.59c-46.7,1.4-23.7,42.2,0,0" transform="translate(597.78 2.22)"/><path class="cls-2" d="M-353.49,32.89c-22.3,42.5,23.5,42.2,0,0" transform="translate(597.78 2.22)"/><path class="cls-2" d="M-353.49,32.59c-24.5-41.1-47.1-.1,0,0" transform="translate(597.78 2.22)"/><path class="cls-2" d="M-468.59,230.49c-20.6-45.7-49.7,5,0,0" transform="translate(597.78 2.22)"/><path class="cls-2" d="M-468.69,230.89c29.3-40.2-27.6-43.1,0,0" transform="translate(597.78 2.22)"/><path class="cls-2" d="M-468.89,230.49c18.9,46.4,49.8-3.1,0,0" transform="translate(597.78 2.22)"/><path class="cls-2" d="M-468.69,230.29c48.3,6.3,22.2-46,0,0" transform="translate(597.78 2.22)"/><path class="cls-2" d="M-468.69,230.49c-29.4,40.1,27.5,43.1,0,0" transform="translate(597.78 2.22)"/><path class="cls-2" d="M-468.69,230.59c-48.3-6.3-22.3,46,0,0" transform="translate(597.78 2.22)"/><path class="cls-2" d="M-523.39,262.49c38.3-1,19.4-34.6,0,0" transform="translate(597.78 2.22)"/><path class="cls-2" d="M-523.59,262.49c18.3-35.1-19.3-34.9,0,0" transform="translate(597.78 2.22)"/><path class="cls-2" d="M-523.39,262.59c20.2,33.9,38.7,0,0,0" transform="translate(597.78 2.22)"/><path class="cls-2" d="M-523.59,262.49c-38.4,1.2-19.4,34.6,0,0" transform="translate(597.78 2.22)"/><path class="cls-2" d="M-523.59,262.59c-18.2,35,19.3,34.8,0,0" transform="translate(597.78 2.22)"/><path class="cls-2" d="M-523.59,262.49c-20.2-34-38.7-.1,0,0" transform="translate(597.78 2.22)"/><path class="cls-2" d="M-277.19,70.39c30.2-18.7.5-36.7,0,0" transform="translate(597.78 2.22)"/><path class="cls-2" d="M-277.19,70.39c-.7-36.5-30.6-18.7,0,0" transform="translate(597.78 2.22)"/><path class="cls-2" d="M-277.09,70.39c30.9,17.8,31-17.9,0,0" transform="translate(597.78 2.22)"/><path class="cls-2" d="M-277.19,70.39c-30.3,19-.4,36.8,0,0" transform="translate(597.78 2.22)"/><path class="cls-2" d="M-277.09,70.59c.6,36.5,30.5,18.8,0,0" transform="translate(597.78 2.22)"/><path class="cls-2" d="M-277.19,70.39c-30.9-17.6-31,18,0,0" transform="translate(597.78 2.22)"/><path class="cls-2" d="M-289.09,30.59c-20.4-45.7-49.5,5,0,0" transform="translate(597.78 2.22)"/><path class="cls-2" d="M-289.09,31c29.4-40.2-27.5-43.1,0,0" transform="translate(597.78 2.22)"/><path class="cls-2" d="M-289.19,30.59c18.9,46.4,49.8-3.1,0,0" transform="translate(597.78 2.22)"/><path class="cls-2" d="M-289.09,30.49c48.4,6.3,22.3-46.1,0,0" transform="translate(597.78 2.22)"/><path class="cls-2" d="M-289.09,30.59c-29.3,40.1,27.6,43,0,0" transform="translate(597.78 2.22)"/><path class="cls-2" d="M-289.09,30.69c-48.2-6.3-22.2,46.1,0,0" transform="translate(597.78 2.22)"/><path class="cls-2" d="M-414.49,83.39C-467.89,63.09-435.49,29.69-414.49,83.39Z" transform="translate(597.78 2.22)"/><path class="cls-2" d="M-410,80C-433.89,26.59-388.09,26.59-410,80Z" transform="translate(597.78 2.22)"/><path class="cls-2" d="M-415.69,85.59C-467.29,110.29-467.29,63-415.69,85.59Z" transform="translate(597.78 2.22)"/><path class="cls-2" d="M-405.09,90.29C-351.09,108.69-382.49,143.29-405.09,90.29Z" transform="translate(597.78 2.22)"/><path class="cls-2" d="M-405.89,83.29C-386.29,28.09-353.89,61.69-405.89,83.29Z" transform="translate(597.78 2.22)"/><path class="cls-2" d="M-404.59,85.49C-353,60.79-353.09,108.29-404.59,85.49Z" transform="translate(597.78 2.22)"/><path class="cls-2" d="M-410.39,90.89C-386.39,144.29-432.19,144.09-410.39,90.89Z" transform="translate(597.78 2.22)"/><path class="cls-2" d="M-414.59,88.19C-434.19,143.49-466.59,109.79-414.59,88.19Z" transform="translate(597.78 2.22)"/><path class="cls-2" d="M-269.69,383.49C-297.29,374.69-281.59,356.79-269.69,383.49Z" transform="translate(597.78 2.22)"/><path class="cls-2" d="M-267.59,381.69C-281,355.19-257.69,354.09-267.59,381.69Z" transform="translate(597.78 2.22)"/><path class="cls-2" d="M-270.39,384.69C-296,398.59-297,374.49-270.39,384.69Z" transform="translate(597.78 2.22)"/><path class="cls-2" d="M-264.69,386.79C-236.89,394.79-252.09,413.09-264.69,386.79Z" transform="translate(597.78 2.22)"/><path class="cls-2" d="M-265.39,383.29C-256.79,354.69-239.49,370.89-265.39,383.29Z" transform="translate(597.78 2.22)"/><path class="cls-2" d="M-264.59,384.39C-239,370.49-238,394.59-264.59,384.39Z" transform="translate(597.78 2.22)"/><path class="cls-2" d="M-267.49,387.29C-254.09,413.79-277.39,414.89-267.49,387.29Z" transform="translate(597.78 2.22)"/><path class="cls-2" d="M-269.69,386C-278.29,414.49-295.69,398.29-269.69,386Z" transform="translate(597.78 2.22)"/><path class="cls-2" d="M-269,111.69C-297.19,102.59-281.09,84.29-269,111.69Z" transform="translate(597.78 2.22)"/><path class="cls-2" d="M-266.69,109.89C-280.39,82.89-256.69,81.69-266.69,109.89Z" transform="translate(597.78 2.22)"/><path class="cls-2" d="M-269.69,112.89C-295.79,127-296.89,102.39-269.69,112.89Z" transform="translate(597.78 2.22)"/><path class="cls-2" d="M-263.89,115C-235.59,123.19-251,142-263.89,115Z" transform="translate(597.78 2.22)"/><path class="cls-2" d="M-264.49,111.49C-255.59,82.29-238.09,98.89-264.49,111.49Z" transform="translate(597.78 2.22)"/><path class="cls-2" d="M-263.69,112.49C-237.59,98.39-236.59,123.09-263.69,112.49Z" transform="translate(597.78 2.22)"/><path class="cls-2" d="M-266.69,115.49C-252.89,142.49-276.69,143.59-266.69,115.49Z" transform="translate(597.78 2.22)"/><path class="cls-2" d="M-268.89,114.19C-277.79,143.39-295.39,126.79-268.89,114.19Z" transform="translate(597.78 2.22)"/><ellipse class="cls-2" cx="300.39" cy="427.81" rx="3.2" ry="3.3"/><path class="cls-2" d="M-295.59,422.49c8.4-31.6,29.8-10.5,1,.5C-295.69,423.59-295.59,422.49-295.59,422.49Z" transform="translate(597.78 2.22)"/><path class="cls-2" d="M-297.69,422c-15.7-28.6,14-29.3,1-.4C-297,422.79-297.69,422-297.69,422Z" transform="translate(597.78 2.22)"/><path class="cls-2" d="M-299.19,423.39c-30.6-8.6-10.2-30.9.5-1C-298.29,423.59-299.19,423.39-299.19,423.39Z" transform="translate(597.78 2.22)"/><path class="cls-2" d="M-300.49,426.09c-27.5,16.3-28.3-14.4-.4-1C-299.69,425.59-300.49,426.09-300.49,426.09Z" transform="translate(597.78 2.22)"/><path class="cls-2" d="M-298.29,428.49c-8.4,31.6-29.8,10.5-1-.5C-298.19,427.49-298.29,428.49-298.29,428.49Z" transform="translate(597.78 2.22)"/><path class="cls-2" d="M-294.09,424.59c27.5-16.3,28.3,14.4.4,1C-294.89,425.09-294.09,424.59-294.09,424.59Z" transform="translate(597.78 2.22)"/><path class="cls-2" d="M-294.19,427.69c30.6,8.6,10.2,30.9-.5,1C-295.09,427.49-294.19,427.69-294.19,427.69Z" transform="translate(597.78 2.22)"/><path class="cls-2" d="M-296.39,428.89c15.7,28.6-14,29.3-1,.4C-296.89,428.09-296.39,428.89-296.39,428.89Z" transform="translate(597.78 2.22)"/><ellipse class="cls-2" cx="276.69" cy="71.61" rx="4.2" ry="4.4"/><path class="cls-2" d="M-318.69,65.59c10.8-40.8,38.5-13.5,1.3.7C-318.89,66.69-318.69,65.59-318.69,65.59Z" transform="translate(597.78 2.22)"/><path class="cls-2" d="M-321.39,64.79c-20.3-36.8,18-37.7,1.3-.5C-320.69,65.89-321.39,64.79-321.39,64.79Z" transform="translate(597.78 2.22)"/><path class="cls-2" d="M-324.09,66.69c-39.5-11.2-13.1-39.9.6-1.3C-322.89,66.89-324.09,66.69-324.09,66.69Z" transform="translate(597.78 2.22)"/><path class="cls-2" d="M-325.69,70.19c-35.5,21-36.4-18.7-.4-1.4C-324.69,69.39-325.69,70.19-325.69,70.19Z" transform="translate(597.78 2.22)"/><path class="cls-2" d="M-323,73.19c-10.8,40.8-38.5,13.5-1.3-.6C-322.89,72-323,73.19-323,73.19Z" transform="translate(597.78 2.22)"/><path class="cls-2" d="M-316.79,68.09c35.5-21,36.4,18.7.4,1.4C-317.69,68.89-316.79,68.09-316.79,68.09Z" transform="translate(597.78 2.22)"/><path class="cls-2" d="M-317,72.29c39.5,11.2,13.1,39.9-.7,1.3C-318.09,72-317,72.29-317,72.29Z" transform="translate(597.78 2.22)"/><path class="cls-2" d="M-319.79,73.49c20.3,36.8-18,37.7-1.3.5C-320.59,72.59-319.79,73.49-319.79,73.49Z" transform="translate(597.78 2.22)"/><path class="cls-2" d="M-452.39,273.29c29.4,13.1,26.5-19.2,0,0" transform="translate(597.78 2.22)"/><path class="cls-2" d="M-452.39,273.19c25.7-19.8-2.9-33.3,0,0" transform="translate(597.78 2.22)"/><path class="cls-2" d="M-452.39,273.39c3.7,33,29.3,14.2,0,0" transform="translate(597.78 2.22)"/><path class="cls-2" d="M-452.39,273.29c-29.6-13.2-26.7,19.2,0,0" transform="translate(597.78 2.22)"/><path class="cls-2" d="M-452.59,273.29c-25.7,19.9,2.9,33.5,0,0" transform="translate(597.78 2.22)"/><path class="cls-2" d="M-452.39,273.19c-3.8-32.9-29.4-14.2,0,0" transform="translate(597.78 2.22)"/><ellipse class="cls-3" cx="422.69" cy="298.51" rx="4.8" ry="4.9"/><path class="cls-3" d="M-167,292.59c28.4-37.4,45.7,3.3,1,1.3C-167.59,293.79-167,292.59-167,292.59Z" transform="translate(597.78 2.22)"/><path class="cls-3" d="M-172,288.39c-5.5-47.2,34.6-31,1.5.1C-171.69,289.59-172,288.39-172,288.39Z" transform="translate(597.78 2.22)"/><path class="cls-3" d="M-179.69,289.79c-36.1-29.3,3.2-47.2,1.2-1C-178.59,290.39-179.69,289.79-179.69,289.79Z" transform="translate(597.78 2.22)"/><path class="cls-3" d="M-183.59,294.89c-45.7,5.8-30-35.8.1-1.7C-182.29,294.69-183.59,294.89-183.59,294.89Z" transform="translate(597.78 2.22)"/><path class="cls-3" d="M-183.19,300.59c-28.4,37.4-45.7-3.3-1-1.3C-182.59,299.39-183.19,300.59-183.19,300.59Z" transform="translate(597.78 2.22)"/><path class="cls-3" d="M-166.49,298.39c45.7-5.8,30,35.8-.1,1.7C-167.69,298.79-166.49,298.39-166.49,298.39Z" transform="translate(597.78 2.22)"/><path class="cls-3" d="M-170.59,304c36.1,29.3-3.2,47.2-1.2,1C-171.59,303.39-170.59,304-170.59,304Z" transform="translate(597.78 2.22)"/><path class="cls-3" d="M-177.39,304.29c5.5,47.2-34.6,31-1.5-.1C-177.79,302.89-177.39,304.29-177.39,304.29Z" transform="translate(597.78 2.22)"/><ellipse class="cls-3" cx="387.99" cy="71.11" rx="4.8" ry="4.9"/><path class="cls-3" d="M-201.69,65.19c28.4-37.4,45.7,3.3,1,1.3C-202.39,66.29-201.69,65.19-201.69,65.19Z" transform="translate(597.78 2.22)"/><path class="cls-3" d="M-206.69,60.89c-5.5-47.2,34.6-31,1.5.1C-206.49,62.19-206.69,60.89-206.69,60.89Z" transform="translate(597.78 2.22)"/><path class="cls-3" d="M-214.49,62.49c-36.1-29.3,3.2-47.2,1.2-1C-213.29,63.09-214.49,62.49-214.49,62.49Z" transform="translate(597.78 2.22)"/><path class="cls-3" d="M-218.29,67.59c-45.7,5.8-30-35.8.1-1.7C-217,67.19-218.29,67.59-218.29,67.59Z" transform="translate(597.78 2.22)"/><path class="cls-3" d="M-218.09,73.19c-28.4,37.4-45.7-3.3-1-1.3C-217.29,72-218.09,73.19-218.09,73.19Z" transform="translate(597.78 2.22)"/><path class="cls-3" d="M-201.19,71.09c45.7-5.8,30,35.8-.1,1.7C-202.49,71.29-201.19,71.09-201.19,71.09Z" transform="translate(597.78 2.22)"/><path class="cls-3" d="M-205.29,76.79c36.1,29.3-3.2,47.2-1.2,1C-206.49,76.09-205.29,76.79-205.29,76.79Z" transform="translate(597.78 2.22)"/><path class="cls-3" d="M-212.29,76.89c5.5,47.2-34.6,31-1.5-.1C-212.49,75.59-212.29,76.89-212.29,76.89Z" transform="translate(597.78 2.22)"/><path class="cls-2" d="M-489.49,58c-63.5-38-57,50.7,0,0" transform="translate(597.78 2.22)"/><path class="cls-2" d="M-489.39,58.39c2.6-75.8-70-28.3,0,0" transform="translate(597.78 2.22)"/><path class="cls-2" d="M-489.69,58c62.2,40.2,58.6-48.5,0,0" transform="translate(597.78 2.22)"/><path class="cls-2" d="M-489.59,57.89c64.7-35.7-11.3-77,0,0" transform="translate(597.78 2.22)"/><path class="cls-2" d="M-489.59,58c-2.4,75.9,70,28.1,0,0" transform="translate(597.78 2.22)"/><path class="cls-2" d="M-489.49,58c-64.8,35.7,11.3,76.9,0,0" transform="translate(597.78 2.22)"/><path class="cls-2" d="M-431.49,25.39c30.3-19,.4-36.8,0,0" transform="translate(597.78 2.22)"/><path class="cls-2" d="M-431.59,25.39c-.6-36.6-30.5-18.8,0,0" transform="translate(597.78 2.22)"/><path class="cls-2" d="M-431.49,25.39c31,17.6,31-18,0,0" transform="translate(597.78 2.22)"/><path class="cls-2" d="M-431.59,25.39c-30.2,18.7-.4,36.7,0,0" transform="translate(597.78 2.22)"/><path class="cls-2" d="M-431.49,25.39c.7,36.5,30.6,18.7,0,0" transform="translate(597.78 2.22)"/><path class="cls-2" d="M-431.59,25.39c-30.9-17.8-30.9,18,0,0" transform="translate(597.78 2.22)"/><path class="cls-2" d="M-526.2,115.59C-541.33,110.7-532.69,100.91-526.2,115.59Z" transform="translate(597.78 2.22)"/><path class="cls-2" d="M-525,114.55C-532.36,100-519.54,99.42-525,114.55Z" transform="translate(597.78 2.22)"/><path class="cls-2" d="M-526.53,116.25C-540.61,123.9-541.16,110.59-526.53,116.25Z" transform="translate(597.78 2.22)"/><path class="cls-2" d="M-523.45,117.35C-508.15,121.76-516.46,131.88-523.45,117.35Z" transform="translate(597.78 2.22)"/><path class="cls-2" d="M-523.78,115.48C-519,99.75-509.53,108.66-523.78,115.48Z" transform="translate(597.78 2.22)"/><path class="cls-2" d="M-522.19,116C-496.49,102.19-495.39,126.29-522.19,116Z" transform="translate(597.78 2.22)"/><path class="cls-2" d="M-524.93,117.63C-517.56,132.21-530.38,132.81-524.93,117.63Z" transform="translate(597.78 2.22)"/><path class="cls-2" d="M-526.2,117C-530.93,132.65-540.39,123.68-526.2,117Z" transform="translate(597.78 2.22)"/><path class="cls-2" d="M-171.59,21.59C-199.29,12.79-183.59-5.11-171.59,21.59Z" transform="translate(597.78 2.22)"/><path class="cls-2" d="M-169.39,19.69C-182.79-6.71-159.69-7.81-169.39,19.69Z" transform="translate(597.78 2.22)"/><path class="cls-2" d="M-172.29,22.79C-197.89,36.69-199,12.59-172.29,22.79Z" transform="translate(597.78 2.22)"/><path class="cls-2" d="M-166.69,24.89C-138.79,32.89-154,51.19-166.69,24.89Z" transform="translate(597.78 2.22)"/><path class="cls-2" d="M-167.29,21.39C-158.69-7.21-141.39,9-167.29,21.39Z" transform="translate(597.78 2.22)"/><path class="cls-2" d="M-166.59,22.49C-141,8.69-139.89,32.69-166.59,22.49Z" transform="translate(597.78 2.22)"/><path class="cls-2" d="M-169.29,25.39C-155.89,51.89-179.19,52.89-169.29,25.39Z" transform="translate(597.78 2.22)"/><path class="cls-2" d="M-171.59,24.09C-180.29,52.59-197.49,36.39-171.59,24.09Z" transform="translate(597.78 2.22)"/><path class="cls-2" d="M-179.59,392.49c-63.7-37.9-57,50.7,0,0" transform="translate(597.78 2.22)"/><path class="cls-2" d="M-179.49,392.89c2.6-75.9-70-28.3,0,0" transform="translate(597.78 2.22)"/><path class="cls-2" d="M-179.89,392.49c62.2,40.3,58.7-48.5,0,0" transform="translate(597.78 2.22)"/><path class="cls-2" d="M-179.69,392.39c64.7-35.7-11.4-76.9,0,0" transform="translate(597.78 2.22)"/><path class="cls-2" d="M-179.69,392.49c-2.6,75.8,70,28.2,0,0" transform="translate(597.78 2.22)"/><path class="cls-2" d="M-179.69,392.49c-64.7,35.7,11.3,77,0,0" transform="translate(597.78 2.22)"/><path class="cls-2" d="M-454.59,336C-508,315.79-475.49,282.19-454.59,336Z" transform="translate(597.78 2.22)"/><path class="cls-2" d="M-450.09,332.49C-474,279.09-428.09,279.19-450.09,332.49Z" transform="translate(597.78 2.22)"/><path class="cls-2" d="M-455.89,338.09C-507.49,363-507.39,315.49-455.89,338.09Z" transform="translate(597.78 2.22)"/><path class="cls-2" d="M-445.09,342.79C-391.19,361.29-422.59,395.79-445.09,342.79Z" transform="translate(597.78 2.22)"/><path class="cls-2" d="M-445.89,335.89C-426.29,280.69-394,314.29-445.89,335.89Z" transform="translate(597.78 2.22)"/><path class="cls-2" d="M-444.69,338.09C-393.19,313.39-393.19,360.79-444.69,338.09Z" transform="translate(597.78 2.22)"/><path class="cls-2" d="M-450.39,343.39C-426.39,396.79-472.39,396.79-450.39,343.39Z" transform="translate(597.78 2.22)"/><path class="cls-2" d="M-454.69,340.69C-474.29,396-506.69,362.29-454.69,340.69Z" transform="translate(597.78 2.22)"/><path class="cls-2" d="M-444.59,404.59c41.7-26,.7-50.6,0,0" transform="translate(597.78 2.22)"/><path class="cls-2" d="M-444.59,404.49c-1-50.3-42.2-25.7,0,0" transform="translate(597.78 2.22)"/><path class="cls-2" d="M-443.89,404.59c42.5,24.5,42.7-24.8,0,0" transform="translate(597.78 2.22)"/><path class="cls-2" d="M-444.09,404.59c-41.6,26-.6,50.7,0,0" transform="translate(597.78 2.22)"/><path class="cls-2" d="M-443.89,404.79c.9,50.3,42,25.8,0,0" transform="translate(597.78 2.22)"/><path class="cls-2" d="M-444.09,404.59c-42.7-24.4-42.7,24.9,0,0" transform="translate(597.78 2.22)"/><circle class="cls-2" cx="61.49" cy="314.01" r="3"/><path class="cls-2" d="M-531.29,309.59c17.4-22.9,27.9,2.1.7.8C-531.69,310.19-531.29,309.59-531.29,309.59Z" transform="translate(597.78 2.22)"/><path class="cls-2" d="M-534.39,306.89c-3.3-28.9,21.1-19,1,.1C-534.09,307.79-534.39,306.89-534.39,306.89Z" transform="translate(597.78 2.22)"/><path class="cls-2" d="M-539,307.79c-22.1-18,1.9-28.9.8-.6C-538.39,308.29-539,307.79-539,307.79Z" transform="translate(597.78 2.22)"/><path class="cls-2" d="M-541.49,311c-27.9,3.5-18.4-21.9.1-1C-540.69,310.69-541.49,311-541.49,311Z" transform="translate(597.78 2.22)"/><path class="cls-2" d="M-541.19,314.49c-17.4,22.9-27.9-2.1-.6-.8C-540.79,313.69-541.19,314.49-541.19,314.49Z" transform="translate(597.78 2.22)"/><path class="cls-2" d="M-530.89,313c27.9-3.5,18.4,21.9-.1,1C-531.79,313.29-530.89,313-530.89,313Z" transform="translate(597.78 2.22)"/><path class="cls-2" d="M-533.49,316.59c22.1,18-1.9,29-.8.6C-534.09,316.09-533.49,316.59-533.49,316.59Z" transform="translate(597.78 2.22)"/><path class="cls-2" d="M-537.69,316.59c3.3,29-21.1,19-1-.1C-537.89,315.89-537.69,316.59-537.69,316.59Z" transform="translate(597.78 2.22)"/><path class="cls-2" d="M-513.49,363.09c36.9-23,.5-44.9,0,0" transform="translate(597.78 2.22)"/><path class="cls-2" d="M-513.69,363.09c-.7-44.6-37.3-22.9,0,0" transform="translate(597.78 2.22)"/><path class="cls-2" d="M-513.39,363.09c37.7,21.6,37.7-22,0,0" transform="translate(597.78 2.22)"/><path class="cls-2" d="M-513.69,363.09c-36.8,23-.3,44.9,0,0" transform="translate(597.78 2.22)"/><path class="cls-2" d="M-513.49,363.19c.9,44.5,37.3,22.9,0,0" transform="translate(597.78 2.22)"/><path class="cls-2" d="M-513.69,363.09c-37.7-21.6-37.8,22,0,0" transform="translate(597.78 2.22)"/><ellipse class="cls-3" cx="270.09" cy="273.61" rx="4.8" ry="4.9"/><path class="cls-3" d="M-319.59,267.59c28.4-37.4,45.7,3.3,1,1.3C-320.19,268.79-319.59,267.59-319.59,267.59Z" transform="translate(597.78 2.22)"/><path class="cls-3" d="M-324.59,263.39c-5.5-47.2,34.6-31,1.5.1C-324.29,264.69-324.59,263.39-324.59,263.39Z" transform="translate(597.78 2.22)"/><path class="cls-3" d="M-332.29,264.89c-36.2-29.3,3.2-47.2,1.2-1C-331.09,265.59-332.29,264.89-332.29,264.89Z" transform="translate(597.78 2.22)"/><path class="cls-3" d="M-336.29,270.09c-45.7,5.8-30-35.8.1-1.7C-334.89,269.69-336.29,270.09-336.29,270.09Z" transform="translate(597.78 2.22)"/><path class="cls-3" d="M-335.89,275.59c-28.4,37.4-45.7-3.3-1-1.3C-335.09,274.49-335.89,275.59-335.89,275.59Z" transform="translate(597.78 2.22)"/><path class="cls-3" d="M-319,273.59c45.7-5.8,30,35.8-.1,1.7C-320.29,273.89-319,273.59-319,273.59Z" transform="translate(597.78 2.22)"/><path class="cls-3" d="M-323.19,279.19c36.1,29.3-3.2,47.2-1.2,1C-324.29,278.49-323.19,279.19-323.19,279.19Z" transform="translate(597.78 2.22)"/><path class="cls-3" d="M-330.09,279.39c5.5,47.2-34.6,31-1.6-.1C-330.39,278.09-330.09,279.39-330.09,279.39Z" transform="translate(597.78 2.22)"/><ellipse class="cls-3" cx="124.69" cy="132.01" rx="3.6" ry="3.7"/><path class="cls-3" d="M-467,126.89c21.5-28.3,34.5,2.6.8.9C-467.49,127.89-467,126.89-467,126.89Z" transform="translate(597.78 2.22)"/><path class="cls-3" d="M-470.69,123.69c-4.2-35.8,26.1-23.4,1.2.2C-470.59,124.69-470.69,123.69-470.69,123.69Z" transform="translate(597.78 2.22)"/><path class="cls-3" d="M-476.49,124.69c-27.4-22.1,2.4-35.6.9-.8C-475.69,125.39-476.49,124.69-476.49,124.69Z" transform="translate(597.78 2.22)"/><path class="cls-3" d="M-479.59,128.69c-34.6,4.4-22.6-27,.1-1.3C-478.49,128.49-479.59,128.69-479.59,128.69Z" transform="translate(597.78 2.22)"/><path class="cls-3" d="M-479.29,133c-21.5,28.3-34.5-2.6-.8-.9C-478.79,132.09-479.29,133-479.29,133Z" transform="translate(597.78 2.22)"/><path class="cls-3" d="M-466.59,131.29c34.6-4.4,22.6,27-.1,1.3C-467.49,131.59-466.59,131.29-466.59,131.29Z" transform="translate(597.78 2.22)"/><path class="cls-3" d="M-469.69,135.69c27.4,22.3-2.4,35.8-.9.8C-470.39,135.09-469.69,135.69-469.69,135.69Z" transform="translate(597.78 2.22)"/><path class="cls-3" d="M-474.79,135.79c4.3,35.8-26.1,23.4-1.1-.1C-475.09,134.79-474.79,135.79-474.79,135.79Z" transform="translate(597.78 2.22)"/><circle class="cls-2" cx="111.49" cy="429.21" r="3"/><path class="cls-2" d="M-481.19,424.69c17.4-22.9,27.9,2,.6.8C-481.59,425.49-481.19,424.69-481.19,424.69Z" transform="translate(597.78 2.22)"/><path class="cls-2" d="M-484.29,422.09c-3.3-28.9,21.1-19,1,.1C-484.19,422.89-484.29,422.09-484.29,422.09Z" transform="translate(597.78 2.22)"/><path class="cls-2" d="M-489.09,423c-22.1-18,1.9-28.9.8-.6C-488.29,423.39-489.09,423-489.09,423Z" transform="translate(597.78 2.22)"/><path class="cls-2" d="M-491.39,426.29c-27.9,3.5-18.4-21.9.1-1C-490.59,426-491.39,426.29-491.39,426.29Z" transform="translate(597.78 2.22)"/><path class="cls-2" d="M-491.19,429.59c-17.4,22.9-27.9-2-.6-.8C-490.89,429-491.19,429.59-491.19,429.59Z" transform="translate(597.78 2.22)"/><path class="cls-2" d="M-481,428.29c27.9-3.5,18.4,21.9-.1,1C-481.79,428.59-481,428.29-481,428.29Z" transform="translate(597.78 2.22)"/><path class="cls-2" d="M-483.59,431.79c19.1,18-1.7,28.9-.7.6C-484.19,431.39-483.59,431.79-483.59,431.79Z" transform="translate(597.78 2.22)"/><path class="cls-2" d="M-487.69,431.89c3.3,28.9-21.1,19-1-.1C-487.89,431.09-487.69,431.89-487.69,431.89Z" transform="translate(597.78 2.22)"/><path class="cls-2" d="M-510.19,218.29C-538.39,209.09-522.39,191-510.19,218.29Z" transform="translate(597.78 2.22)"/><path class="cls-2" d="M-508,216.39C-521.79,189.29-498,188.09-508,216.39Z" transform="translate(597.78 2.22)"/><path class="cls-2" d="M-510.79,219.49C-537.09,233.69-538.09,209-510.79,219.49Z" transform="translate(597.78 2.22)"/><path class="cls-2" d="M-505.19,221.59C-476.69,229.79-492.19,248.49-505.19,221.59Z" transform="translate(597.78 2.22)"/><path class="cls-2" d="M-505.79,218C-496.89,188.89-479.29,205.49-505.79,218Z" transform="translate(597.78 2.22)"/><path class="cls-2" d="M-505,219.09C-478.89,205-477.79,229.59-505,219.09Z" transform="translate(597.78 2.22)"/><path class="cls-2" d="M-507.89,222.09C-494.19,249.09-518,250.29-507.89,222.09Z" transform="translate(597.78 2.22)"/><path class="cls-2" d="M-510.19,220.89C-519.09,249.89-536.59,233.29-510.19,220.89Z" transform="translate(597.78 2.22)"/><path class="cls-2" d="M-128.89,139.59c36.9-23,.5-44.8,0,0" transform="translate(597.78 2.22)"/><path class="cls-2" d="M-128.89,139.59c-.9-44.7-37.3-22.9,0,0" transform="translate(597.78 2.22)"/><path class="cls-2" d="M-128.79,139.69c37.7,21.5,37.8-22,0,0" transform="translate(597.78 2.22)"/><path class="cls-2" d="M-128.89,139.59c-37,23-.6,44.8,0,0" transform="translate(597.78 2.22)"/><path class="cls-2" d="M-128.89,139.69c.9,44.6,37.2,22.9,0,0" transform="translate(597.78 2.22)"/><path class="cls-2" d="M-129.09,139.59c-37.7-21.7-37.7,22,0,0" transform="translate(597.78 2.22)"/><ellipse class="cls-2" cx="48.19" cy="90.61" rx="3.2" ry="3.3"/><path class="cls-2" d="M-547.69,85.29c8.4-31.7,29.8-10.6,1,.5C-547.89,86.29-547.69,85.29-547.69,85.29Z" transform="translate(597.78 2.22)"/><path class="cls-2" d="M-549.79,84.79c-15.7-28.5,14-29.3,1-.4C-549.19,85.59-549.79,84.79-549.79,84.79Z" transform="translate(597.78 2.22)"/><path class="cls-2" d="M-551.89,86.19c-30.6-8.6-10.2-30.9.5-1C-551,86.29-551.89,86.19-551.89,86.19Z" transform="translate(597.78 2.22)"/><path class="cls-2" d="M-553.19,88.89c-27.5,16.3-28.3-14.4-.4-1C-552.39,88.39-553.19,88.89-553.19,88.89Z" transform="translate(597.78 2.22)"/><path class="cls-2" d="M-551,91.19c-8.4,31.7-29.8,10.6-1-.5C-550.79,90.29-551,91.19-551,91.19Z" transform="translate(597.78 2.22)"/><path class="cls-2" d="M-546.19,87.39c27.5-16.3,28.3,14.4.4,1C-547,87.89-546.19,87.39-546.19,87.39Z" transform="translate(597.78 2.22)"/><path class="cls-2" d="M-546.29,90.39c30.6,8.6,10.2,30.9-.5,1C-547.19,90.29-546.29,90.39-546.29,90.39Z" transform="translate(597.78 2.22)"/><path class="cls-2" d="M-548.49,91.59c15.7,28.6-14,29.3-1,.4C-549,90.89-548.49,91.59-548.49,91.59Z" transform="translate(597.78 2.22)"/><ellipse class="cls-2" cx="46.59" cy="369.71" rx="3.2" ry="3.3"/><path class="cls-2" d="M-549.39,364.39c8.4-31.6,29.9-10.5,1,.5C-549.49,365.39-549.39,364.39-549.39,364.39Z" transform="translate(597.78 2.22)"/><path class="cls-2" d="M-551.49,363.89c-15.7-28.6,14-29.3,1-.4C-550.79,364.59-551.49,363.89-551.49,363.89Z" transform="translate(597.78 2.22)"/><path class="cls-2" d="M-553.49,365.29c-30.6-8.6-10.2-30.9.5-1C-552.59,365.39-553.49,365.29-553.49,365.29Z" transform="translate(597.78 2.22)"/><path class="cls-2" d="M-554.79,368c-27.5,16.3-28.3-14.4-.4-1C-554,367.49-554.79,368-554.79,368Z" transform="translate(597.78 2.22)"/><path class="cls-2" d="M-552.59,370.29c-8.4,31.6-29.8,10.5-1-.5C-552.49,369.39-552.59,370.29-552.59,370.29Z" transform="translate(597.78 2.22)"/><path class="cls-2" d="M-547.89,366.39c27.5-16.3,28.3,14.4.4,1C-548.59,367-547.89,366.39-547.89,366.39Z" transform="translate(597.78 2.22)"/><path class="cls-2" d="M-548,369.49c30.6,8.6,10.2,30.9-.5,1C-548.89,369.39-548,369.49-548,369.49Z" transform="translate(597.78 2.22)"/><path class="cls-2" d="M-550.19,370.69c15.7,28.5-14,29.3-1,.4C-550.69,369.89-550.19,370.69-550.19,370.69Z" transform="translate(597.78 2.22)"/><circle class="cls-2" cx="482.49" cy="195.71" r="3"/><path class="cls-2" d="M-110.29,191.29c17.4-22.9,27.9,2.1.6.8C-110.69,192-110.29,191.29-110.29,191.29Z" transform="translate(597.78 2.22)"/><path class="cls-2" d="M-113.39,188.59c-3.4-28.9,21.1-19,1,.1C-113.09,189.49-113.39,188.59-113.39,188.59Z" transform="translate(597.78 2.22)"/><path class="cls-2" d="M-118,189.49c-22.1-18,1.9-28.9.8-.6C-117.39,190-118,189.49-118,189.49Z" transform="translate(597.78 2.22)"/><path class="cls-2" d="M-120.39,192.69c-27.9,3.5-18.4-21.9.1-1C-119.69,192.49-120.39,192.69-120.39,192.69Z" transform="translate(597.78 2.22)"/><path class="cls-2" d="M-120.19,196.19c-17.4,22.9-27.9-2.1-.6-.8C-119.79,195.39-120.19,196.19-120.19,196.19Z" transform="translate(597.78 2.22)"/><path class="cls-2" d="M-109.89,194.79c27.9-3.5,18.4,21.9-.1,1C-110.79,195.09-109.89,194.79-109.89,194.79Z" transform="translate(597.78 2.22)"/><path class="cls-2" d="M-112.49,198.39c22.1,18-1.9,28.9-.8.6C-113.09,197.89-112.49,198.39-112.49,198.39Z" transform="translate(597.78 2.22)"/><path class="cls-2" d="M-116.69,198.39c3.4,28.9-21.1,19-1-.1C-116.79,197.59-116.69,198.39-116.69,198.39Z" transform="translate(597.78 2.22)"/><circle class="cls-2" cx="476.69" cy="354.01" r="3"/><path class="cls-2" d="M-116,349.59c17.4-22.9,27.9,2.1.6.8C-116.39,350.29-116,349.59-116,349.59Z" transform="translate(597.78 2.22)"/><path class="cls-2" d="M-119.09,346.89c-3.3-28.9,21.1-19,1,.1C-118.89,347.89-119.09,346.89-119.09,346.89Z" transform="translate(597.78 2.22)"/><path class="cls-2" d="M-123.69,347.89c-22.1-18,1.9-28.9.8-.6C-123.09,348.39-123.69,347.89-123.69,347.89Z" transform="translate(597.78 2.22)"/><path class="cls-2" d="M-126.19,351.09c-27.9,3.5-18.4-21.9.1-1C-125.39,350.79-126.19,351.09-126.19,351.09Z" transform="translate(597.78 2.22)"/><path class="cls-2" d="M-126,354.49c-17.4,22.9-27.9-2.1-.6-.8C-125.59,353.79-126,354.49-126,354.49Z" transform="translate(597.78 2.22)"/><path class="cls-2" d="M-115.69,353.09c27.9-3.5,18.4,21.9-.1,1C-116.59,353.39-115.69,353.09-115.69,353.09Z" transform="translate(597.78 2.22)"/><path class="cls-2" d="M-118.19,356.69c22.1,18-1.9,28.9-.8.6C-118.89,356.19-118.19,356.69-118.19,356.69Z" transform="translate(597.78 2.22)"/><path class="cls-2" d="M-122.49,356.69c3.3,28.9-21.1,19-1-.1C-122.59,356-122.49,356.69-122.49,356.69Z" transform="translate(597.78 2.22)"/><circle class="cls-2" cx="25.14" cy="190.29" r="1.78"/><path class="cls-2" d="M-569.66,186.73c10.23-13.5,16.41,1.2.36.42C-569.94,187.15-569.66,186.73-569.66,186.73Z" transform="translate(597.78 2.22)"/><path class="cls-2" d="M-571.5,185.16c-2-17,12.42-11.22.56.07C-571.43,185.59-571.5,185.16-571.5,185.16Z" transform="translate(597.78 2.22)"/><path class="cls-2" d="M-574.34,185.73c-13-10.58,1.13-17,.42-.35C-573.85,185.94-574.34,185.73-574.34,185.73Z" transform="translate(597.78 2.22)"/><path class="cls-2" d="M-575.69,187.58c-16.48,2.06-10.87-12.86.07-.57C-575.2,187.44-575.69,187.58-575.69,187.58Z" transform="translate(597.78 2.22)"/><path class="cls-2" d="M-575.55,189.57c-10.23,13.49-16.48-1.21-.36-.43C-575.41,189.21-575.55,189.57-575.55,189.57Z" transform="translate(597.78 2.22)"/><path class="cls-2" d="M-569.52,188.86c16.41-2.06,10.87,12.85-.07.56C-570,189-569.52,188.86-569.52,188.86Z" transform="translate(597.78 2.22)"/><path class="cls-2" d="M-571.08,190.84c11.22,10.59-1,17-.42.36C-571.43,190.63-571.08,190.84-571.08,190.84Z" transform="translate(597.78 2.22)"/><path class="cls-2" d="M-573.49,190.92c2,17-12.43,11.22-.57-.08C-573.63,190.49-573.49,190.92-573.49,190.92Z" transform="translate(597.78 2.22)"/><circle class="cls-2" cx="43.19" cy="436.41" r="1.8"/><path class="cls-2" d="M-551.49,432.79c10.6-13.9,17,1.2.4.5C-551.79,433.29-551.49,432.79-551.49,432.79Z" transform="translate(597.78 2.22)"/><path class="cls-2" d="M-553.39,431.19c-2-17.6,12.8-11.5.6.1C-553.39,431.69-553.39,431.19-553.39,431.19Z" transform="translate(597.78 2.22)"/><path class="cls-2" d="M-556.29,431.79c-13.4-10.9,1.2-17.6.5-.4C-555.89,432-556.29,431.79-556.29,431.79Z" transform="translate(597.78 2.22)"/><path class="cls-2" d="M-557.69,433.69c-17,2.1-11.2-13.3.1-.6C-557.29,433.59-557.69,433.69-557.69,433.69Z" transform="translate(597.78 2.22)"/><path class="cls-2" d="M-557.59,435.79c-10.6,13.9-17-1.2-.4-.5C-557.39,435.39-557.59,435.79-557.59,435.79Z" transform="translate(597.78 2.22)"/><path class="cls-2" d="M-551.39,435c17-2.1,11.2,13.3-.1.6C-551.89,435.09-551.39,435-551.39,435Z" transform="translate(597.78 2.22)"/><path class="cls-2" d="M-552.89,437.09c11.6,10.9-1,17.6-.4.4C-553.39,436.89-552.89,437.09-552.89,437.09Z" transform="translate(597.78 2.22)"/><path class="cls-2" d="M-555.49,437.19c2,17.6-12.8,11.5-.6-.1C-555.59,436.69-555.49,437.19-555.49,437.19Z" transform="translate(597.78 2.22)"/><circle class="cls-2" cx="200.99" cy="15.11" r="1.5"/><path class="cls-2" d="M-394.19,11.69c9-11.9,14.5,1,.3.4C-394.39,12.09-394.19,11.69-394.19,11.69Z" transform="translate(597.78 2.22)"/><path class="cls-2" d="M-395.79,10.39c-1.7-15,11-9.9.5.1C-395.79,10.79-395.79,10.39-395.79,10.39Z" transform="translate(597.78 2.22)"/><path class="cls-2" d="M-398.29,10.89c-11.5-9.3,1-15,.4-.3C-397.89,11.09-398.29,10.89-398.29,10.89Z" transform="translate(597.78 2.22)"/><path class="cls-2" d="M-399.49,12.49c-14.5,1.8-9.6-11.4.1-.5C-399.09,12.39-399.49,12.49-399.49,12.49Z" transform="translate(597.78 2.22)"/><path class="cls-2" d="M-399.39,14.29c-9,11.9-14.5-1.1-.3-.4C-399.19,13.89-399.39,14.29-399.39,14.29Z" transform="translate(597.78 2.22)"/><path class="cls-2" d="M-394.09,13.59c14.5-1.8,9.5,11.3-.1.5C-394.49,13.69-394.09,13.59-394.09,13.59Z" transform="translate(597.78 2.22)"/><path class="cls-2" d="M-395.39,15.39c9.9,9.3-.9,15-.3.3C-395.79,15.19-395.39,15.39-395.39,15.39Z" transform="translate(597.78 2.22)"/><path class="cls-2" d="M-397.49,15.49c1.7,15-11,9.9-.5-.1C-397.69,15.09-397.49,15.49-397.49,15.49Z" transform="translate(597.78 2.22)"/><circle class="cls-2" cx="20.79" cy="73.71" r="1.7"/><path class="cls-2" d="M-574.09,70.19c10.1-13.3,16.2,1.2.4.4C-574.29,70.69-574.09,70.19-574.09,70.19Z" transform="translate(597.78 2.22)"/><path class="cls-2" d="M-575.89,68.69c-1.9-16.8,12.3-11,.6.1C-575.79,69.09-575.89,68.69-575.89,68.69Z" transform="translate(597.78 2.22)"/><path class="cls-2" d="M-578.69,69.19c-12.9-10.5,1.1-16.8.4-.4C-578.19,69.49-578.69,69.19-578.69,69.19Z" transform="translate(597.78 2.22)"/><path class="cls-2" d="M-580,71.09c-16.2,2-10.7-12.7.1-.6C-579.49,71-580,71.09-580,71.09Z" transform="translate(597.78 2.22)"/><path class="cls-2" d="M-579.89,73c-10.1,13.3-16.2-1.2-.4-.4C-579.69,72.69-579.89,73-579.89,73Z" transform="translate(597.78 2.22)"/><path class="cls-2" d="M-573.89,72.29c16.2-2,10.7,12.7-.1.6C-574.39,72.39-573.89,72.29-573.89,72.29Z" transform="translate(597.78 2.22)"/><path class="cls-2" d="M-575.39,74.29c11.1,10.5-1,16.8-.4.4C-575.79,74.09-575.39,74.29-575.39,74.29Z" transform="translate(597.78 2.22)"/><path class="cls-2" d="M-577.79,74.39c1.9,16.8-12.3,11-.6-.1A.33.33,0,0,1-577.79,74.39Z" transform="translate(597.78 2.22)"/><circle class="cls-2" cx="488.89" cy="233.31" r="1.8"/><path class="cls-2" d="M-105.79,229.69c10.6-13.9,17,1.2.4.5C-106.09,230.09-105.79,229.69-105.79,229.69Z" transform="translate(597.78 2.22)"/><path class="cls-2" d="M-107.69,228.09c-2-17.6,12.8-11.5.6.1C-107.69,228.59-107.69,228.09-107.69,228.09Z" transform="translate(597.78 2.22)"/><path class="cls-2" d="M-110.59,228.69c-13.4-10.9,1.2-17.6.5-.4C-110.09,228.89-110.59,228.69-110.59,228.69Z" transform="translate(597.78 2.22)"/><path class="cls-2" d="M-112,230.59c-17,2.1-11.2-13.3.1-.6C-111.59,230.49-112,230.59-112,230.59Z" transform="translate(597.78 2.22)"/><path class="cls-2" d="M-111.89,232.59c-10.6,13.9-17-1.2-.4-.5C-111.69,232.29-111.89,232.59-111.89,232.59Z" transform="translate(597.78 2.22)"/><path class="cls-2" d="M-105.69,231.89c17-2.1,11.2,13.3-.1.6C-106.19,232-105.69,231.89-105.69,231.89Z" transform="translate(597.78 2.22)"/><path class="cls-2" d="M-107.19,234c11.6,10.9-1,17.6-.4.4C-107.69,233.69-107.19,234-107.19,234Z" transform="translate(597.78 2.22)"/><path class="cls-2" d="M-109.79,234.09c2,17.6-12.8,11.5-.6-.1C-109.89,233.59-109.79,234.09-109.79,234.09Z" transform="translate(597.78 2.22)"/><circle class="cls-2" cx="487.39" cy="392.11" r="1.8"/><path class="cls-2" d="M-107.39,388.49c10.6-13.9,17,1.2.4.5C-107.59,389-107.39,388.49-107.39,388.49Z" transform="translate(597.78 2.22)"/><path class="cls-2" d="M-109.29,386.89c-2-17.6,12.8-11.5.6.1C-109.19,387.39-109.29,386.89-109.29,386.89Z" transform="translate(597.78 2.22)"/><path class="cls-2" d="M-112.09,387.49c-13.4-10.9,1.2-17.6.5-.4C-111.69,387.69-112.09,387.49-112.09,387.49Z" transform="translate(597.78 2.22)"/><path class="cls-2" d="M-113.59,389.39c-17,2.1-11.2-13.3.1-.6C-113.09,389.29-113.59,389.39-113.59,389.39Z" transform="translate(597.78 2.22)"/><path class="cls-2" d="M-113.39,391.49c-10.6,13.9-17-1.2-.4-.5C-113.19,391.09-113.39,391.49-113.39,391.49Z" transform="translate(597.78 2.22)"/><path class="cls-2" d="M-107.19,390.69c17-2.1,11.2,13.3-.1.6C-107.69,390.79-107.19,390.69-107.19,390.69Z" transform="translate(597.78 2.22)"/><path class="cls-2" d="M-108.79,392.79c11.6,10.9-1,17.6-.4.4C-109.19,392.49-108.79,392.79-108.79,392.79Z" transform="translate(597.78 2.22)"/><path class="cls-2" d="M-111.29,392.89c2,17.6-12.8,11.5-.6-.1C-111.39,392.39-111.29,392.89-111.29,392.89Z" transform="translate(597.78 2.22)"/></g><g id="Vrstva_4" data-name="Vrstva 4"><ellipse class="cls-3" cx="324.29" cy="154.61" rx="9.6" ry="9.9"/><ellipse class="cls-3" cx="275.09" cy="135.21" rx="8.6" ry="8.8"/><ellipse class="cls-3" cx="72.99" cy="187.31" rx="8.7" ry="8.8"/><ellipse class="cls-3" cx="190.49" cy="279.11" rx="8.5" ry="8.9"/><ellipse class="cls-3" cx="330.79" cy="205.21" rx="7.1" ry="7.4"/><ellipse class="cls-3" cx="327.09" cy="319.11" rx="7.6" ry="7.9"/><ellipse class="cls-3" cx="145.69" cy="275.61" rx="6.1" ry="6.3"/><ellipse class="cls-3" cx="245.89" cy="106.41" rx="7.1" ry="7.4"/><ellipse class="cls-3" cx="322.09" cy="73.01" rx="6.6" ry="6.8"/><ellipse class="cls-4" cx="308.69" cy="32.01" rx="7.6" ry="7.9"/><ellipse class="cls-4" cx="273.19" cy="197.81" rx="12.1" ry="12.5"/><ellipse class="cls-4" cx="207.39" cy="149.31" rx="9" ry="9.4"/><ellipse class="cls-5" cx="275.59" cy="357.81" rx="11.1" ry="11.5"/><ellipse class="cls-5" cx="129.59" cy="232.41" rx="6.6" ry="6.8"/><ellipse class="cls-6" cx="347.29" cy="259.61" rx="9" ry="9.4"/><ellipse class="cls-7" cx="231.69" cy="178.01" rx="5.6" ry="5.7"/><ellipse class="cls-7" cx="364.49" cy="187.51" rx="3.5" ry="3.6"/><ellipse class="cls-7" cx="312.19" cy="238.91" rx="3.5" ry="3.6"/><ellipse class="cls-7" cx="213.59" cy="367.51" rx="3.5" ry="3.6"/><ellipse class="cls-7" cx="162.09" cy="247.21" rx="3.5" ry="3.6"/><ellipse class="cls-7" cx="301.99" cy="104.51" rx="3.5" ry="3.6"/><ellipse class="cls-7" cx="364.59" cy="302.61" rx="3.5" ry="3.6"/><ellipse class="cls-5" cx="419.29" cy="396.21" rx="11.1" ry="11.5"/><ellipse class="cls-3" cx="-439.99" cy="175.6" rx="8.5" ry="8.9" transform="translate(579.56 -37.89) rotate(-5.33)"/><ellipse class="cls-5" cx="446.69" cy="232.31" rx="6.6" ry="6.8"/><ellipse class="cls-3" cx="153.49" cy="408.21" rx="8.5" ry="8.9"/><ellipse class="cls-3" cx="84.39" cy="367.11" rx="8.5" ry="8.9"/><ellipse class="cls-3" cx="74.39" cy="265.01" rx="8.5" ry="8.9"/><ellipse class="cls-3" cx="371.79" cy="343.11" rx="8.5" ry="8.9"/><ellipse class="cls-3" cx="-353.68" cy="31.89" rx="8.5" ry="8.9" transform="translate(593.29 -30.5) rotate(-5.33)"/><ellipse class="cls-3" cx="-431.69" cy="24.79" rx="8.5" ry="8.9" transform="translate(593.61 -37.78) rotate(-5.33)"/><ellipse class="cls-7" cx="117.79" cy="394.61" rx="3.5" ry="3.6"/><ellipse class="cls-7" cx="449.19" cy="352.21" rx="3.5" ry="3.6"/><ellipse class="cls-7" cx="346.59" cy="30.91" rx="2.7" ry="3"/><ellipse class="cls-7" cx="196.59" cy="37.11" rx="3.5" ry="3.6"/><ellipse class="cls-7" cx="115.19" cy="183.01" rx="5.6" ry="5.7"/><ellipse class="cls-5" cx="107.59" cy="60.21" rx="12.4" ry="12.8"/><g class="cls-1"><path class="cls-2" d="M-239.82,422.46c-17.92-40-43.44,4.37,0,0" transform="translate(597.78 2.22)"/><path class="cls-2" d="M-239.82,423c25.79-35.22-24-37.85,0,0" transform="translate(597.78 2.22)"/><path class="cls-2" d="M-240,422.37c16.61,40.74,43.7-2.8,0,0" transform="translate(597.78 2.22)"/><path class="cls-2" d="M-240,422.28c42.31,5.6,19.49-40.38,0,0" transform="translate(597.78 2.22)"/><path class="cls-2" d="M-239.9,422.37c-25.79,35.23,24.21,37.68,0,0" transform="translate(597.78 2.22)"/><path class="cls-2" d="M-239.9,422.46c-42.31-5.51-19.5,40.47,0,0" transform="translate(597.78 2.22)"/></g><ellipse class="cls-4" cx="357.61" cy="424.5" rx="7.87" ry="8.22"/><ellipse class="cls-7" cx="228.99" cy="69.91" rx="5.6" ry="5.7"/><ellipse class="cls-7" cx="73.99" cy="12.71" rx="5.5" ry="5.7"/><g class="cls-1"><path class="cls-2" d="M-529.39,416.49c29.5,13.3,26.6-19.3,0,0" transform="translate(597.78 2.22)"/><path class="cls-2" d="M-529.39,416.49c25.8-19.9-2.9-33.5,0,0" transform="translate(597.78 2.22)"/><path class="cls-2" d="M-529.39,416.59c3.7,33.2,29.4,14.2,0,0" transform="translate(597.78 2.22)"/><path class="cls-2" d="M-529.59,416.49c-29.5-13.2-26.6,19.2,0,0" transform="translate(597.78 2.22)"/><path class="cls-2" d="M-529.59,416.59c-25.8,19.9,2.9,33.4,0,0" transform="translate(597.78 2.22)"/><path class="cls-2" d="M-529.39,416.49c-3.8-33.2-29.5-14.2,0,0" transform="translate(597.78 2.22)"/></g><ellipse class="cls-3" cx="69.09" cy="418.71" rx="6.1" ry="6.3"/><g class="cls-1"><path class="cls-2" d="M-486.46,285.22c25.92-16.14.42-31.51,0,0" transform="translate(597.78 2.22)"/><path class="cls-2" d="M-486.53,285.15c-.49-31.23-26.13-16.07,0,0" transform="translate(597.78 2.22)"/><path class="cls-2" d="M-486.32,285.22c26.41,15.09,26.41-15.44,0,0" transform="translate(597.78 2.22)"/><path class="cls-2" d="M-486.53,285.22c-25.85,16.14-.35,31.52,0,0" transform="translate(597.78 2.22)"/><path class="cls-2" d="M-486.46,285.22c.56,31.31,26.2,16.07,0,0" transform="translate(597.78 2.22)"/><path class="cls-2" d="M-486.53,285.15c-26.41-15.09-26.55,15.44,0,0" transform="translate(597.78 2.22)"/></g><ellipse class="cls-3" cx="111.46" cy="287.3" rx="4.96" ry="5.17"/><g class="cls-1"><path class="cls-2" d="M-120,43.39c47-1.3,23.8-42.3,0,0" transform="translate(597.78 2.22)"/><path class="cls-2" d="M-120,43.39c22.4-42.8-23.5-42.5,0,0" transform="translate(597.78 2.22)"/><path class="cls-2" d="M-119.79,43.49c24.5,41.3,47.2.1,0,0" transform="translate(597.78 2.22)"/><path class="cls-2" d="M-120,43.39c-47,1.3-23.7,42.2,0,0" transform="translate(597.78 2.22)"/><path class="cls-2" d="M-120,43.49c-22.3,42.7,23.5,42.4,0,0" transform="translate(597.78 2.22)"/><path class="cls-2" d="M-120,43.39c-24.7-41.5-47.2-.2,0,0" transform="translate(597.78 2.22)"/></g><ellipse class="cls-3" cx="478.29" cy="46.01" rx="7.6" ry="7.9"/><g class="cls-1"><path class="cls-2" d="M-561.69,31.39c47-1.4,23.8-42.4,0,0" transform="translate(597.78 2.22)"/><path class="cls-2" d="M-561.69,31.19c22.4-42.7-23.5-42.3,0,0" transform="translate(597.78 2.22)"/><path class="cls-2" d="M-561.49,31.39c24.5,41.4,47.2.1,0,0" transform="translate(597.78 2.22)"/><path class="cls-2" d="M-561.69,31.39c-46.8,1.3-23.7,42.2,0,0" transform="translate(597.78 2.22)"/><path class="cls-2" d="M-561.69,31.49c-22.3,42.7,23.7,42.4,0,0" transform="translate(597.78 2.22)"/><path class="cls-2" d="M-561.69,31.19c-24.6-41.3-47.2-.1,0,0" transform="translate(597.78 2.22)"/></g><ellipse class="cls-3" cx="37.19" cy="33.81" rx="7.6" ry="7.9"/><ellipse class="cls-3" cx="468.59" cy="140.71" rx="7.6" ry="7.9"/><g class="cls-1"><path class="cls-2" d="M-111.28,268.44c27.13-.81,13.73-26.33,0,0" transform="translate(597.78 2.22)"/><path class="cls-2" d="M-111.28,268.44c12.93-26.64-13.57-26.51,0,0" transform="translate(597.78 2.22)"/><path class="cls-2" d="M-111.17,268.56c14.14,25.76,27.25.06,0,0" transform="translate(597.78 2.22)"/><path class="cls-2" d="M-111.28,268.44c-27.13.81-13.68,26.32,0,0" transform="translate(597.78 2.22)"/><path class="cls-2" d="M-111.28,268.56c-12.87,26.64,13.56,26.39,0,0" transform="translate(597.78 2.22)"/><path class="cls-2" d="M-111.28,268.44c-14.2-25.83-27.25-.07,0,0" transform="translate(597.78 2.22)"/></g><ellipse class="cls-3" cx="486.33" cy="270.3" rx="7.6" ry="7.9"/><g class="cls-1"><path class="cls-2" d="M-556.89,229.09c47-1.3,23.7-42.2,0,0" transform="translate(597.78 2.22)"/><path class="cls-2" d="M-556.89,229.09c22.3-42.7-23.5-42.5,0,0" transform="translate(597.78 2.22)"/><path class="cls-2" d="M-556.79,229.19c24.5,41.4,47.3.2,0,0" transform="translate(597.78 2.22)"/><path class="cls-2" d="M-556.89,229.09c-47,1.3-23.8,42.2,0,0" transform="translate(597.78 2.22)"/><path class="cls-2" d="M-556.89,229.19c-22.4,42.8,23.5,42.4,0,0" transform="translate(597.78 2.22)"/><path class="cls-2" d="M-556.89,229.09c-24.7-41.4-47.3-.1,0,0" transform="translate(597.78 2.22)"/></g><ellipse class="cls-3" cx="40.29" cy="231.71" rx="7.6" ry="7.9"/><g class="cls-1"><path class="cls-2" d="M-561.39,140.29c47-1.3,23.8-42.3,0,0" transform="translate(597.78 2.22)"/><path class="cls-2" d="M-561.39,140.29c22.4-42.8-23.5-42.5,0,0" transform="translate(597.78 2.22)"/><path class="cls-2" d="M-561.19,140.39c24.5,41.3,47.2.1,0,0" transform="translate(597.78 2.22)"/><path class="cls-2" d="M-561.39,140.29c-47,1.3-23.7,42.2,0,0" transform="translate(597.78 2.22)"/><path class="cls-2" d="M-561.39,140.39c-22.3,42.7,23.5,42.3,0,0" transform="translate(597.78 2.22)"/><path class="cls-2" d="M-561.39,140.29c-24.6-41.5-47.2-.2,0,0" transform="translate(597.78 2.22)"/></g><ellipse class="cls-3" cx="35.89" cy="142.81" rx="7.6" ry="7.9"/><g class="cls-1"><path class="cls-2" d="M-567.29,280.79c29.6,13.2,26.6-19.3,0,0" transform="translate(597.78 2.22)"/><path class="cls-2" d="M-567.29,280.79c25.8-19.9-2.8-33.5,0,0" transform="translate(597.78 2.22)"/><path class="cls-2" d="M-567.29,280.89c3.7,33.1,29.4,14.2,0,0" transform="translate(597.78 2.22)"/><path class="cls-2" d="M-567.39,280.79c-29.6-13.2-26.6,19.2,0,0" transform="translate(597.78 2.22)"/><path class="cls-2" d="M-567.39,280.89c-25.9,19.8,2.8,33.4,0,0" transform="translate(597.78 2.22)"/><path class="cls-2" d="M-567.29,280.79c-3.7-33.2-29.4-14.3,0,0" transform="translate(597.78 2.22)"/></g><ellipse class="cls-3" cx="31.29" cy="283.01" rx="6.1" ry="6.3"/><g class="cls-1"><path class="cls-2" d="M-110.92,93.39c29.6,13.3,26.6-19.2,0,0" transform="translate(597.78 2.22)"/><path class="cls-2" d="M-110.92,93.39c25.8-19.9-2.8-33.5,0,0" transform="translate(597.78 2.22)"/><path class="cls-2" d="M-110.92,93.49c3.8,33.2,29.5,14.2,0,0" transform="translate(597.78 2.22)"/><path class="cls-2" d="M-111,93.39c-29.6-13.2-26.6,19.2,0,0" transform="translate(597.78 2.22)"/><path class="cls-2" d="M-111,93.49c-25.8,19.9,2.8,33.5,0,0" transform="translate(597.78 2.22)"/><path class="cls-2" d="M-110.92,93.39c-3.7-33.2-29.4-14.2,0,0" transform="translate(597.78 2.22)"/></g><ellipse class="cls-3" cx="486.89" cy="95.61" rx="6.1" ry="6.3"/><g class="cls-1"><path class="cls-2" d="M-576.59,407.69c29.6,13.3,26.6-19.2,0,0" transform="translate(597.78 2.22)"/><path class="cls-2" d="M-576.59,407.69c25.8-19.9-2.8-33.4,0,0" transform="translate(597.78 2.22)"/><path class="cls-2" d="M-576.59,407.89c3.7,33.1,29.5,14.2,0,0" transform="translate(597.78 2.22)"/><path class="cls-2" d="M-576.69,407.69c-29.6-13.2-26.6,19.3,0,0" transform="translate(597.78 2.22)"/><path class="cls-2" d="M-576.69,407.89c-25.9,19.8,2.8,33.4,0,0" transform="translate(597.78 2.22)"/><path class="cls-2" d="M-576.59,407.69c-3.7-33.2-29.4-14.2,0,0" transform="translate(597.78 2.22)"/></g><ellipse class="cls-3" cx="21.99" cy="409.91" rx="6.1" ry="6.3"/><g class="cls-1"><path class="cls-2" d="M-241.86,12.33c21.09,9.5,19-13.8,0,0" transform="translate(597.78 2.22)"/><path class="cls-2" d="M-241.86,12.33c18.44-14.23-2.08-24,0,0" transform="translate(597.78 2.22)"/><path class="cls-2" d="M-241.86,12.4c2.64,23.73,21,10.15,0,0" transform="translate(597.78 2.22)"/><path class="cls-2" d="M-241.93,12.33c-21.17-9.44-19,13.72,0,0" transform="translate(597.78 2.22)"/><path class="cls-2" d="M-241.93,12.4c-18.52,14.22,2,23.88,0,0" transform="translate(597.78 2.22)"/><path class="cls-2" d="M-241.86,12.33c-2.72-23.74-21.09-10.16,0,0" transform="translate(597.78 2.22)"/></g><ellipse class="cls-3" cx="356.42" cy="14.47" rx="4.36" ry="4.5"/><g class="cls-1"><path class="cls-2" d="M-570.89,329.29c29.5,13.3,26.6-19.2,0,0" transform="translate(597.78 2.22)"/><path class="cls-2" d="M-570.89,329.29c25.8-19.9-2.9-33.4,0,0" transform="translate(597.78 2.22)"/><path class="cls-2" d="M-570.89,329.39c3.7,33.2,29.4,14.2,0,0" transform="translate(597.78 2.22)"/><path class="cls-2" d="M-571.09,329.29c-29.5-13.2-26.6,19.2,0,0" transform="translate(597.78 2.22)"/><path class="cls-2" d="M-571.09,329.39c-25.8,19.9,2.9,33.5,0,0" transform="translate(597.78 2.22)"/><path class="cls-2" d="M-570.89,329.29c-3.8-33.2-29.5-14.2,0,0" transform="translate(597.78 2.22)"/></g><g class="cls-1"><path class="cls-2" d="M-106.39,308.39c29.6,13.3,26.6-19.3,0,0" transform="translate(597.78 2.22)"/><path class="cls-2" d="M-106.39,308.39c25.9-19.9-2.8-33.5,0,0" transform="translate(597.78 2.22)"/><path class="cls-2" d="M-106.39,308.49c3.8,33.1,29.5,14.2,0,0" transform="translate(597.78 2.22)"/><path class="cls-2" d="M-106.49,308.39c-29.6-13.2-26.6,19.2,0,0" transform="translate(597.78 2.22)"/><path class="cls-2" d="M-106.49,308.49c-25.8,19.8,2.9,33.4,0,0" transform="translate(597.78 2.22)"/><path class="cls-2" d="M-106.39,308.39c-3.7-33.2-29.4-14.3,0,0" transform="translate(597.78 2.22)"/></g><ellipse class="cls-7" cx="108.09" cy="6.41" rx="4" ry="4.1"/><g class="cls-1"><path class="cls-2" d="M-416.89,441.39c19.3-.5,9.7-17.3,0,0" transform="translate(597.78 2.22)"/><path class="cls-2" d="M-416.89,441.39c9.2-17.5-9.6-17.4,0,0" transform="translate(597.78 2.22)"/><path class="cls-2" d="M-416.79,441.39c10,17,19.3.1,0,0" transform="translate(597.78 2.22)"/><path class="cls-2" d="M-416.89,441.39c-19.2.5-9.7,17.3,0,0" transform="translate(597.78 2.22)"/><path class="cls-2" d="M-416.89,441.39c-9.1,17.5,9.6,17.4,0,0" transform="translate(597.78 2.22)"/><path class="cls-2" d="M-416.89,441.39c-10.1-17-19.3-.1,0,0" transform="translate(597.78 2.22)"/></g><ellipse class="cls-3" cx="181.19" cy="443.61" rx="3.1" ry="3.2"/><g class="cls-1"><path class="cls-2" d="M-177.09,440.49c19.2-.5,9.7-17.3,0,0" transform="translate(597.78 2.22)"/><path class="cls-2" d="M-177.09,440.49c9.1-17.5-9.7-17.4,0,0" transform="translate(597.78 2.22)"/><path class="cls-2" d="M-177.09,440.59c10.1,16.9,19.4,0,0,0" transform="translate(597.78 2.22)"/><path class="cls-2" d="M-177.09,440.49c-19.3.6-9.8,17.3,0,0" transform="translate(597.78 2.22)"/><path class="cls-2" d="M-177.09,440.59c-9.2,17.5,9.6,17.3,0,0" transform="translate(597.78 2.22)"/><path class="cls-2" d="M-177.09,440.49c-10.1-16.9-19.4,0,0,0" transform="translate(597.78 2.22)"/></g><ellipse class="cls-3" cx="420.99" cy="442.71" rx="3.1" ry="3.2"/><g class="cls-1"><path class="cls-2" d="M-404.39,374.69c19.3-.5,9.8-17.3,0,0" transform="translate(597.78 2.22)"/><path class="cls-2" d="M-404.39,374.69c9.2-17.5-9.6-17.4,0,0" transform="translate(597.78 2.22)"/><path class="cls-2" d="M-404.29,374.79c10,16.9,19.3,0,0,0" transform="translate(597.78 2.22)"/><path class="cls-2" d="M-404.39,374.69c-19.2.5-9.7,17.3,0,0" transform="translate(597.78 2.22)"/><path class="cls-2" d="M-404.39,374.79c-9.1,17.5,9.6,17.3,0,0" transform="translate(597.78 2.22)"/><path class="cls-2" d="M-404.39,374.69c-10.1-17-19.3,0,0,0" transform="translate(597.78 2.22)"/></g><ellipse class="cls-3" cx="193.69" cy="376.91" rx="3.1" ry="3.2"/><g class="cls-1"><path class="cls-2" d="M-103.09,11.29c19.2-.6,9.7-17.3,0,0" transform="translate(597.78 2.22)"/><path class="cls-2" d="M-103.09,11.29c9.1-17.5-9.7-17.4,0,0" transform="translate(597.78 2.22)"/><path class="cls-2" d="M-103.09,11.29c10.1,16.9,19.4.1,0,0" transform="translate(597.78 2.22)"/><path class="cls-2" d="M-103.09,11.29c-19.3.5-9.8,17.2,0,0" transform="translate(597.78 2.22)"/><path class="cls-2" d="M-103.09,11.29c-9.2,17.5,9.6,17.4,0,0" transform="translate(597.78 2.22)"/><path class="cls-2" d="M-103.09,11.29c-10.1-17-19.4-.1,0,0" transform="translate(597.78 2.22)"/></g><ellipse class="cls-3" cx="494.99" cy="13.41" rx="3.1" ry="3.2"/></g><ellipse class="cls-7" cx="477.49" cy="428.51" rx="3.2" ry="3.3"/><path class="cls-7" d="M-118.49,423.19c8.4-31.6,29.8-10.5,1,.5C-118.69,424.29-118.49,423.19-118.49,423.19Z" transform="translate(597.78 2.22)"/><path class="cls-7" d="M-120.59,422.69c-15.7-28.6,14-29.3,1-.4C-119.89,423.49-120.59,422.69-120.59,422.69Z" transform="translate(597.78 2.22)"/><path class="cls-7" d="M-122.59,424.09c-30.6-8.6-10.2-30.9.5-1C-121.69,424.29-122.59,424.09-122.59,424.09Z" transform="translate(597.78 2.22)"/><path class="cls-7" d="M-123.89,426.89c-27.5,16.3-28.3-14.4-.4-1C-123.19,426.29-123.89,426.89-123.89,426.89Z" transform="translate(597.78 2.22)"/><path class="cls-7" d="M-121.69,429.19c-8.4,31.6-29.8,10.5-1-.5C-121.59,428.29-121.69,429.19-121.69,429.19Z" transform="translate(597.78 2.22)"/><path class="cls-7" d="M-117,425.29c27.5-16.3,28.3,14.4.4,1C-117.69,425.89-117,425.29-117,425.29Z" transform="translate(597.78 2.22)"/><path class="cls-7" d="M-117.09,428.39c30.6,8.6,10.2,30.9-.5,1C-118,428.29-117.09,428.39-117.09,428.39Z" transform="translate(597.78 2.22)"/><path class="cls-7" d="M-119.29,429.49c15.7,28.5-14,29.3-1,.4C-119.79,428.79-119.29,429.49-119.29,429.49Z" transform="translate(597.78 2.22)"/></svg>