<?xml version="1.0" encoding="utf-8"?>
<!-- Generator: Adobe Illustrator 23.0.1, SVG Export Plug-In . SVG Version: 6.00 Build 0)  -->
<svg version="1.1" id="Vrstva_1" xmlns="http://www.w3.org/2000/svg" xmlns:xlink="http://www.w3.org/1999/xlink" x="0px" y="0px"
	 viewBox="0 0 497.3 451.2" style="enable-background:new 0 0 497.3 451.2;" xml:space="preserve">
<style type="text/css">
	.st0{opacity:0.1;}
	.st1{fill:#00536D;}
	.st2{fill:#FFFFFF;}
	.st3{fill:none;stroke:#FFFFFF;stroke-width:2;stroke-miterlimit:10;}
	.st4{fill:none;stroke:#FFFFFF;stroke-width:5;stroke-miterlimit:10;}
	.st5{fill:none;stroke:#FFFFFF;stroke-width:4;stroke-miterlimit:10;}
	.st6{opacity:0.1;fill:#00536D;enable-background:new    ;}
</style>
<title>vzor</title>
<g class="st0">
	<path class="st1" d="M-153.2,230.1C-196.4,204.2-191.9,264.6-153.2,230.1"/>
	<path class="st1" d="M-153.1,230.3C-151.3,178.6-200.7,211.2-153.1,230.3"/>
	<path class="st1" d="M-153.4,230.1C-110.9,257.5-113.4,197.1-153.4,230.1"/>
	<path class="st1" d="M-153.2,230C-109.1,205.6-160.9,177.6-153.2,230"/>
	<path class="st1" d="M-153.2,230.1C-154.9,281.8-105.6,249.4-153.2,230.1"/>
	<path class="st1" d="M-153.2,230.1C-197.3,254.4-145.5,282.4-153.2,230.1"/>
	<path class="st1" d="M-219,143.5C-272.3,123.2-240,89.6-219,143.5z"/>
	<path class="st1" d="M-214.5,139.9C-238.4,86.7-192.6,86.7-214.5,139.9z"/>
	<path class="st1" d="M-220.4,145.7C-271.8,170.4-271.8,122.9-220.4,145.7z"/>
	<path class="st1" d="M-209.6,150.2C-155.6,168.7-187.1,203.3-209.6,150.2z"/>
	<path class="st1" d="M-210.3,143.4C-190.8,88.1-158.3,121.8-210.3,143.4z"/>
	<path class="st1" d="M-209.1,145.6C-157.5,120.9-157.6,168.3-209.1,145.6z"/>
	<path class="st1" d="M-214.8,150.9C-190.9,204.2-236.7,204.2-214.8,150.9z"/>
	<path class="st1" d="M-219.1,148.3C-238.7,203.5-271.1,169.9-219.1,148.3z"/>
	<path class="st1" d="M-288.9,295.4c-2.8,1.7-6.1,2.6-9.4,2.6h-0.1c0.3,3.5-0.3,7-1.7,10.2c-2.4,5.2-7.6,8.6-13.4,8.6
		c-1.3,0-2.6-0.2-3.9-0.5c-3.3-1-6.3-2.8-8.6-5.4c-2.1,2.9-5.1,5.2-8.5,6.4c-1.6,0.5-3.2,0.8-4.9,0.8c-5.4-0.1-10.3-3-12.9-7.7
		c-1.6-2.9-2.4-6.2-2.4-9.5c-0.9,0.1-1.7,0.1-2.6,0.1c-2.8,0.1-5.5-0.6-8-1.8c-6.5-3.4-9.7-10.8-7.8-17.9c0.8-3.1,2.4-6,4.6-8.4
		c-2.3-2.1-4-4.8-5-7.7c-2.3-6.9,0.4-14.5,6.6-18.3c2.9-1.7,6.2-2.6,9.5-2.6c-0.3-3.5,0.2-7,1.6-10.2c3-6.6,10.3-10,17.2-8.1
		c3.3,0.9,6.3,2.8,8.6,5.4c2.2-3.3,5.4-5.9,9.1-7.3c6.8-2.4,14.3,0.5,17.8,6.8c1.7,3.1,2.5,6.5,2.4,10c3.4-0.3,6.7,0.3,9.8,1.7
		c6.5,3.3,9.7,10.7,7.8,17.8c-0.9,3.2-2.5,6.1-4.8,8.5c2.5,2.1,4.3,4.9,5.3,8C-279.9,284.1-282.6,291.7-288.9,295.4z"/>
	<path class="st1" d="M-170.3,93.9c-2.8,1.7-6.1,2.6-9.4,2.6h-0.1c0.3,3.5-0.3,7-1.7,10.2c-2.4,5.2-7.6,8.6-13.4,8.6
		c-1.3,0-2.6-0.2-3.9-0.5c-3.3-1-6.3-2.8-8.6-5.4c-2.1,2.9-5.1,5.2-8.5,6.4c-1.6,0.5-3.2,0.8-4.9,0.8c-5.4-0.1-10.3-3-12.9-7.7
		c-1.6-2.9-2.4-6.2-2.4-9.5c-0.9,0.1-1.7,0.1-2.6,0.1c-2.8,0.1-5.5-0.6-8-1.8c-6.5-3.4-9.7-10.8-7.9-17.9c0.8-3.1,2.4-6,4.6-8.4
		c-2.3-2.1-4-4.8-5-7.7c-2.4-6.9,0.4-14.5,6.6-18.4c2.9-1.7,6.2-2.6,9.6-2.6c-0.3-3.5,0.3-7,1.7-10.2c3-6.6,10.3-10,17.2-8.1
		c3.3,0.9,6.3,2.8,8.6,5.4c2.2-3.3,5.4-5.9,9.1-7.3c6.8-2.4,14.3,0.5,17.8,6.8c1.7,3.1,2.5,6.5,2.4,10c3.4-0.3,6.7,0.3,9.8,1.7
		c6.5,3.3,9.7,10.7,7.8,17.8c-0.9,3.2-2.5,6.1-4.8,8.5c2.5,2.1,4.3,4.9,5.3,8C-161.4,82.2-164.1,89.9-170.3,93.9z"/>
	<path class="st1" d="M-135.2,320c-2.8,1.7-6.1,2.6-9.4,2.6h-0.1c0.3,3.5-0.3,7-1.7,10.2c-2.4,5.2-7.6,8.6-13.3,8.6
		c-1.3,0-2.6-0.2-3.9-0.5c-3.3-1-6.3-2.8-8.6-5.4c-2.1,2.9-5.1,5.2-8.5,6.4c-1.6,0.5-3.2,0.8-4.9,0.8c-5.4-0.1-10.3-3-12.9-7.7
		c-1.6-2.9-2.5-6.2-2.5-9.5c-0.9,0.1-1.7,0.1-2.6,0.1c-2.8,0.1-5.5-0.6-8-1.8c-6.5-3.4-9.7-10.8-7.8-17.9c0.8-3.1,2.4-6,4.6-8.4
		c-2.3-2.1-4-4.8-5-7.7c-2.4-6.9,0.4-14.5,6.6-18.4c2.9-1.7,6.2-2.6,9.5-2.6c-0.3-3.5,0.3-7,1.7-10.2c3-6.6,10.3-10,17.2-8.1
		c3.3,0.9,6.3,2.8,8.6,5.4c2.2-3.3,5.4-5.9,9.1-7.3c6.8-2.4,14.3,0.5,17.8,6.8c1.7,3.1,2.5,6.5,2.5,10c3.3-0.3,6.7,0.2,9.8,1.7
		c6.5,3.3,9.7,10.7,7.8,17.8c-0.9,3.2-2.5,6.1-4.8,8.5c2.5,2.1,4.3,4.9,5.3,8C-126.1,308.3-128.9,316.1-135.2,320z"/>
	<path class="st1" d="M-360.6,242.9c-2.4,1.4-5.1,2.1-7.8,2.1h-0.1c0.3,2.8-0.2,5.6-1.4,8.1c-2.1,4.2-6.5,6.9-11.2,6.8
		c-1.1,0-2.2-0.1-3.2-0.4c-2.7-0.8-5.2-2.2-7.2-4.2c-1.8,2.4-4.2,4.2-7.1,5.1c-1.3,0.4-2.7,0.6-4.1,0.6c-4.4,0-8.5-2.3-10.7-6.2
		c-1.4-2.3-2.1-4.9-2.1-7.6c-0.7,0.1-1.5,0.1-2.2,0.1c-2.3,0-4.5-0.5-6.6-1.4c-5.4-2.5-8.1-8.5-6.6-14.2c0.7-2.5,2-4.8,3.9-6.7
		c-1.9-1.7-3.3-3.8-4.3-6.2c-1.9-5.6,0.4-11.7,5.5-14.7c2.4-1.4,5.2-2.1,8-2.1c-0.3-2.8,0.1-5.6,1.4-8.1c2.6-5.3,8.7-8,14.4-6.4
		c2.8,0.8,5.3,2.3,7.2,4.4c1.8-2.7,4.5-4.8,7.6-5.8c5.6-1.9,11.7,0.3,14.8,5.4c1.4,2.4,2.1,5.2,2.1,8c2.8-0.4,5.7,0.1,8.2,1.4
		c5.3,2.5,8.1,8.5,6.6,14.1c-0.7,2.5-2.1,4.8-4,6.7c2,1.7,3.5,3.9,4.4,6.3C-353.1,233.9-355.5,240-360.6,242.9z"/>
	<path class="st1" d="M-169.4,230c-2.2,1.3-4.7,1.9-7.3,1.9h-0.1c0.3,2.6-0.1,5.2-1.3,7.6c-1.9,4-6,6.5-10.4,6.4c-1,0-2-0.1-3-0.4
		c-2.5-0.7-4.8-2.1-6.7-4c-1.7,2.2-4,3.9-6.7,4.9c-1.2,0.4-2.5,0.6-3.9,0.6c-4.1,0-8-2.2-10-5.8c-1.3-2.1-1.9-4.6-1.9-7.1
		c-0.7,0.1-1.4,0.1-2,0.1c-2.1,0-4.2-0.4-6.2-1.3c-5-2.4-7.6-8-6.2-13.4c0.6-2.4,1.9-4.6,3.7-6.3c-1.8-1.6-3.2-3.6-4-5.8
		c-1.8-5.2,0.4-10.9,5.1-13.7c2.3-1.3,4.8-2,7.5-1.9c-0.3-2.6,0.1-5.2,1.3-7.6c2.5-5,8.1-7.5,13.5-6c2.6,0.7,5,2.1,6.8,4.1
		c1.7-2.5,4.2-4.5,7.1-5.6c5.3-1.8,11.1,0.3,13.9,5.2c1.3,2.3,2,4.8,1.9,7.5c2.6-0.3,5.3,0.1,7.7,1.3c5,2.4,7.6,7.9,6.2,13.3
		c-0.6,2.4-1.9,4.6-3.7,6.3c1.9,1.6,3.3,3.6,4.1,5.9C-162.5,221.5-164.7,227.2-169.4,230z"/>
	<path class="st1" d="M-356.1,343.7c-2,1.1-4.4,1.7-6.7,1.7h-0.1c0.2,2.4-0.2,4.8-1.2,7c-1.8,3.6-5.5,5.9-9.5,5.9
		c-0.9,0-1.8-0.1-2.7-0.4c-2.3-0.6-4.5-1.9-6.2-3.6c-1.5,2-3.6,3.6-6,4.4c-1.1,0.4-2.3,0.5-3.5,0.5c-3.8,0-7.3-2-9.2-5.2
		c-1.1-2-1.7-4.3-1.6-6.6c-0.6,0.1-1.2,0.1-1.8,0.1c-1.9,0-3.9-0.4-5.7-1.2c-4.6-2.1-7-7.2-5.7-12.1c0.6-2.2,1.7-4.1,3.3-5.7
		c-1.6-1.4-2.8-3.3-3.6-5.3c-1.7-4.8,0.3-10,4.8-12.5c2.1-1.1,4.4-1.7,6.8-1.7c-0.2-2.4,0.2-4.8,1.2-6.9c2.3-4.5,7.4-6.8,12.2-5.5
		c2.4,0.6,4.5,1.9,6.2,3.7c1.6-2.2,3.9-4,6.4-5c4.8-1.7,10.1,0.3,12.6,4.6c1.3,2,1.8,4.4,1.7,6.8c2.4-0.2,4.8,0.2,7.1,1.2
		c4.6,2.1,7,7.2,5.6,12.1c-0.6,2.2-1.8,4.2-3.5,5.8c1.7,1.4,3,3.3,3.7,5.4C-349.8,336-351.8,341.1-356.1,343.7z"/>
	<path class="st1" d="M-336,432.7c-2.5,1.3-5.4,2-8.2,1.9h-0.1c0.3,2.7-0.2,5.4-1.4,7.9c-2.3,4.2-6.8,6.8-11.6,6.7
		c-1.1,0-2.2-0.1-3.3-0.4c-2.8-0.7-5.4-2.1-7.5-4.1c-1.9,2.3-4.5,4-7.3,5c-1.4,0.4-2.8,0.6-4.2,0.6c-4.5,0-8.7-2.2-11.2-5.9
		c-1.4-2.2-2.1-4.8-2.1-7.5c-0.8,0.1-1.5,0.2-2.3,0.1c-2.4,0.1-4.8-0.4-7-1.4c-5.5-2.6-8.4-8.2-6.8-13.8c0.7-2.5,2.2-4.7,4.1-6.4
		c-2-1.6-3.5-3.7-4.4-6c-2-5.4,0.4-11.3,5.8-14.3c2.5-1.3,5.4-2,8.2-1.9c-0.3-2.7,0.2-5.4,1.4-7.8c2.7-5.2,8.9-7.7,14.9-6.3
		c2.9,0.7,5.5,2.2,7.6,4.3c2-2.7,4.8-4.7,8-5.7c6.8-2.4,14.3,1.1,16.7,8c0.6,1.6,0.8,3.3,0.7,5c2.9-0.3,5.9,0.1,8.6,1.3
		c5.5,2.6,8.4,8.2,6.8,13.8c-0.7,2.5-2.2,4.8-4.1,6.6c2.1,1.6,3.7,3.7,4.6,6.2C-328.2,424-330.8,430.1-336,432.7z"/>
	<path class="st1" d="M-442,147.9c-2.3,1.3-4.8,2-7.5,2h-0.1c0.3,2.6-0.1,5.3-1.3,7.7c-2,4-6.1,6.5-10.6,6.5c-1,0-2.1-0.1-3.1-0.4
		c-2.6-0.7-5-2.1-6.8-4.1c-1.7,2.2-4,3.9-6.7,4.9c-1.2,0.4-2.5,0.6-3.9,0.6c-4.2,0-8.1-2.2-10.2-5.8c-1.3-2.2-2-4.7-1.9-7.2
		c-0.7,0.1-1.4,0.1-2.1,0.1c-2.2,0.1-4.3-0.4-6.3-1.4c-5.1-2.4-7.7-8.1-6.2-13.5c0.7-2.4,2-4.6,3.8-6.3c-1.8-1.6-3.2-3.6-4-5.9
		c-1.9-5.3,0.4-11.2,5.3-13.9c2.3-1.3,4.9-2,7.6-1.9c-0.3-2.6,0.1-5.3,1.3-7.7c2.5-5,8.2-7.6,13.6-6.2c2.6,0.7,5,2.1,6.8,4.1
		c1.8-2.6,4.3-4.5,7.2-5.5c5.3-1.9,11.2,0.3,14,5.2c1.3,2.3,2,4.9,1.9,7.6c2.7-0.3,5.4,0.1,7.9,1.3c5.1,2.3,7.7,8.1,6.2,13.5
		c-0.7,2.4-1.9,4.6-3.7,6.4c1.9,1.6,3.3,3.7,4.1,6C-434.9,139.3-437.2,145.1-442,147.9z"/>
	<path class="st1" d="M-323.3,355.8C-386.8,317.9-380.1,406.4-323.3,355.8"/>
	<path class="st1" d="M-323.7,356.3C-321.1,280.4-393.5,328-323.7,356.3"/>
	<path class="st1" d="M-323.9,355.9C-261.8,396.1-265.4,307.2-323.9,355.9"/>
	<path class="st1" d="M-323.9,355.6C-259.1,320-335.3,278.8-323.9,355.6"/>
	<path class="st1" d="M-323.3,355.8C-325.9,431.6-253.3,384.1-323.3,355.8"/>
	<path class="st1" d="M-323.3,355.9C-388,391.5-312,432.7-323.3,355.9"/>
	<path class="st1" d="M-352.5,104.3C-320.3,103.4-336.2,75.3-352.5,104.3"/>
	<path class="st1" d="M-352.5,104.3C-337.2,74.9-368.6,75.2-352.5,104.3"/>
	<path class="st1" d="M-352.4,104.4C-335.5,132.7-320.1,104.4-352.4,104.4"/>
	<path class="st1" d="M-352.5,104.3C-384.6,105.2-368.7,133.2-352.5,104.3"/>
	<path class="st1" d="M-352.5,104.4C-367.7,133.6-336.4,133.4-352.5,104.4"/>
	<path class="st1" d="M-352.5,104.3C-369.3,76-384.8,104.2-352.5,104.3"/>
	<path class="st1" d="M-407.2,277C-365.5,251-406.5,226.3-407.2,277"/>
	<path class="st1" d="M-407.2,277C-408,226.6-449.4,251.2-407.2,277"/>
	<path class="st1" d="M-407,277.2C-364.4,301.5-364.3,252.2-407,277.2"/>
	<path class="st1" d="M-407.2,277C-448.8,303.1-407.8,327.7-407.2,277"/>
	<path class="st1" d="M-407,277.2C-406.1,327.6-365,303-407,277.2"/>
	<path class="st1" d="M-407.2,277C-449.9,252.7-449.9,301.9-407.2,277"/>
	<path class="st1" d="M-165.8,102C-206.7,88.7-183.5,62.2-165.8,102z"/>
	<path class="st1" d="M-162.5,99.1C-182.4,59.8-147.8,58.2-162.5,99.1z"/>
	<path class="st1" d="M-166.7,103.6C-204.7,124.2-206.4,88.5-166.7,103.6z"/>
	<path class="st1" d="M-158.4,106.7C-117.1,118.7-139.6,145.8-158.4,106.7z"/>
	<path class="st1" d="M-159.3,101.6C-146.4,59.1-120.8,83.3-159.3,101.6z"/>
	<path class="st1" d="M-158.3,103.3C-120.3,82.7-118.6,118.4-158.3,103.3z"/>
	<path class="st1" d="M-162.4,107.4C-142.6,146.7-177,148.4-162.4,107.4z"/>
	<path class="st1" d="M-165.7,105.6C-178.6,147.9-204.2,123.8-165.7,105.6z"/>
	<circle class="st2" cx="-383.2" cy="326" r="3"/>
	<path class="st2" d="M-378.3,323.7c17.4-22.9,27.9,2.1,0.6,0.8C-378.7,324.4-378.3,323.7-378.3,323.7z"/>
	<path class="st2" d="M-381.4,321.2c-3.3-29,21.1-19,1,0.1C-381.2,321.9-381.4,321.2-381.4,321.2z"/>
	<path class="st2" d="M-386.1,322.1c-22.1-18,1.9-29,0.8-0.6C-385.4,322.4-386.1,322.1-386.1,322.1z"/>
	<path class="st2" d="M-388.5,325.1c-27.9,3.5-18.4-21.9,0.1-1C-387.7,325-388.5,325.1-388.5,325.1z"/>
	<path class="st2" d="M-388.3,328.6c-17.4,22.9-27.9-2.1-0.6-0.8C-387.9,327.9-388.3,328.6-388.3,328.6z"/>
	<path class="st2" d="M-377.9,327.3c27.9-3.5,18.4,21.9-0.1,1C-378.7,327.5-377.9,327.3-377.9,327.3z"/>
	<path class="st2" d="M-380.5,330.8c22.1,18-1.9,29-0.8,0.7C-381.2,330.3-380.5,330.8-380.5,330.8z"/>
	<path class="st2" d="M-384.7,330.9c3.3,28.9-21.1,19-1-0.1C-384.9,330-384.7,330.9-384.7,330.9z"/>
	<ellipse class="st2" cx="-200.6" cy="211.1" rx="3.7" ry="3.9"/>
	<path class="st2" d="M-194.3,208.1c22-29.1,35.4,2.6,0.8,1C-194.7,209.1-194.3,208.1-194.3,208.1z"/>
	<path class="st2" d="M-198.1,204.9c-4.2-36.7,26.8-24.1,1.3,0.1C-197.9,205.9-198.1,204.9-198.1,204.9z"/>
	<path class="st2" d="M-204,205.9c-28-22.8,2.6-36.7,0.9-0.8C-203.3,206.5-204,205.9-204,205.9z"/>
	<path class="st2" d="M-207.1,210c-35.4,4.5-23.3-27.8,0.1-1.3C-206.2,209.8-207.1,210-207.1,210z"/>
	<path class="st2" d="M-206.9,214.3c-22,29.1-35.4-2.6-0.8-1C-206.4,213.4-206.9,214.3-206.9,214.3z"/>
	<path class="st2" d="M-193.9,212.7c35.4-4.5,23.3,27.8-0.1,1.3C-194.9,213-193.9,212.7-193.9,212.7z"/>
	<path class="st2" d="M-197,217.1c28,22.8-2.6,36.7-0.9,0.8C-197.9,216.6-197,217.1-197,217.1z"/>
	<path class="st2" d="M-202.4,217.2c4.2,36.7-26.8,24.1-1.3-0.1C-202.6,216.2-202.4,217.2-202.4,217.2z"/>
	<ellipse class="st2" cx="-371.4" cy="413.3" rx="3.7" ry="3.9"/>
	<path class="st2" d="M-365,410.4c22.4-29.6,35.9,2.7,0.8,1C-365.5,411.4-365,410.4-365,410.4z"/>
	<path class="st2" d="M-368.9,407c-4.4-37.3,27.3-24.4,1.3,0.1C-368.7,408-368.9,407-368.9,407z"/>
	<path class="st2" d="M-374.9,408.2c-28.5-23.1,2.6-37.2,0.9-0.9C-374,408.7-374.9,408.2-374.9,408.2z"/>
	<path class="st2" d="M-378.1,412.3c-36,4.5-23.7-28.2,0.1-1.3C-377,412-378.1,412.3-378.1,412.3z"/>
	<path class="st2" d="M-377.7,416.7c-22.4,29.6-35.9-2.7-0.8-1C-377.2,415.8-377.7,416.7-377.7,416.7z"/>
	<path class="st2" d="M-364.6,415c36-4.5,23.7,28.2-0.1,1.3C-365.6,415.3-364.6,415-364.6,415z"/>
	<path class="st2" d="M-367.7,419.5c28.6,23.2-2.6,37.2-0.9,0.9C-368.6,419-367.7,419.5-367.7,419.5z"/>
	<path class="st2" d="M-373.2,419.6c4.4,37.3-27.3,24.4-1.3-0.1C-373.4,418.6-373.2,419.6-373.2,419.6z"/>
	<ellipse class="st2" cx="-393.5" cy="223.9" rx="3.6" ry="3.7"/>
	<path class="st2" d="M-387.4,221.1c21.2-27.9,34.1,2.4,0.8,0.9C-387.9,222-387.4,221.1-387.4,221.1z"/>
	<path class="st2" d="M-391.2,217.9c-4.1-35.2,25.7-23.2,1.1,0.1C-390.9,218.9-391.2,217.9-391.2,217.9z"/>
	<path class="st2" d="M-396.9,219c-27-21.9,2.4-35.2,0.9-0.8C-396,219.5-396.9,219-396.9,219z"/>
	<path class="st2" d="M-399.8,222.9c-34.1,4.3-22.4-26.6,0.1-1.3C-398.7,222.6-399.8,222.9-399.8,222.9z"/>
	<path class="st2" d="M-399.6,227c-21.2,27.9-34.1-2.4-0.8-0.9C-399,226.1-399.6,227-399.6,227z"/>
	<path class="st2" d="M-387,225.4c34.1-4.2,22.4,26.6-0.1,1.3C-388,225.7-387,225.4-387,225.4z"/>
	<path class="st2" d="M-390,229.7c27,21.9-2.4,35.2-0.9,0.8C-390.9,229.2-390,229.7-390,229.7z"/>
	<path class="st2" d="M-395.2,229.9c4.1,35.2-25.7,23.1-1.2-0.1C-395.4,228.8-395.2,229.9-395.2,229.9z"/>
	<ellipse class="st1" cx="-155.4" cy="177.9" rx="3.5" ry="3.6"/>
	<path class="st1" d="M-153.5,174.6c8.9-33.4,31.5-11.1,1,0.5C-153.6,175.7-153.5,174.6-153.5,174.6z"/>
	<path class="st1" d="M-155.7,174.1c-16.6-30.1,14.7-30.9,1.2-0.4C-155,174.9-155.7,174.1-155.7,174.1z"/>
	<path class="st1" d="M-157.9,175.5c-32.3-9.1-10.7-32.7,0.5-1C-156.8,175.7-157.9,175.5-157.9,175.5z"/>
	<path class="st1" d="M-159.2,178.5c-29.1,17.2-29.8-15.2-0.4-1.2C-158.4,177.9-159.2,178.5-159.2,178.5z"/>
	<path class="st1" d="M-157,180.9c-8.9,33.4-31.5,11.1-1-0.5C-156.8,179.9-157,180.9-157,180.9z"/>
	<path class="st1" d="M-151.9,176.9c29.1-17.2,29.9,15.2,0.4,1.2C-152.7,177.5-151.9,176.9-151.9,176.9z"/>
	<path class="st1" d="M-152.1,180.2c32.3,9.1,10.7,32.7-0.5,1C-153,180.1-152.1,180.2-152.1,180.2z"/>
	<path class="st1" d="M-154.4,181.2c16.6,30.1-14.7,30.9-1.2,0.4C-155,180.4-154.4,181.2-154.4,181.2z"/>
	<path class="st1" d="M-324.7,195.9C-385.1,159.9-378.7,244-324.7,195.9"/>
	<path class="st1" d="M-324.7,196.3C-322.3,124.3-391,169.4-324.7,196.3"/>
	<path class="st1" d="M-325,195.9C-266,234.1-269.4,149.8-325,195.9"/>
	<path class="st1" d="M-324.8,195.7C-263.5,161.9-335.6,122.8-324.8,195.7"/>
	<path class="st1" d="M-324.8,195.7C-327.3,267.7-258.4,222.6-324.8,195.7"/>
	<path class="st1" d="M-324.8,195.9C-386.2,229.7-314,268.8-324.8,195.9"/>
	<path class="st1" d="M-390.6,146.6C-411.1,100.8-440.2,151.5-390.6,146.6"/>
	<path class="st1" d="M-390.7,146.9C-361.4,106.7-418.2,103.9-390.7,146.9"/>
	<path class="st1" d="M-390.8,146.5C-371.9,192.9-341,143.4-390.8,146.5"/>
	<path class="st1" d="M-390.7,146.5C-342.3,152.8-368.4,100.3-390.7,146.5"/>
	<path class="st1" d="M-390.7,146.5C-420,186.6-363.2,189.6-390.7,146.5"/>
	<path class="st1" d="M-390.7,146.6C-438.9,140.3-412.9,192.8-390.7,146.6"/>
	<path class="st1" d="M-250.2,256.7C-301.4,226.2-296,297.6-250.2,256.7"/>
	<path class="st1" d="M-250.1,257.1C-248.1,195.9-306.4,234.3-250.1,257.1"/>
	<path class="st1" d="M-250.3,256.9C-200.2,289.3-203,217.6-250.3,256.9"/>
	<path class="st1" d="M-250.2,256.6C-198,227.9-259.4,194.7-250.2,256.6"/>
	<path class="st1" d="M-250.2,256.7C-252.3,317.9-193.8,279.5-250.2,256.7"/>
	<path class="st1" d="M-250.2,256.9C-302.4,285.5-241.1,318.9-250.2,256.9"/>
	<path class="st1" d="M-273.6,152.1C-316.8,126.3-312.3,186.6-273.6,152.1"/>
	<path class="st1" d="M-273.5,152.4C-271.7,100.7-321.1,133.1-273.5,152.4"/>
	<path class="st1" d="M-273.7,152.1C-231.3,179.5-233.7,119.1-273.7,152.1"/>
	<path class="st1" d="M-273.6,152C-229.5,127.7-281.3,99.7-273.6,152"/>
	<path class="st1" d="M-273.6,152C-275.3,203.7-225.9,171.3-273.6,152"/>
	<path class="st1" d="M-273.6,152.1C-317.8,176.4-265.9,204.5-273.6,152.1"/>
	<path class="st1" d="M-267.5,203.2C-230.5,180.2-266.9,158.4-267.5,203.2"/>
	<path class="st1" d="M-267.5,203.2C-268.4,158.6-304.8,180.3-267.5,203.2"/>
	<path class="st1" d="M-267.3,203.3C-229.6,224.8-229.5,181.3-267.3,203.3"/>
	<path class="st1" d="M-267.5,203.2C-304.4,226.2-268,248.1-267.5,203.2"/>
	<path class="st1" d="M-267.5,203.3C-266.6,248-230.2,226.2-267.5,203.3"/>
	<path class="st1" d="M-267.6,203.2C-305.3,181.6-305.3,225.2-267.6,203.2"/>
	<path class="st1" d="M-323.2,133.4C-281.5,107.4-322.6,82.7-323.2,133.4"/>
	<path class="st1" d="M-323.3,133.4C-324.2,83.1-365.5,107.5-323.3,133.4"/>
	<path class="st1" d="M-323.2,133.5C-280.6,157.8-280.4,108.7-323.2,133.5"/>
	<path class="st1" d="M-323.3,133.5C-365,159.5-323.8,184-323.3,133.5"/>
	<path class="st1" d="M-323.2,133.5C-322.3,183.9-281.1,159.3-323.2,133.5"/>
	<path class="st1" d="M-323.3,133.4C-365.9,109-366,158.2-323.3,133.4"/>
	<path class="st1" d="M-226.7,338.8C-185,312.8-226,288.1-226.7,338.8"/>
	<path class="st1" d="M-226.7,338.8C-227.6,288.3-268.9,312.9-226.7,338.8"/>
	<path class="st1" d="M-226.5,338.8C-184,363.2-183.8,314-226.5,338.8"/>
	<path class="st1" d="M-226.7,338.8C-268.4,364.8-227.2,389.5-226.7,338.8"/>
	<path class="st1" d="M-226.5,338.9C-225.7,389.2-184.5,364.8-226.5,338.9"/>
	<path class="st1" d="M-226.7,338.8C-269.3,314.3-269.4,363.6-226.7,338.8"/>
	<path class="st1" d="M-440.2,175.7C-382.2,174-410.9,123.4-440.2,175.7"/>
	<path class="st1" d="M-440.3,175.5C-412.7,122.8-469.4,123.2-440.3,175.5"/>
	<path class="st1" d="M-440.2,175.8C-409.7,226.9-381.8,175.9-440.2,175.8"/>
	<path class="st1" d="M-440.3,175.7C-498.3,177.3-469.7,227.9-440.3,175.7"/>
	<path class="st1" d="M-440.2,175.8C-467.9,228.7-411.1,228.3-440.2,175.8"/>
	<path class="st1" d="M-440.3,175.5C-470.7,124.4-498.7,175.4-440.3,175.5"/>
	<path class="st1" d="M-524.1,185.1C-477.4,183.8-500.5,143-524.1,185.1"/>
	<path class="st1" d="M-524.2,185.1C-502,142.5-547.6,142.7-524.2,185.1"/>
	<path class="st1" d="M-524.1,185.2C-499.5,226.4-477,185.3-524.1,185.2"/>
	<path class="st1" d="M-524.2,185.1C-570.9,186.5-547.9,227.3-524.2,185.1"/>
	<path class="st1" d="M-524.2,185.2C-546.5,227.8-500.7,227.5-524.2,185.2"/>
	<path class="st1" d="M-524.2,185.1C-548.7,143.8-571.3,184.9-524.2,185.1"/>
	<path class="st1" d="M-272,316.3C-225.1,315-248.3,274.2-272,316.3"/>
	<path class="st1" d="M-272,316.1C-249.7,273.7-295.4,274-272,316.1"/>
	<path class="st1" d="M-271.8,316.4C-247.4,357.6-224.8,316.5-271.8,316.4"/>
	<path class="st1" d="M-272,316.3C-318.8,317.5-295.6,358.3-272,316.3"/>
	<path class="st1" d="M-272,316.4C-294.2,359-248.5,358.6-272,316.4"/>
	<path class="st1" d="M-272,316.1C-296.5,275-319,316.1-272,316.1"/>
	<path class="st1" d="M-353.4,32.8C-306.7,31.4-329.8-9.4-353.4,32.8"/>
	<path class="st1" d="M-353.5,32.6C-331.3-9.9-376.9-9.6-353.5,32.6"/>
	<path class="st1" d="M-353.4,32.8C-328.8,74.1-306.3,32.9-353.4,32.8"/>
	<path class="st1" d="M-353.5,32.6C-400.2,34-377.2,74.8-353.5,32.6"/>
	<path class="st1" d="M-353.5,32.9C-375.8,75.4-330,75.1-353.5,32.9"/>
	<path class="st1" d="M-353.5,32.6C-378-8.5-400.6,32.5-353.5,32.6"/>
	<path class="st1" d="M-468.6,230.5C-489.2,184.8-518.3,235.5-468.6,230.5"/>
	<path class="st1" d="M-468.7,230.9C-439.4,190.7-496.3,187.8-468.7,230.9"/>
	<path class="st1" d="M-468.9,230.5C-450,276.9-419.1,227.4-468.9,230.5"/>
	<path class="st1" d="M-468.7,230.3C-420.4,236.6-446.5,184.3-468.7,230.3"/>
	<path class="st1" d="M-468.7,230.5C-498.1,270.6-441.2,273.6-468.7,230.5"/>
	<path class="st1" d="M-468.7,230.6C-517,224.3-491,276.6-468.7,230.6"/>
	<path class="st1" d="M-523.4,262.5C-485.1,261.5-504,227.9-523.4,262.5"/>
	<path class="st1" d="M-523.6,262.5C-505.3,227.4-542.9,227.6-523.6,262.5"/>
	<path class="st1" d="M-523.4,262.6C-503.2,296.5-484.7,262.6-523.4,262.6"/>
	<path class="st1" d="M-523.6,262.5C-562,263.7-543,297.1-523.6,262.5"/>
	<path class="st1" d="M-523.6,262.6C-541.8,297.6-504.3,297.4-523.6,262.6"/>
	<path class="st1" d="M-523.6,262.5C-543.8,228.5-562.3,262.4-523.6,262.5"/>
	<path class="st1" d="M-277.2,70.4C-247,51.7-276.7,33.7-277.2,70.4"/>
	<path class="st1" d="M-277.2,70.4C-277.9,33.9-307.8,51.7-277.2,70.4"/>
	<path class="st1" d="M-277.1,70.4C-246.2,88.2-246.1,52.5-277.1,70.4"/>
	<path class="st1" d="M-277.2,70.4C-307.5,89.4-277.6,107.2-277.2,70.4"/>
	<path class="st1" d="M-277.1,70.6C-276.5,107.1-246.6,89.4-277.1,70.6"/>
	<path class="st1" d="M-277.2,70.4C-308.1,52.8-308.2,88.4-277.2,70.4"/>
	<path class="st1" d="M-289.1,30.6C-309.5-15.1-338.6,35.6-289.1,30.6"/>
	<path class="st1" d="M-289.1,31C-259.7-9.2-316.6-12.1-289.1,31"/>
	<path class="st1" d="M-289.2,30.6C-270.3,77-239.4,27.5-289.2,30.6"/>
	<path class="st1" d="M-289.1,30.5C-240.7,36.8-266.8-15.6-289.1,30.5"/>
	<path class="st1" d="M-289.1,30.6C-318.4,70.7-261.5,73.6-289.1,30.6"/>
	<path class="st1" d="M-289.1,30.7C-337.3,24.4-311.3,76.8-289.1,30.7"/>
	<path class="st1" d="M-414.5,83.4C-467.9,63.1-435.5,29.7-414.5,83.4z"/>
	<path class="st1" d="M-410,80C-433.9,26.6-388.1,26.6-410,80z"/>
	<path class="st1" d="M-415.7,85.6C-467.3,110.3-467.3,63-415.7,85.6z"/>
	<path class="st1" d="M-405.1,90.3C-351.1,108.7-382.5,143.3-405.1,90.3z"/>
	<path class="st1" d="M-405.9,83.3C-386.3,28.1-353.9,61.7-405.9,83.3z"/>
	<path class="st1" d="M-404.6,85.5C-353,60.8-353.1,108.3-404.6,85.5z"/>
	<path class="st1" d="M-410.4,90.9C-386.4,144.3-432.2,144.1-410.4,90.9z"/>
	<path class="st1" d="M-414.6,88.2C-434.2,143.5-466.6,109.8-414.6,88.2z"/>
	<path class="st1" d="M-269.7,383.5C-297.3,374.7-281.6,356.8-269.7,383.5z"/>
	<path class="st1" d="M-267.6,381.7C-281,355.2-257.7,354.1-267.6,381.7z"/>
	<path class="st1" d="M-270.4,384.7C-296,398.6-297,374.5-270.4,384.7z"/>
	<path class="st1" d="M-264.7,386.8C-236.9,394.8-252.1,413.1-264.7,386.8z"/>
	<path class="st1" d="M-265.4,383.3C-256.8,354.7-239.5,370.9-265.4,383.3z"/>
	<path class="st1" d="M-264.6,384.4C-239,370.5-238,394.6-264.6,384.4z"/>
	<path class="st1" d="M-267.5,387.3C-254.1,413.8-277.4,414.9-267.5,387.3z"/>
	<path class="st1" d="M-269.7,386C-278.3,414.5-295.7,398.3-269.7,386z"/>
	<path class="st1" d="M-269,111.7C-297.2,102.6-281.1,84.3-269,111.7z"/>
	<path class="st1" d="M-266.7,109.9C-280.4,82.9-256.7,81.7-266.7,109.9z"/>
	<path class="st1" d="M-269.7,112.9C-295.8,127-296.9,102.4-269.7,112.9z"/>
	<path class="st1" d="M-263.9,115C-235.6,123.2-251,142-263.9,115z"/>
	<path class="st1" d="M-264.5,111.5C-255.6,82.3-238.1,98.9-264.5,111.5z"/>
	<path class="st1" d="M-263.7,112.5C-237.6,98.4-236.6,123.1-263.7,112.5z"/>
	<path class="st1" d="M-266.7,115.5C-252.9,142.5-276.7,143.6-266.7,115.5z"/>
	<path class="st1" d="M-268.9,114.2C-277.8,143.4-295.4,126.8-268.9,114.2z"/>
	<ellipse class="st1" cx="-297.4" cy="425.6" rx="3.2" ry="3.3"/>
	<path class="st1" d="M-295.6,422.5c8.4-31.6,29.8-10.5,1,0.5C-295.7,423.6-295.6,422.5-295.6,422.5z"/>
	<path class="st1" d="M-297.7,422c-15.7-28.6,14-29.3,1-0.4C-297,422.8-297.7,422-297.7,422z"/>
	<path class="st1" d="M-299.2,423.4c-30.6-8.6-10.2-30.9,0.5-1C-298.3,423.6-299.2,423.4-299.2,423.4z"/>
	<path class="st1" d="M-300.5,426.1c-27.5,16.3-28.3-14.4-0.4-1C-299.7,425.6-300.5,426.1-300.5,426.1z"/>
	<path class="st1" d="M-298.3,428.5c-8.4,31.6-29.8,10.5-1-0.5C-298.2,427.5-298.3,428.5-298.3,428.5z"/>
	<path class="st1" d="M-294.1,424.6c27.5-16.3,28.3,14.4,0.4,1C-294.9,425.1-294.1,424.6-294.1,424.6z"/>
	<path class="st1" d="M-294.2,427.7c30.6,8.6,10.2,30.9-0.5,1C-295.1,427.5-294.2,427.7-294.2,427.7z"/>
	<path class="st1" d="M-296.4,428.9c15.7,28.6-14,29.3-1,0.4C-296.9,428.1-296.4,428.9-296.4,428.9z"/>
	<ellipse class="st1" cx="-321.1" cy="69.4" rx="4.2" ry="4.4"/>
	<path class="st1" d="M-318.7,65.6c10.8-40.8,38.5-13.5,1.3,0.7C-318.9,66.7-318.7,65.6-318.7,65.6z"/>
	<path class="st1" d="M-321.4,64.8c-20.3-36.8,18-37.7,1.3-0.5C-320.7,65.9-321.4,64.8-321.4,64.8z"/>
	<path class="st1" d="M-324.1,66.7c-39.5-11.2-13.1-39.9,0.6-1.3C-322.9,66.9-324.1,66.7-324.1,66.7z"/>
	<path class="st1" d="M-325.7,70.2c-35.5,21-36.4-18.7-0.4-1.4C-324.7,69.4-325.7,70.2-325.7,70.2z"/>
	<path class="st1" d="M-323,73.2c-10.8,40.8-38.5,13.5-1.3-0.6C-322.9,72-323,73.2-323,73.2z"/>
	<path class="st1" d="M-316.8,68.1c35.5-21,36.4,18.7,0.4,1.4C-317.7,68.9-316.8,68.1-316.8,68.1z"/>
	<path class="st1" d="M-317,72.3c39.5,11.2,13.1,39.9-0.7,1.3C-318.1,72-317,72.3-317,72.3z"/>
	<path class="st1" d="M-319.8,73.5c20.3,36.8-18,37.7-1.3,0.5C-320.6,72.6-319.8,73.5-319.8,73.5z"/>
	<path class="st1" d="M-452.4,273.3C-423,286.4-425.9,254.1-452.4,273.3"/>
	<path class="st1" d="M-452.4,273.2C-426.7,253.4-455.3,239.9-452.4,273.2"/>
	<path class="st1" d="M-452.4,273.4C-448.7,306.4-423.1,287.6-452.4,273.4"/>
	<path class="st1" d="M-452.4,273.3C-482,260.1-479.1,292.5-452.4,273.3"/>
	<path class="st1" d="M-452.6,273.3C-478.3,293.2-449.7,306.8-452.6,273.3"/>
	<path class="st1" d="M-452.4,273.2C-456.2,240.3-481.8,259-452.4,273.2"/>
	<ellipse class="st2" cx="-175.1" cy="296.3" rx="4.8" ry="4.9"/>
	<path class="st2" d="M-167,292.6c28.4-37.4,45.7,3.3,1,1.3C-167.6,293.8-167,292.6-167,292.6z"/>
	<path class="st2" d="M-172,288.4c-5.5-47.2,34.6-31,1.5,0.1C-171.7,289.6-172,288.4-172,288.4z"/>
	<path class="st2" d="M-179.7,289.8c-36.1-29.3,3.2-47.2,1.2-1C-178.6,290.4-179.7,289.8-179.7,289.8z"/>
	<path class="st2" d="M-183.6,294.9c-45.7,5.8-30-35.8,0.1-1.7C-182.3,294.7-183.6,294.9-183.6,294.9z"/>
	<path class="st2" d="M-183.2,300.6c-28.4,37.4-45.7-3.3-1-1.3C-182.6,299.4-183.2,300.6-183.2,300.6z"/>
	<path class="st2" d="M-166.5,298.4c45.7-5.8,30,35.8-0.1,1.7C-167.7,298.8-166.5,298.4-166.5,298.4z"/>
	<path class="st2" d="M-170.6,304c36.1,29.3-3.2,47.2-1.2,1C-171.6,303.4-170.6,304-170.6,304z"/>
	<path class="st2" d="M-177.4,304.3c5.5,47.2-34.6,31-1.5-0.1C-177.8,302.9-177.4,304.3-177.4,304.3z"/>
	<ellipse class="st2" cx="-209.8" cy="68.9" rx="4.8" ry="4.9"/>
	<path class="st2" d="M-201.7,65.2c28.4-37.4,45.7,3.3,1,1.3C-202.4,66.3-201.7,65.2-201.7,65.2z"/>
	<path class="st2" d="M-206.7,60.9c-5.5-47.2,34.6-31,1.5,0.1C-206.5,62.2-206.7,60.9-206.7,60.9z"/>
	<path class="st2" d="M-214.5,62.5c-36.1-29.3,3.2-47.2,1.2-1C-213.3,63.1-214.5,62.5-214.5,62.5z"/>
	<path class="st2" d="M-218.3,67.6c-45.7,5.8-30-35.8,0.1-1.7C-217,67.2-218.3,67.6-218.3,67.6z"/>
	<path class="st2" d="M-218.1,73.2c-28.4,37.4-45.7-3.3-1-1.3C-217.3,72-218.1,73.2-218.1,73.2z"/>
	<path class="st2" d="M-201.2,71.1c45.7-5.8,30,35.8-0.1,1.7C-202.5,71.3-201.2,71.1-201.2,71.1z"/>
	<path class="st2" d="M-205.3,76.8c36.1,29.3-3.2,47.2-1.2,1C-206.5,76.1-205.3,76.8-205.3,76.8z"/>
	<path class="st2" d="M-212.3,76.9c5.5,47.2-34.6,31-1.5-0.1C-212.5,75.6-212.3,76.9-212.3,76.9z"/>
	<path class="st1" d="M-489.5,58C-553,20-546.5,108.7-489.5,58"/>
	<path class="st1" d="M-489.4,58.4C-486.8-17.4-559.4,30.1-489.4,58.4"/>
	<path class="st1" d="M-489.7,58C-427.5,98.2-431.1,9.5-489.7,58"/>
	<path class="st1" d="M-489.6,57.9C-424.9,22.2-500.9-19.1-489.6,57.9"/>
	<path class="st1" d="M-489.6,58C-492,133.9-419.6,86.1-489.6,58"/>
	<path class="st1" d="M-489.5,58C-554.3,93.7-478.2,134.9-489.5,58"/>
	<path class="st1" d="M-431.5,25.4C-401.2,6.4-431.1-11.4-431.5,25.4"/>
	<path class="st1" d="M-431.6,25.4C-432.2-11.2-462.1,6.6-431.6,25.4"/>
	<path class="st1" d="M-431.5,25.4C-400.5,43-400.5,7.4-431.5,25.4"/>
	<path class="st1" d="M-431.6,25.4C-461.8,44.1-432,62.1-431.6,25.4"/>
	<path class="st1" d="M-431.5,25.4C-430.8,61.9-400.9,44.1-431.5,25.4"/>
	<path class="st1" d="M-431.6,25.4C-462.5,7.6-462.5,43.4-431.6,25.4"/>
	<path class="st1" d="M-526.2,115.6C-541.3,110.7-532.7,100.9-526.2,115.6z"/>
	<path class="st1" d="M-525,114.5C-532.4,100-519.5,99.4-525,114.5z"/>
	<path class="st1" d="M-526.5,116.3C-540.6,123.9-541.2,110.6-526.5,116.3z"/>
	<path class="st1" d="M-523.4,117.4C-508.2,121.8-516.5,131.9-523.4,117.4z"/>
	<path class="st1" d="M-523.8,115.5C-519,99.7-509.5,108.7-523.8,115.5z"/>
	<path class="st1" d="M-522.2,116C-496.5,102.2-495.4,126.3-522.2,116z"/>
	<path class="st1" d="M-524.9,117.6C-517.6,132.2-530.4,132.8-524.9,117.6z"/>
	<path class="st1" d="M-526.2,117C-530.9,132.6-540.4,123.7-526.2,117z"/>
	<path class="st1" d="M-171.6,21.6C-199.3,12.8-183.6-5.1-171.6,21.6z"/>
	<path class="st1" d="M-169.4,19.7C-182.8-6.7-159.7-7.8-169.4,19.7z"/>
	<path class="st1" d="M-172.3,22.8C-197.9,36.7-199,12.6-172.3,22.8z"/>
	<path class="st1" d="M-166.7,24.9C-138.8,32.9-154,51.2-166.7,24.9z"/>
	<path class="st1" d="M-167.3,21.4C-158.7-7.2-141.4,9-167.3,21.4z"/>
	<path class="st1" d="M-166.6,22.5C-141,8.7-139.9,32.7-166.6,22.5z"/>
	<path class="st1" d="M-169.3,25.4C-155.9,51.9-179.2,52.9-169.3,25.4z"/>
	<path class="st1" d="M-171.6,24.1C-180.3,52.6-197.5,36.4-171.6,24.1z"/>
	<path class="st1" d="M-179.6,392.5C-243.3,354.6-236.6,443.2-179.6,392.5"/>
	<path class="st1" d="M-179.5,392.9C-176.9,317-249.5,364.6-179.5,392.9"/>
	<path class="st1" d="M-179.9,392.5C-117.7,432.8-121.2,344-179.9,392.5"/>
	<path class="st1" d="M-179.7,392.4C-115,356.7-191.1,315.5-179.7,392.4"/>
	<path class="st1" d="M-179.7,392.5C-182.3,468.3-109.7,420.7-179.7,392.5"/>
	<path class="st1" d="M-179.7,392.5C-244.4,428.2-168.4,469.5-179.7,392.5"/>
	<path class="st1" d="M-454.6,336C-508,315.8-475.5,282.2-454.6,336z"/>
	<path class="st1" d="M-450.1,332.5C-474,279.1-428.1,279.2-450.1,332.5z"/>
	<path class="st1" d="M-455.9,338.1C-507.5,363-507.4,315.5-455.9,338.1z"/>
	<path class="st1" d="M-445.1,342.8C-391.2,361.3-422.6,395.8-445.1,342.8z"/>
	<path class="st1" d="M-445.9,335.9C-426.3,280.7-394,314.3-445.9,335.9z"/>
	<path class="st1" d="M-444.7,338.1C-393.2,313.4-393.2,360.8-444.7,338.1z"/>
	<path class="st1" d="M-450.4,343.4C-426.4,396.8-472.4,396.8-450.4,343.4z"/>
	<path class="st1" d="M-454.7,340.7C-474.3,396-506.7,362.3-454.7,340.7z"/>
	<path class="st1" d="M-444.6,404.6C-402.9,378.6-443.9,354-444.6,404.6"/>
	<path class="st1" d="M-444.6,404.5C-445.6,354.2-486.8,378.8-444.6,404.5"/>
	<path class="st1" d="M-443.9,404.6C-401.4,429.1-401.2,379.8-443.9,404.6"/>
	<path class="st1" d="M-444.1,404.6C-485.7,430.6-444.7,455.3-444.1,404.6"/>
	<path class="st1" d="M-443.9,404.8C-443,455.1-401.9,430.6-443.9,404.8"/>
	<path class="st1" d="M-444.1,404.6C-486.8,380.2-486.8,429.5-444.1,404.6"/>
	<circle class="st1" cx="-536.3" cy="311.8" r="3"/>
	<path class="st1" d="M-531.3,309.6c17.4-22.9,27.9,2.1,0.7,0.8C-531.7,310.2-531.3,309.6-531.3,309.6z"/>
	<path class="st1" d="M-534.4,306.9c-3.3-28.9,21.1-19,1,0.1C-534.1,307.8-534.4,306.9-534.4,306.9z"/>
	<path class="st1" d="M-539,307.8c-22.1-18,1.9-28.9,0.8-0.6C-538.4,308.3-539,307.8-539,307.8z"/>
	<path class="st1" d="M-541.5,311c-27.9,3.5-18.4-21.9,0.1-1C-540.7,310.7-541.5,311-541.5,311z"/>
	<path class="st1" d="M-541.2,314.5c-17.4,22.9-27.9-2.1-0.6-0.8C-540.8,313.7-541.2,314.5-541.2,314.5z"/>
	<path class="st1" d="M-530.9,313c27.9-3.5,18.4,21.9-0.1,1C-531.8,313.3-530.9,313-530.9,313z"/>
	<path class="st1" d="M-533.5,316.6c22.1,18-1.9,29-0.8,0.6C-534.1,316.1-533.5,316.6-533.5,316.6z"/>
	<path class="st1" d="M-537.7,316.6c3.3,29-21.1,19-1-0.1C-537.9,315.9-537.7,316.6-537.7,316.6z"/>
	<path class="st1" d="M-513.5,363.1C-476.6,340.1-513,318.2-513.5,363.1"/>
	<path class="st1" d="M-513.7,363.1C-514.4,318.5-551,340.2-513.7,363.1"/>
	<path class="st1" d="M-513.4,363.1C-475.7,384.7-475.7,341.1-513.4,363.1"/>
	<path class="st1" d="M-513.7,363.1C-550.5,386.1-514,408-513.7,363.1"/>
	<path class="st1" d="M-513.5,363.2C-512.6,407.7-476.2,386.1-513.5,363.2"/>
	<path class="st1" d="M-513.7,363.1C-551.4,341.5-551.5,385.1-513.7,363.1"/>
	<ellipse class="st2" cx="-327.7" cy="271.4" rx="4.8" ry="4.9"/>
	<path class="st2" d="M-319.6,267.6c28.4-37.4,45.7,3.3,1,1.3C-320.2,268.8-319.6,267.6-319.6,267.6z"/>
	<path class="st2" d="M-324.6,263.4c-5.5-47.2,34.6-31,1.5,0.1C-324.3,264.7-324.6,263.4-324.6,263.4z"/>
	<path class="st2" d="M-332.3,264.9c-36.2-29.3,3.2-47.2,1.2-1C-331.1,265.6-332.3,264.9-332.3,264.9z"/>
	<path class="st2" d="M-336.3,270.1c-45.7,5.8-30-35.8,0.1-1.7C-334.9,269.7-336.3,270.1-336.3,270.1z"/>
	<path class="st2" d="M-335.9,275.6c-28.4,37.4-45.7-3.3-1-1.3C-335.1,274.5-335.9,275.6-335.9,275.6z"/>
	<path class="st2" d="M-319,273.6c45.7-5.8,30,35.8-0.1,1.7C-320.3,273.9-319,273.6-319,273.6z"/>
	<path class="st2" d="M-323.2,279.2c36.1,29.3-3.2,47.2-1.2,1C-324.3,278.5-323.2,279.2-323.2,279.2z"/>
	<path class="st2" d="M-330.1,279.4c5.5,47.2-34.6,31-1.6-0.1C-330.4,278.1-330.1,279.4-330.1,279.4z"/>
	<ellipse class="st2" cx="-473.1" cy="129.8" rx="3.6" ry="3.7"/>
	<path class="st2" d="M-467,126.9c21.5-28.3,34.5,2.6,0.8,0.9C-467.5,127.9-467,126.9-467,126.9z"/>
	<path class="st2" d="M-470.7,123.7c-4.2-35.8,26.1-23.4,1.2,0.2C-470.6,124.7-470.7,123.7-470.7,123.7z"/>
	<path class="st2" d="M-476.5,124.7c-27.4-22.1,2.4-35.6,0.9-0.8C-475.7,125.4-476.5,124.7-476.5,124.7z"/>
	<path class="st2" d="M-479.6,128.7c-34.6,4.4-22.6-27,0.1-1.3C-478.5,128.5-479.6,128.7-479.6,128.7z"/>
	<path class="st2" d="M-479.3,133c-21.5,28.3-34.5-2.6-0.8-0.9C-478.8,132.1-479.3,133-479.3,133z"/>
	<path class="st2" d="M-466.6,131.3c34.6-4.4,22.6,27-0.1,1.3C-467.5,131.6-466.6,131.3-466.6,131.3z"/>
	<path class="st2" d="M-469.7,135.7c27.4,22.3-2.4,35.8-0.9,0.8C-470.4,135.1-469.7,135.7-469.7,135.7z"/>
	<path class="st2" d="M-474.8,135.8c4.3,35.8-26.1,23.4-1.1-0.1C-475.1,134.8-474.8,135.8-474.8,135.8z"/>
	<circle class="st1" cx="-486.3" cy="427" r="3"/>
	<path class="st1" d="M-481.2,424.7c17.4-22.9,27.9,2,0.6,0.8C-481.6,425.5-481.2,424.7-481.2,424.7z"/>
	<path class="st1" d="M-484.3,422.1c-3.3-28.9,21.1-19,1,0.1C-484.2,422.9-484.3,422.1-484.3,422.1z"/>
	<path class="st1" d="M-489.1,423c-22.1-18,1.9-28.9,0.8-0.6C-488.3,423.4-489.1,423-489.1,423z"/>
	<path class="st1" d="M-491.4,426.3c-27.9,3.5-18.4-21.9,0.1-1C-490.6,426-491.4,426.3-491.4,426.3z"/>
	<path class="st1" d="M-491.2,429.6c-17.4,22.9-27.9-2-0.6-0.8C-490.9,429-491.2,429.6-491.2,429.6z"/>
	<path class="st1" d="M-481,428.3c27.9-3.5,18.4,21.9-0.1,1C-481.8,428.6-481,428.3-481,428.3z"/>
	<path class="st1" d="M-483.6,431.8c19.1,18-1.7,28.9-0.7,0.6C-484.2,431.4-483.6,431.8-483.6,431.8z"/>
	<path class="st1" d="M-487.7,431.9c3.3,28.9-21.1,19-1-0.1C-487.9,431.1-487.7,431.9-487.7,431.9z"/>
	<path class="st1" d="M-510.2,218.3C-538.4,209.1-522.4,191-510.2,218.3z"/>
	<path class="st1" d="M-508,216.4C-521.8,189.3-498,188.1-508,216.4z"/>
	<path class="st1" d="M-510.8,219.5C-537.1,233.7-538.1,209-510.8,219.5z"/>
	<path class="st1" d="M-505.2,221.6C-476.7,229.8-492.2,248.5-505.2,221.6z"/>
	<path class="st1" d="M-505.8,218C-496.9,188.9-479.3,205.5-505.8,218z"/>
	<path class="st1" d="M-505,219.1C-478.9,205-477.8,229.6-505,219.1z"/>
	<path class="st1" d="M-507.9,222.1C-494.2,249.1-518,250.3-507.9,222.1z"/>
	<path class="st1" d="M-510.2,220.9C-519.1,249.9-536.6,233.3-510.2,220.9z"/>
	<path class="st1" d="M-128.9,139.6C-92,116.6-128.4,94.8-128.9,139.6"/>
	<path class="st1" d="M-128.9,139.6C-129.8,94.9-166.2,116.7-128.9,139.6"/>
	<path class="st1" d="M-128.8,139.7C-91.1,161.2-91,117.7-128.8,139.7"/>
	<path class="st1" d="M-128.9,139.6C-165.9,162.6-129.5,184.4-128.9,139.6"/>
	<path class="st1" d="M-128.9,139.7C-128,184.3-91.7,162.6-128.9,139.7"/>
	<path class="st1" d="M-129.1,139.6C-166.8,117.9-166.8,161.6-129.1,139.6"/>
	<ellipse class="st1" cx="-549.6" cy="88.4" rx="3.2" ry="3.3"/>
	<path class="st1" d="M-547.7,85.3c8.4-31.7,29.8-10.6,1,0.5C-547.9,86.3-547.7,85.3-547.7,85.3z"/>
	<path class="st1" d="M-549.8,84.8c-15.7-28.5,14-29.3,1-0.4C-549.2,85.6-549.8,84.8-549.8,84.8z"/>
	<path class="st1" d="M-551.9,86.2c-30.6-8.6-10.2-30.9,0.5-1C-551,86.3-551.9,86.2-551.9,86.2z"/>
	<path class="st1" d="M-553.2,88.9c-27.5,16.3-28.3-14.4-0.4-1C-552.4,88.4-553.2,88.9-553.2,88.9z"/>
	<path class="st1" d="M-551,91.2c-8.4,31.7-29.8,10.6-1-0.5C-550.8,90.3-551,91.2-551,91.2z"/>
	<path class="st1" d="M-546.2,87.4c27.5-16.3,28.3,14.4,0.4,1C-547,87.9-546.2,87.4-546.2,87.4z"/>
	<path class="st1" d="M-546.3,90.4c30.6,8.6,10.2,30.9-0.5,1C-547.2,90.3-546.3,90.4-546.3,90.4z"/>
	<path class="st1" d="M-548.5,91.6c15.7,28.6-14,29.3-1,0.4C-549,90.9-548.5,91.6-548.5,91.6z"/>
	<ellipse class="st1" cx="-551.2" cy="367.5" rx="3.2" ry="3.3"/>
	<path class="st1" d="M-549.4,364.4c8.4-31.6,29.9-10.5,1,0.5C-549.5,365.4-549.4,364.4-549.4,364.4z"/>
	<path class="st1" d="M-551.5,363.9c-15.7-28.6,14-29.3,1-0.4C-550.8,364.6-551.5,363.9-551.5,363.9z"/>
	<path class="st1" d="M-553.5,365.3c-30.6-8.6-10.2-30.9,0.5-1C-552.6,365.4-553.5,365.3-553.5,365.3z"/>
	<path class="st1" d="M-554.8,368c-27.5,16.3-28.3-14.4-0.4-1C-554,367.5-554.8,368-554.8,368z"/>
	<path class="st1" d="M-552.6,370.3c-8.4,31.6-29.8,10.5-1-0.5C-552.5,369.4-552.6,370.3-552.6,370.3z"/>
	<path class="st1" d="M-547.9,366.4c27.5-16.3,28.3,14.4,0.4,1C-548.6,367-547.9,366.4-547.9,366.4z"/>
	<path class="st1" d="M-548,369.5c30.6,8.6,10.2,30.9-0.5,1C-548.9,369.4-548,369.5-548,369.5z"/>
	<path class="st1" d="M-550.2,370.7c15.7,28.5-14,29.3-1,0.4C-550.7,369.9-550.2,370.7-550.2,370.7z"/>
	<circle class="st1" cx="-115.3" cy="193.5" r="3"/>
	<path class="st1" d="M-110.3,191.3c17.4-22.9,27.9,2.1,0.6,0.8C-110.7,192-110.3,191.3-110.3,191.3z"/>
	<path class="st1" d="M-113.4,188.6c-3.4-28.9,21.1-19,1,0.1C-113.1,189.5-113.4,188.6-113.4,188.6z"/>
	<path class="st1" d="M-118,189.5c-22.1-18,1.9-28.9,0.8-0.6C-117.4,190-118,189.5-118,189.5z"/>
	<path class="st1" d="M-120.4,192.7c-27.9,3.5-18.4-21.9,0.1-1C-119.7,192.5-120.4,192.7-120.4,192.7z"/>
	<path class="st1" d="M-120.2,196.2c-17.4,22.9-27.9-2.1-0.6-0.8C-119.8,195.4-120.2,196.2-120.2,196.2z"/>
	<path class="st1" d="M-109.9,194.8c27.9-3.5,18.4,21.9-0.1,1C-110.8,195.1-109.9,194.8-109.9,194.8z"/>
	<path class="st1" d="M-112.5,198.4c22.1,18-1.9,28.9-0.8,0.6C-113.1,197.9-112.5,198.4-112.5,198.4z"/>
	<path class="st1" d="M-116.7,198.4c3.4,28.9-21.1,19-1-0.1C-116.8,197.6-116.7,198.4-116.7,198.4z"/>
	<circle class="st1" cx="-121.1" cy="351.8" r="3"/>
	<path class="st1" d="M-116,349.6c17.4-22.9,27.9,2.1,0.6,0.8C-116.4,350.3-116,349.6-116,349.6z"/>
	<path class="st1" d="M-119.1,346.9c-3.3-28.9,21.1-19,1,0.1C-118.9,347.9-119.1,346.9-119.1,346.9z"/>
	<path class="st1" d="M-123.7,347.9c-22.1-18,1.9-28.9,0.8-0.6C-123.1,348.4-123.7,347.9-123.7,347.9z"/>
	<path class="st1" d="M-126.2,351.1c-27.9,3.5-18.4-21.9,0.1-1C-125.4,350.8-126.2,351.1-126.2,351.1z"/>
	<path class="st1" d="M-126,354.5c-17.4,22.9-27.9-2.1-0.6-0.8C-125.6,353.8-126,354.5-126,354.5z"/>
	<path class="st1" d="M-115.7,353.1c27.9-3.5,18.4,21.9-0.1,1C-116.6,353.4-115.7,353.1-115.7,353.1z"/>
	<path class="st1" d="M-118.2,356.7c22.1,18-1.9,28.9-0.8,0.6C-118.9,356.2-118.2,356.7-118.2,356.7z"/>
	<path class="st1" d="M-122.5,356.7c3.3,28.9-21.1,19-1-0.1C-122.6,356-122.5,356.7-122.5,356.7z"/>
	<circle class="st1" cx="-572.6" cy="188.1" r="1.8"/>
	<path class="st1" d="M-569.7,186.7c10.2-13.5,16.4,1.2,0.4,0.4C-569.9,187.2-569.7,186.7-569.7,186.7z"/>
	<path class="st1" d="M-571.5,185.2c-2-17,12.4-11.2,0.6,0.1C-571.4,185.6-571.5,185.2-571.5,185.2z"/>
	<path class="st1" d="M-574.3,185.7c-13-10.6,1.1-17,0.4-0.4C-573.8,185.9-574.3,185.7-574.3,185.7z"/>
	<path class="st1" d="M-575.7,187.6c-16.5,2.1-10.9-12.9,0.1-0.6C-575.2,187.4-575.7,187.6-575.7,187.6z"/>
	<path class="st1" d="M-575.6,189.6c-10.2,13.5-16.5-1.2-0.4-0.4C-575.4,189.2-575.6,189.6-575.6,189.6z"/>
	<path class="st1" d="M-569.5,188.9c16.4-2.1,10.9,12.9-0.1,0.6C-570,189-569.5,188.9-569.5,188.9z"/>
	<path class="st1" d="M-571.1,190.8c11.2,10.6-1,17-0.4,0.4C-571.4,190.6-571.1,190.8-571.1,190.8z"/>
	<path class="st1" d="M-573.5,190.9c2,17-12.4,11.2-0.6-0.1C-573.6,190.5-573.5,190.9-573.5,190.9z"/>
	<circle class="st1" cx="-554.6" cy="434.2" r="1.8"/>
	<path class="st1" d="M-551.5,432.8c10.6-13.9,17,1.2,0.4,0.5C-551.8,433.3-551.5,432.8-551.5,432.8z"/>
	<path class="st1" d="M-553.4,431.2c-2-17.6,12.8-11.5,0.6,0.1C-553.4,431.7-553.4,431.2-553.4,431.2z"/>
	<path class="st1" d="M-556.3,431.8c-13.4-10.9,1.2-17.6,0.5-0.4C-555.9,432-556.3,431.8-556.3,431.8z"/>
	<path class="st1" d="M-557.7,433.7c-17,2.1-11.2-13.3,0.1-0.6C-557.3,433.6-557.7,433.7-557.7,433.7z"/>
	<path class="st1" d="M-557.6,435.8c-10.6,13.9-17-1.2-0.4-0.5C-557.4,435.4-557.6,435.8-557.6,435.8z"/>
	<path class="st1" d="M-551.4,435c17-2.1,11.2,13.3-0.1,0.6C-551.9,435.1-551.4,435-551.4,435z"/>
	<path class="st1" d="M-552.9,437.1c11.6,10.9-1,17.6-0.4,0.4C-553.4,436.9-552.9,437.1-552.9,437.1z"/>
	<path class="st1" d="M-555.5,437.2c2,17.6-12.8,11.5-0.6-0.1C-555.6,436.7-555.5,437.2-555.5,437.2z"/>
	<circle class="st1" cx="-396.8" cy="12.9" r="1.5"/>
	<path class="st1" d="M-394.2,11.7c9-11.9,14.5,1,0.3,0.4C-394.4,12.1-394.2,11.7-394.2,11.7z"/>
	<path class="st1" d="M-395.8,10.4c-1.7-15,11-9.9,0.5,0.1C-395.8,10.8-395.8,10.4-395.8,10.4z"/>
	<path class="st1" d="M-398.3,10.9c-11.5-9.3,1-15,0.4-0.3C-397.9,11.1-398.3,10.9-398.3,10.9z"/>
	<path class="st1" d="M-399.5,12.5c-14.5,1.8-9.6-11.4,0.1-0.5C-399.1,12.4-399.5,12.5-399.5,12.5z"/>
	<path class="st1" d="M-399.4,14.3c-9,11.9-14.5-1.1-0.3-0.4C-399.2,13.9-399.4,14.3-399.4,14.3z"/>
	<path class="st1" d="M-394.1,13.6c14.5-1.8,9.5,11.3-0.1,0.5C-394.5,13.7-394.1,13.6-394.1,13.6z"/>
	<path class="st1" d="M-395.4,15.4c9.9,9.3-0.9,15-0.3,0.3C-395.8,15.2-395.4,15.4-395.4,15.4z"/>
	<path class="st1" d="M-397.5,15.5c1.7,15-11,9.9-0.5-0.1C-397.7,15.1-397.5,15.5-397.5,15.5z"/>
	<circle class="st1" cx="-577" cy="71.5" r="1.7"/>
	<path class="st1" d="M-574.1,70.2c10.1-13.3,16.2,1.2,0.4,0.4C-574.3,70.7-574.1,70.2-574.1,70.2z"/>
	<path class="st1" d="M-575.9,68.7c-1.9-16.8,12.3-11,0.6,0.1C-575.8,69.1-575.9,68.7-575.9,68.7z"/>
	<path class="st1" d="M-578.7,69.2c-12.9-10.5,1.1-16.8,0.4-0.4C-578.2,69.5-578.7,69.2-578.7,69.2z"/>
	<path class="st1" d="M-580,71.1c-16.2,2-10.7-12.7,0.1-0.6C-579.5,71-580,71.1-580,71.1z"/>
	<path class="st1" d="M-579.9,73c-10.1,13.3-16.2-1.2-0.4-0.4C-579.7,72.7-579.9,73-579.9,73z"/>
	<path class="st1" d="M-573.9,72.3c16.2-2,10.7,12.7-0.1,0.6C-574.4,72.4-573.9,72.3-573.9,72.3z"/>
	<path class="st1" d="M-575.4,74.3c11.1,10.5-1,16.8-0.4,0.4C-575.8,74.1-575.4,74.3-575.4,74.3z"/>
	<path class="st1" d="M-577.8,74.4c1.9,16.8-12.3,11-0.6-0.1C-578,73.9-577.8,74.4-577.8,74.4z"/>
	<circle class="st1" cx="-108.9" cy="231.1" r="1.8"/>
	<path class="st1" d="M-105.8,229.7c10.6-13.9,17,1.2,0.4,0.5C-106.1,230.1-105.8,229.7-105.8,229.7z"/>
	<path class="st1" d="M-107.7,228.1c-2-17.6,12.8-11.5,0.6,0.1C-107.7,228.6-107.7,228.1-107.7,228.1z"/>
	<path class="st1" d="M-110.6,228.7c-13.4-10.9,1.2-17.6,0.5-0.4C-110.1,228.9-110.6,228.7-110.6,228.7z"/>
	<path class="st1" d="M-112,230.6c-17,2.1-11.2-13.3,0.1-0.6C-111.6,230.5-112,230.6-112,230.6z"/>
	<path class="st1" d="M-111.9,232.6c-10.6,13.9-17-1.2-0.4-0.5C-111.7,232.3-111.9,232.6-111.9,232.6z"/>
	<path class="st1" d="M-105.7,231.9c17-2.1,11.2,13.3-0.1,0.6C-106.2,232-105.7,231.9-105.7,231.9z"/>
	<path class="st1" d="M-107.2,234c11.6,10.9-1,17.6-0.4,0.4C-107.7,233.7-107.2,234-107.2,234z"/>
	<path class="st1" d="M-109.8,234.1c2,17.6-12.8,11.5-0.6-0.1C-109.9,233.6-109.8,234.1-109.8,234.1z"/>
	<circle class="st1" cx="-110.4" cy="389.9" r="1.8"/>
	<path class="st1" d="M-107.4,388.5c10.6-13.9,17,1.2,0.4,0.5C-107.6,389-107.4,388.5-107.4,388.5z"/>
	<path class="st1" d="M-109.3,386.9c-2-17.6,12.8-11.5,0.6,0.1C-109.2,387.4-109.3,386.9-109.3,386.9z"/>
	<path class="st1" d="M-112.1,387.5c-13.4-10.9,1.2-17.6,0.5-0.4C-111.7,387.7-112.1,387.5-112.1,387.5z"/>
	<path class="st1" d="M-113.6,389.4c-17,2.1-11.2-13.3,0.1-0.6C-113.1,389.3-113.6,389.4-113.6,389.4z"/>
	<path class="st1" d="M-113.4,391.5c-10.6,13.9-17-1.2-0.4-0.5C-113.2,391.1-113.4,391.5-113.4,391.5z"/>
	<path class="st1" d="M-107.2,390.7c17-2.1,11.2,13.3-0.1,0.6C-107.7,390.8-107.2,390.7-107.2,390.7z"/>
	<path class="st1" d="M-108.8,392.8c11.6,10.9-1,17.6-0.4,0.4C-109.2,392.5-108.8,392.8-108.8,392.8z"/>
	<path class="st1" d="M-111.3,392.9c2,17.6-12.8,11.5-0.6-0.1C-111.4,392.4-111.3,392.9-111.3,392.9z"/>
</g>
<g id="Vrstva_4">
	<ellipse class="st2" cx="-273.5" cy="152.4" rx="9.6" ry="9.9"/>
	<ellipse class="st2" cx="-322.7" cy="133" rx="8.6" ry="8.8"/>
	<ellipse class="st2" cx="-524.8" cy="185.1" rx="8.7" ry="8.8"/>
	<ellipse class="st2" cx="-407.3" cy="276.9" rx="8.5" ry="8.9"/>
	<ellipse class="st2" cx="-267" cy="203" rx="7.1" ry="7.4"/>
	<ellipse class="st2" cx="-270.7" cy="316.9" rx="7.6" ry="7.9"/>
	<ellipse class="st2" cx="-452.1" cy="273.4" rx="6.1" ry="6.3"/>
	<ellipse class="st2" cx="-351.9" cy="104.2" rx="7.1" ry="7.4"/>
	<ellipse class="st2" cx="-275.7" cy="70.8" rx="6.6" ry="6.8"/>
	<ellipse class="st3" cx="-289.1" cy="29.8" rx="7.6" ry="7.9"/>
	<ellipse class="st3" cx="-324.6" cy="195.6" rx="12.1" ry="12.5"/>
	<ellipse class="st3" cx="-390.4" cy="147.1" rx="9" ry="9.4"/>
	<ellipse class="st4" cx="-322.2" cy="355.6" rx="11.1" ry="11.5"/>
	<ellipse class="st4" cx="-468.2" cy="230.2" rx="6.6" ry="6.8"/>
	<ellipse class="st5" cx="-250.5" cy="257.4" rx="9" ry="9.4"/>
	<ellipse class="st6" cx="-366.1" cy="175.8" rx="5.6" ry="5.7"/>
	<ellipse class="st6" cx="-233.3" cy="185.3" rx="3.5" ry="3.6"/>
	<ellipse class="st6" cx="-285.6" cy="236.7" rx="3.5" ry="3.6"/>
	<ellipse class="st6" cx="-384.2" cy="365.3" rx="3.5" ry="3.6"/>
	<ellipse class="st6" cx="-435.7" cy="245" rx="3.5" ry="3.6"/>
	<ellipse class="st6" cx="-295.8" cy="102.3" rx="3.5" ry="3.6"/>
	<ellipse class="st6" cx="-233.2" cy="300.4" rx="3.5" ry="3.6"/>
	<ellipse class="st4" cx="-178.5" cy="394" rx="11.1" ry="11.5"/>
	
		<ellipse transform="matrix(0.9957 -9.288973e-02 9.288973e-02 0.9957 -18.2136 -40.1109)" class="st2" cx="-440" cy="175.6" rx="8.5" ry="8.9"/>
	<ellipse class="st4" cx="-151.1" cy="230.1" rx="6.6" ry="6.8"/>
	<ellipse class="st2" cx="-444.3" cy="406" rx="8.5" ry="8.9"/>
	<ellipse class="st2" cx="-513.4" cy="364.9" rx="8.5" ry="8.9"/>
	<ellipse class="st2" cx="-523.4" cy="262.8" rx="8.5" ry="8.9"/>
	<ellipse class="st2" cx="-226" cy="340.9" rx="8.5" ry="8.9"/>
	
		<ellipse transform="matrix(0.9957 -9.288973e-02 9.288973e-02 0.9957 -4.4916 -32.7154)" class="st2" cx="-353.7" cy="31.9" rx="8.5" ry="8.9"/>
	
		<ellipse transform="matrix(0.9957 -9.288973e-02 9.288973e-02 0.9957 -4.1693 -39.992)" class="st2" cx="-431.7" cy="24.8" rx="8.5" ry="8.9"/>
	<ellipse class="st6" cx="-480" cy="392.4" rx="3.5" ry="3.6"/>
	<ellipse class="st6" cx="-148.6" cy="350" rx="3.5" ry="3.6"/>
	<ellipse class="st6" cx="-251.2" cy="28.7" rx="2.7" ry="3"/>
	<ellipse class="st6" cx="-401.2" cy="34.9" rx="3.5" ry="3.6"/>
	<ellipse class="st6" cx="-482.6" cy="180.8" rx="5.6" ry="5.7"/>
	<ellipse class="st4" cx="-490.2" cy="58" rx="12.4" ry="12.8"/>
	<g class="st0">
		<path class="st1" d="M-239.8,422.5C-257.7,382.4-283.3,426.8-239.8,422.5"/>
		<path class="st1" d="M-239.8,423C-214,387.8-263.9,385.1-239.8,423"/>
		<path class="st1" d="M-240,422.4C-223.4,463.1-196.3,419.6-240,422.4"/>
		<path class="st1" d="M-240,422.3C-197.7,427.9-220.5,381.9-240,422.3"/>
		<path class="st1" d="M-239.9,422.4C-265.7,457.6-215.7,460-239.9,422.4"/>
		<path class="st1" d="M-239.9,422.5C-282.2,417-259.4,462.9-239.9,422.5"/>
	</g>
	<ellipse class="st3" cx="-240.2" cy="422.3" rx="7.9" ry="8.2"/>
	<ellipse class="st6" cx="-368.8" cy="67.7" rx="5.6" ry="5.7"/>
	<ellipse class="st6" cx="-523.8" cy="10.5" rx="5.5" ry="5.7"/>
	<g class="st0">
		<path class="st1" d="M-529.4,416.5C-499.9,429.8-502.8,397.2-529.4,416.5"/>
		<path class="st1" d="M-529.4,416.5C-503.6,396.6-532.3,383-529.4,416.5"/>
		<path class="st1" d="M-529.4,416.6C-525.7,449.8-500,430.8-529.4,416.6"/>
		<path class="st1" d="M-529.6,416.5C-559.1,403.3-556.2,435.7-529.6,416.5"/>
		<path class="st1" d="M-529.6,416.6C-555.4,436.5-526.7,450-529.6,416.6"/>
		<path class="st1" d="M-529.4,416.5C-533.2,383.3-558.9,402.3-529.4,416.5"/>
	</g>
	<ellipse class="st2" cx="-528.7" cy="416.5" rx="6.1" ry="6.3"/>
	<g class="st0">
		<path class="st1" d="M-486.5,285.2C-460.5,269.1-486,253.7-486.5,285.2"/>
		<path class="st1" d="M-486.5,285.2C-487,253.9-512.7,269.1-486.5,285.2"/>
		<path class="st1" d="M-486.3,285.2C-459.9,300.3-459.9,269.8-486.3,285.2"/>
		<path class="st1" d="M-486.5,285.2C-512.4,301.4-486.9,316.7-486.5,285.2"/>
		<path class="st1" d="M-486.5,285.2C-485.9,316.5-460.3,301.3-486.5,285.2"/>
		<path class="st1" d="M-486.5,285.2C-512.9,270.1-513.1,300.6-486.5,285.2"/>
	</g>
	<ellipse class="st2" cx="-486.3" cy="285.1" rx="5" ry="5.2"/>
	<g class="st0">
		<path class="st1" d="M-120,43.4C-73,42.1-96.2,1.1-120,43.4"/>
		<path class="st1" d="M-120,43.4C-97.6,0.6-143.5,0.9-120,43.4"/>
		<path class="st1" d="M-119.8,43.5C-95.3,84.8-72.6,43.6-119.8,43.5"/>
		<path class="st1" d="M-120,43.4C-167,44.7-143.7,85.6-120,43.4"/>
		<path class="st1" d="M-120,43.5C-142.3,86.2-96.5,85.9-120,43.5"/>
		<path class="st1" d="M-120,43.4C-144.7,1.9-167.2,43.2-120,43.4"/>
	</g>
	<ellipse class="st2" cx="-119.5" cy="43.8" rx="7.6" ry="7.9"/>
	<g class="st0">
		<path class="st1" d="M-561.7,31.4C-514.7,30-537.9-11-561.7,31.4"/>
		<path class="st1" d="M-561.7,31.2C-539.3-11.5-585.2-11.1-561.7,31.2"/>
		<path class="st1" d="M-561.5,31.4C-537,72.8-514.3,31.5-561.5,31.4"/>
		<path class="st1" d="M-561.7,31.4C-608.5,32.7-585.4,73.6-561.7,31.4"/>
		<path class="st1" d="M-561.7,31.5C-584,74.2-538,73.9-561.7,31.5"/>
		<path class="st1" d="M-561.7,31.2C-586.3-10.1-608.9,31.1-561.7,31.2"/>
	</g>
	<ellipse class="st2" cx="-560.6" cy="31.6" rx="7.6" ry="7.9"/>
	<ellipse class="st2" cx="-129.2" cy="138.5" rx="7.6" ry="7.9"/>
	<g class="st0">
		<path class="st1" d="M-111.3,268.4C-84.2,267.6-97.5,242.1-111.3,268.4"/>
		<path class="st1" d="M-111.3,268.4C-98.4,241.8-124.8,241.9-111.3,268.4"/>
		<path class="st1" d="M-111.2,268.6C-97,294.3-83.9,268.6-111.2,268.6"/>
		<path class="st1" d="M-111.3,268.4C-138.4,269.2-125,294.8-111.3,268.4"/>
		<path class="st1" d="M-111.3,268.6C-124.2,295.2-97.7,294.9-111.3,268.6"/>
		<path class="st1" d="M-111.3,268.4C-125.5,242.6-138.5,268.4-111.3,268.4"/>
	</g>
	<ellipse class="st2" cx="-111.5" cy="268.1" rx="7.6" ry="7.9"/>
	<g class="st0">
		<path class="st1" d="M-556.9,229.1C-509.9,227.8-533.2,186.9-556.9,229.1"/>
		<path class="st1" d="M-556.9,229.1C-534.6,186.4-580.4,186.6-556.9,229.1"/>
		<path class="st1" d="M-556.8,229.2C-532.3,270.6-509.5,229.4-556.8,229.2"/>
		<path class="st1" d="M-556.9,229.1C-603.9,230.4-580.7,271.3-556.9,229.1"/>
		<path class="st1" d="M-556.9,229.2C-579.3,272-533.4,271.6-556.9,229.2"/>
		<path class="st1" d="M-556.9,229.1C-581.6,187.7-604.2,229-556.9,229.1"/>
	</g>
	<ellipse class="st2" cx="-557.5" cy="229.5" rx="7.6" ry="7.9"/>
	<g class="st0">
		<path class="st1" d="M-561.4,140.3C-514.4,139-537.6,98-561.4,140.3"/>
		<path class="st1" d="M-561.4,140.3C-539,97.5-584.9,97.8-561.4,140.3"/>
		<path class="st1" d="M-561.2,140.4C-536.7,181.7-514,140.5-561.2,140.4"/>
		<path class="st1" d="M-561.4,140.3C-608.4,141.6-585.1,182.5-561.4,140.3"/>
		<path class="st1" d="M-561.4,140.4C-583.7,183.1-537.9,182.7-561.4,140.4"/>
		<path class="st1" d="M-561.4,140.3C-586,98.8-608.6,140.1-561.4,140.3"/>
	</g>
	<ellipse class="st2" cx="-561.9" cy="140.6" rx="7.6" ry="7.9"/>
	<g class="st0">
		<path class="st1" d="M-567.3,280.8C-537.7,294-540.7,261.5-567.3,280.8"/>
		<path class="st1" d="M-567.3,280.8C-541.5,260.9-570.1,247.3-567.3,280.8"/>
		<path class="st1" d="M-567.3,280.9C-563.6,314-537.9,295.1-567.3,280.9"/>
		<path class="st1" d="M-567.4,280.8C-597,267.6-594,300-567.4,280.8"/>
		<path class="st1" d="M-567.4,280.9C-593.3,300.7-564.6,314.3-567.4,280.9"/>
		<path class="st1" d="M-567.3,280.8C-571,247.6-596.7,266.5-567.3,280.8"/>
	</g>
	<ellipse class="st2" cx="-566.5" cy="280.8" rx="6.1" ry="6.3"/>
	<g class="st0">
		<path class="st1" d="M-110.9,93.4C-81.3,106.7-84.3,74.2-110.9,93.4"/>
		<path class="st1" d="M-110.9,93.4C-85.1,73.5-113.7,59.9-110.9,93.4"/>
		<path class="st1" d="M-110.9,93.5C-107.1,126.7-81.4,107.7-110.9,93.5"/>
		<path class="st1" d="M-111,93.4C-140.6,80.2-137.6,112.6-111,93.4"/>
		<path class="st1" d="M-111,93.5C-136.8,113.4-108.2,127-111,93.5"/>
		<path class="st1" d="M-110.9,93.4C-114.6,60.2-140.3,79.2-110.9,93.4"/>
	</g>
	<ellipse class="st2" cx="-110.9" cy="93.4" rx="6.1" ry="6.3"/>
	<g class="st0">
		<path class="st1" d="M-576.6,407.7C-547,421-550,388.5-576.6,407.7"/>
		<path class="st1" d="M-576.6,407.7C-550.8,387.8-579.4,374.3-576.6,407.7"/>
		<path class="st1" d="M-576.6,407.9C-572.9,441-547.1,422.1-576.6,407.9"/>
		<path class="st1" d="M-576.7,407.7C-606.3,394.5-603.3,427-576.7,407.7"/>
		<path class="st1" d="M-576.7,407.9C-602.6,427.7-573.9,441.3-576.7,407.9"/>
		<path class="st1" d="M-576.6,407.7C-580.3,374.5-606,393.5-576.6,407.7"/>
	</g>
	<ellipse class="st2" cx="-575.8" cy="407.7" rx="6.1" ry="6.3"/>
	<g class="st0">
		<path class="st1" d="M-241.9,12.3C-220.8,21.8-222.8-1.5-241.9,12.3"/>
		<path class="st1" d="M-241.9,12.3C-223.4-1.9-243.9-11.6-241.9,12.3"/>
		<path class="st1" d="M-241.9,12.4C-239.2,36.1-220.8,22.5-241.9,12.4"/>
		<path class="st1" d="M-241.9,12.3C-263.1,2.9-261,26.1-241.9,12.3"/>
		<path class="st1" d="M-241.9,12.4C-260.5,26.6-239.9,36.3-241.9,12.4"/>
		<path class="st1" d="M-241.9,12.3C-244.6-11.4-263,2.2-241.9,12.3"/>
	</g>
	<ellipse class="st2" cx="-241.4" cy="12.3" rx="4.4" ry="4.5"/>
	<g class="st0">
		<path class="st1" d="M-570.9,329.3C-541.4,342.6-544.3,310.1-570.9,329.3"/>
		<path class="st1" d="M-570.9,329.3C-545.1,309.4-573.8,295.9-570.9,329.3"/>
		<path class="st1" d="M-570.9,329.4C-567.2,362.6-541.5,343.6-570.9,329.4"/>
		<path class="st1" d="M-571.1,329.3C-600.6,316.1-597.7,348.5-571.1,329.3"/>
		<path class="st1" d="M-571.1,329.4C-596.9,349.3-568.2,362.9-571.1,329.4"/>
		<path class="st1" d="M-570.9,329.3C-574.7,296.1-600.4,315.1-570.9,329.3"/>
	</g>
	<g class="st0">
		<path class="st1" d="M-106.4,308.4C-76.8,321.7-79.8,289.1-106.4,308.4"/>
		<path class="st1" d="M-106.4,308.4C-80.5,288.5-109.2,274.9-106.4,308.4"/>
		<path class="st1" d="M-106.4,308.5C-102.6,341.6-76.9,322.7-106.4,308.5"/>
		<path class="st1" d="M-106.5,308.4C-136.1,295.2-133.1,327.6-106.5,308.4"/>
		<path class="st1" d="M-106.5,308.5C-132.3,328.3-103.6,341.9-106.5,308.5"/>
		<path class="st1" d="M-106.4,308.4C-110.1,275.2-135.8,294.1-106.4,308.4"/>
	</g>
	<ellipse class="st6" cx="-489.7" cy="4.2" rx="4" ry="4.1"/>
	<g class="st0">
		<path class="st1" d="M-416.9,441.4C-397.6,440.9-407.2,424.1-416.9,441.4"/>
		<path class="st1" d="M-416.9,441.4C-407.7,423.9-426.5,424-416.9,441.4"/>
		<path class="st1" d="M-416.8,441.4C-406.8,458.4-397.5,441.5-416.8,441.4"/>
		<path class="st1" d="M-416.9,441.4C-436.1,441.9-426.6,458.7-416.9,441.4"/>
		<path class="st1" d="M-416.9,441.4C-426,458.9-407.3,458.8-416.9,441.4"/>
		<path class="st1" d="M-416.9,441.4C-427,424.4-436.2,441.3-416.9,441.4"/>
	</g>
	<ellipse class="st2" cx="-416.6" cy="441.4" rx="3.1" ry="3.2"/>
	<g class="st0">
		<path class="st1" d="M-177.1,440.5C-157.9,440-167.4,423.2-177.1,440.5"/>
		<path class="st1" d="M-177.1,440.5C-168,423-186.8,423.1-177.1,440.5"/>
		<path class="st1" d="M-177.1,440.6C-167,457.5-157.7,440.6-177.1,440.6"/>
		<path class="st1" d="M-177.1,440.5C-196.4,441.1-186.9,457.8-177.1,440.5"/>
		<path class="st1" d="M-177.1,440.6C-186.3,458.1-167.5,457.9-177.1,440.6"/>
		<path class="st1" d="M-177.1,440.5C-187.2,423.6-196.5,440.5-177.1,440.5"/>
	</g>
	<ellipse class="st2" cx="-176.8" cy="440.5" rx="3.1" ry="3.2"/>
	<g class="st0">
		<path class="st1" d="M-404.4,374.7C-385.1,374.2-394.6,357.4-404.4,374.7"/>
		<path class="st1" d="M-404.4,374.7C-395.2,357.2-414,357.3-404.4,374.7"/>
		<path class="st1" d="M-404.3,374.8C-394.3,391.7-385,374.8-404.3,374.8"/>
		<path class="st1" d="M-404.4,374.7C-423.6,375.2-414.1,392-404.4,374.7"/>
		<path class="st1" d="M-404.4,374.8C-413.5,392.3-394.8,392.1-404.4,374.8"/>
		<path class="st1" d="M-404.4,374.7C-414.5,357.7-423.7,374.7-404.4,374.7"/>
	</g>
	<ellipse class="st2" cx="-404.1" cy="374.7" rx="3.1" ry="3.2"/>
	<g class="st0">
		<path class="st1" d="M-103.1,11.3C-83.9,10.7-93.4-6-103.1,11.3"/>
		<path class="st1" d="M-103.1,11.3C-94-6.2-112.8-6.1-103.1,11.3"/>
		<path class="st1" d="M-103.1,11.3C-93,28.2-83.7,11.4-103.1,11.3"/>
		<path class="st1" d="M-103.1,11.3C-122.4,11.8-112.9,28.5-103.1,11.3"/>
		<path class="st1" d="M-103.1,11.3C-112.3,28.8-93.5,28.7-103.1,11.3"/>
		<path class="st1" d="M-103.1,11.3C-113.2-5.7-122.5,11.2-103.1,11.3"/>
	</g>
	<ellipse class="st2" cx="-102.8" cy="11.2" rx="3.1" ry="3.2"/>
</g>
<ellipse class="st6" cx="-120.3" cy="426.3" rx="3.2" ry="3.3"/>
<path class="st6" d="M-118.5,423.2c8.4-31.6,29.8-10.5,1,0.5C-118.7,424.3-118.5,423.2-118.5,423.2z"/>
<path class="st6" d="M-120.6,422.7c-15.7-28.6,14-29.3,1-0.4C-119.9,423.5-120.6,422.7-120.6,422.7z"/>
<path class="st6" d="M-122.6,424.1c-30.6-8.6-10.2-30.9,0.5-1C-121.7,424.3-122.6,424.1-122.6,424.1z"/>
<path class="st6" d="M-123.9,426.9c-27.5,16.3-28.3-14.4-0.4-1C-123.2,426.3-123.9,426.9-123.9,426.9z"/>
<path class="st6" d="M-121.7,429.2c-8.4,31.6-29.8,10.5-1-0.5C-121.6,428.3-121.7,429.2-121.7,429.2z"/>
<path class="st6" d="M-117,425.3c27.5-16.3,28.3,14.4,0.4,1C-117.7,425.9-117,425.3-117,425.3z"/>
<path class="st6" d="M-117.1,428.4c30.6,8.6,10.2,30.9-0.5,1C-118,428.3-117.1,428.4-117.1,428.4z"/>
<path class="st6" d="M-119.3,429.5c15.7,28.5-14,29.3-1,0.4C-119.8,428.8-119.3,429.5-119.3,429.5z"/>
</svg>
